<?xml version="1.0" encoding="iso-8859-1"?>
<!-- Generator: Adobe Illustrator 20.0.0, SVG Export Plug-In . SVG Version: 6.00 Build 0)  -->
<svg version="1.1" id="Layer_1" xmlns="http://www.w3.org/2000/svg" xmlns:xlink="http://www.w3.org/1999/xlink" x="0px" y="0px"
	 viewBox="0 0 200 200" style="enable-background:new 0 0 200 200;" xml:space="preserve">
<style type="text/css">
	.st0{fill:#95A1A8;}
	.st1{fill:#0072C3;}
	.st2{fill:#FFFFFF;}
	.st3{fill:#19B3FF;}
	.st4{fill:none;stroke:#FFFFFF;stroke-miterlimit:10;}
	.st5{fill:none;stroke:#FFFFFF;stroke-width:1.0653;stroke-miterlimit:10;}
	.st6{fill:none;stroke:#82979F;stroke-miterlimit:10;}
	.st7{fill:#ACB8C4;}
	.st8{fill:#D5DDE6;}
	.st9{fill:#DBE3EB;}
	.st10{clip-path:url(#SVGID_2_);}
	.st11{opacity:0.39;fill:url(#SVGID_3_);}
	.st12{opacity:0.39;fill:url(#SVGID_4_);}
	.st13{opacity:0.39;fill:url(#SVGID_5_);}
	.st14{opacity:0.72;fill:url(#SVGID_6_);}
	.st15{opacity:0.13;fill:url(#SVGID_7_);}
	.st16{fill:#637787;}
	.st17{fill:none;stroke:#E0E8F1;stroke-width:1.5826;stroke-miterlimit:10;}
	.st18{fill:none;stroke:#E0E8F1;stroke-width:1.5826;stroke-miterlimit:10;stroke-dasharray:10.5002,3.0001;}
	.st19{fill:none;stroke:#E0E8F1;stroke-width:1.5826;stroke-miterlimit:10;stroke-dasharray:10.4505,2.9859;}
	.st20{fill:none;stroke:#E0E8F1;stroke-width:1.5826;stroke-miterlimit:10;stroke-dasharray:10.5126,3.0036;}
	.st21{fill:#E2EAF3;}
	.st22{fill:none;stroke:#E0E8F1;stroke-width:1.5826;stroke-miterlimit:10;stroke-dasharray:14,4;}
	.st23{fill:none;stroke:#FFFFFF;stroke-width:2.6779;stroke-miterlimit:10;}
</style>
<g id="cancel-x-btn_x60_15x15">
	<path class="st0" d="M14.3,13.1c0.2,0.2,0.2,0.4,0.2,0.6s-0.1,0.4-0.2,0.6c-0.2,0.2-0.4,0.2-0.6,0.2s-0.4-0.1-0.6-0.2L7.3,8.5
		l-5.8,5.8c-0.2,0.2-0.4,0.2-0.6,0.2c-0.1,0-0.3,0-0.3-0.1c-0.1,0-0.2-0.1-0.3-0.2C0.1,14.1,0,13.9,0,13.6c0-0.2,0.1-0.4,0.2-0.6
		L6,7.2L0.3,1.5C0.2,1.4,0.2,1.3,0.1,1.2C0.1,1.1,0,1,0,0.9s0.1-0.3,0.1-0.4s0.1-0.2,0.2-0.3C0.5,0,0.7,0,0.9,0s0.4,0.1,0.6,0.2
		L7.3,6l5.8-5.8C13.3,0,13.5,0,13.7,0s0.4,0.1,0.6,0.2c0.1,0.1,0.1,0.2,0.2,0.3c0,0.1,0.1,0.2,0.1,0.3s0,0.2-0.1,0.3
		c0,0.1-0.1,0.2-0.2,0.3L8.5,7.2L14.3,13.1z"/>
</g>
<g id="back-x-btn_x60_9x15">
	<path class="st0" d="M0,7.2l7-7C7.2,0,7.4,0,7.6,0S8,0.1,8.2,0.2c0.1,0.1,0.1,0.2,0.2,0.3c0,0.1,0.1,0.2,0.1,0.3s0,0.2-0.1,0.3
		c0,0.1-0.1,0.2-0.2,0.3L2.4,7.2L8.2,13c0.2,0.2,0.2,0.4,0.2,0.6S8.3,14,8.2,14.2c-0.2,0.2-0.4,0.2-0.6,0.2c-0.2,0-0.4-0.1-0.6-0.2
		L0,7.2z"/>
</g>
<g id="next-arrow-btn_x60_94x40">
	<polygon class="st1" points="81.3,0 0,0 0,39.6 81.3,39.6 93.5,19.8 	"/>
</g>
<g id="create-hex_x60_165x191">
	<polygon class="st2" points="164.8,142.7 82.4,190.3 0,142.7 0,47.5 82.4,0 164.8,47.5 	"/>
</g>
<g id="dropdown-check_x60_12x9">
	<path class="st3" d="M3.175,7.85l-2.8-2.8c-0.5-0.6-0.5-1.5,0-2c0.6-0.6,1.5-0.6,2,0l1.8,1.8l4.4-4.4c0.5-0.6,1.5-0.6,2,0
		c0.5,0.5,0.5,1.5,0,2l-5.4,5.4c-0.3,0.3-0.6,0.4-1,0.4S3.475,8.15,3.175,7.85z"/>
</g>
<g id="whats-next_x60_350x205">
	<line class="st4" x1="174.633" y1="57.033" x2="174.633" y2="203.433"/>
	<polyline class="st4" points="125.433,154.233 174.633,203.433 223.733,154.233 	"/>
	<rect x="0.533" y="0.533" class="st5" width="348.1" height="56.6"/>
</g>
<g id="next-process_x60_453x468">
	<polyline class="st6" points="215.6,35.1 177.6,73.1 146.2,73.1 	"/>
	<polyline class="st6" points="237.4,150.6 275.4,112.6 306.8,112.6 	"/>
	<polyline class="st6" points="215.6,305.1 177.6,343.1 146.2,343.1 	"/>
	<polyline class="st6" points="237.4,420.6 275.4,382.6 306.8,382.6 	"/>
	<circle class="st7" cx="379.9" cy="382.7" r="73.1"/>
	<g>
		<polygon class="st8" points="431.404,378.897 418.05,386.607 404.696,378.897 404.696,363.478 418.05,355.768 431.404,363.478 		
			"/>
		<polygon class="st2" points="404.696,363.478 418.05,371.187 431.404,363.478 418.05,355.768 		"/>
		<polygon class="st9" points="418.05,371.187 418.05,386.607 404.696,378.897 404.696,363.478 		"/>
	</g>
	<g>
		<polygon class="st8" points="410.931,390.365 381.2,407.531 351.469,390.365 351.469,356.035 381.2,338.869 410.931,356.035 		"/>
		<polygon class="st2" points="351.469,356.035 381.2,373.2 410.931,356.035 381.2,338.869 		"/>
		<polygon class="st9" points="381.2,373.2 381.2,407.531 351.469,390.365 351.469,356.035 		"/>
	</g>
	<g>
		<polygon class="st8" points="355.121,400.455 341.767,408.165 328.413,400.455 328.413,385.035 341.767,377.326 355.121,385.035 
					"/>
		<polygon class="st2" points="328.413,385.035 341.767,392.745 355.121,385.035 341.767,377.326 		"/>
		<polygon class="st9" points="341.767,392.745 341.767,408.165 328.413,400.455 328.413,385.035 		"/>
	</g>
	<g>
		<polygon class="st8" points="374.424,411.386 361.071,419.095 347.717,411.386 347.717,395.966 361.071,388.256 374.424,395.966 
					"/>
		<polygon class="st2" points="347.717,395.966 361.071,403.676 374.424,395.966 361.071,388.256 		"/>
		<polygon class="st9" points="361.071,403.676 361.071,419.095 347.717,411.386 347.717,395.966 		"/>
	</g>
	<circle class="st7" cx="73.1" cy="343.1" r="73.1"/>
	<polygon class="st8" points="108.142,370.269 73.1,390.5 38.058,370.269 38.058,329.806 73.1,309.575 108.142,329.806 	"/>
	<polygon class="st2" points="38.058,329.806 73.1,350.037 108.142,329.806 73.1,309.575 	"/>
	<polygon class="st9" points="73.1,350.037 73.1,390.5 38.058,370.269 38.058,329.806 	"/>
	<g>
		<polygon class="st8" points="45.379,329.806 73.1,345.811 73.1,313.801 		"/>
		<polygon class="st9" points="73.1,313.801 73.1,345.811 100.821,329.806 		"/>
	</g>
	<g>
		<defs>
			<polygon id="SVGID_1_" points="45.379,329.806 73.1,345.811 100.821,329.806 100.821,274.618 45.379,274.618 			"/>
		</defs>
		<clipPath id="SVGID_2_">
			<use xlink:href="#SVGID_1_"  style="overflow:visible;"/>
		</clipPath>
		<g class="st10">
			<polygon class="st2" points="93.227,319.321 73.1,330.942 52.973,319.321 52.973,296.081 73.1,284.46 93.227,296.081 			"/>
			<polygon class="st2" points="52.973,296.081 73.1,307.701 93.227,296.081 73.1,284.46 			"/>
			<polygon class="st2" points="73.1,307.701 73.1,330.942 52.973,319.321 52.973,296.081 			"/>
		</g>
	</g>
	<linearGradient id="SVGID_3_" gradientUnits="userSpaceOnUse" x1="91.0615" y1="307.1705" x2="91.0615" y2="257.449">
		<stop  offset="0" style="stop-color:#FFFFFF"/>
		<stop  offset="1" style="stop-color:#FFFFFF;stop-opacity:0"/>
	</linearGradient>
	<polygon class="st11" points="93.737,228.74 88.386,231.816 88.386,316.92 93.737,313.844 	"/>
	<linearGradient id="SVGID_4_" gradientUnits="userSpaceOnUse" x1="66.4007" y1="308.236" x2="66.4007" y2="258.5144">
		<stop  offset="0" style="stop-color:#FFFFFF"/>
		<stop  offset="1" style="stop-color:#FFFFFF;stop-opacity:0"/>
	</linearGradient>
	<polygon class="st12" points="69.077,229.806 63.725,232.882 63.725,317.985 69.077,314.909 	"/>
	<linearGradient id="SVGID_5_" gradientUnits="userSpaceOnUse" x1="61.7248" y1="303.9055" x2="61.7248" y2="251.4587">
		<stop  offset="0" style="stop-color:#FFFFFF"/>
		<stop  offset="1" style="stop-color:#FFFFFF;stop-opacity:0"/>
	</linearGradient>
	<polygon class="st13" points="67.899,221.176 55.551,229.086 55.551,314.189 67.899,306.28 	"/>
	<linearGradient id="SVGID_6_" gradientUnits="userSpaceOnUse" x1="55.5791" y1="290.174" x2="55.5791" y2="239.8974">
		<stop  offset="0" style="stop-color:#FFFFFF"/>
		<stop  offset="1" style="stop-color:#FFFFFF;stop-opacity:0"/>
	</linearGradient>
	<polygon class="st14" points="58.255,235.51 52.903,238.586 52.903,296.969 58.255,293.893 	"/>
	
		<linearGradient id="SVGID_7_" gradientUnits="userSpaceOnUse" x1="-531.2824" y1="308.4121" x2="-531.2824" y2="259.4812" gradientTransform="matrix(-1 0 0 1 -447.5248 0)">
		<stop  offset="0" style="stop-color:#FFFFFF"/>
		<stop  offset="1" style="stop-color:#FFFFFF;stop-opacity:0"/>
	</linearGradient>
	<polygon class="st15" points="79.13,231.229 88.386,235.025 88.386,318.006 79.13,314.21 	"/>
	<circle class="st16" cx="226.5" cy="433" r="18.5"/>
	<circle class="st16" cx="226.5" cy="298.5" r="18.5"/>
	<circle class="st16" cx="226.5" cy="164" r="18.5"/>
	<circle class="st16" cx="226.5" cy="29.6" r="18.5"/>
	<path class="st2" d="M226.1,26.3l-2.2,2.3l-1.6-1.7l4.2-4.2h2.5V36h-2.8L226.1,26.3L226.1,26.3z"/>
	<path class="st2" d="M221,168.2c5.5-4,7.1-5.4,7.1-7c0-1.2-1.1-1.7-2.2-1.7c-1.5,0-2.7,0.6-3.6,1.5l-1.6-1.9
		c1.3-1.5,3.3-2.2,5.1-2.2c2.8,0,5.1,1.6,5.1,4.3c0,2.3-1.9,4.3-5.5,6.8h5.6v2.5h-10V168.2z"/>
	<path class="st2" d="M222.2,301.9c0.9,1,2.4,1.5,3.7,1.5c1.6,0,2.5-0.7,2.5-1.7c0-1.1-0.8-1.6-2.7-1.6c-0.6,0-1.5,0-1.7,0v-2.5
		c0.2,0,1.2,0,1.7,0c1.5,0,2.5-0.5,2.5-1.5c0-1.1-1.1-1.6-2.5-1.6c-1.3,0-2.5,0.5-3.4,1.4l-1.4-1.8c1.1-1.2,2.8-2.1,5.1-2.1
		c3.1,0,5,1.4,5,3.6c0,1.7-1.4,2.8-2.9,3c1.4,0.1,3.1,1.2,3.1,3.2c0,2.3-2.1,3.9-5.3,3.9c-2.5,0-4.3-0.9-5.3-2.1L222.2,301.9z"/>
	<path class="st2" d="M227.1,437.8h-6.4v-2.2l5.3-8.3h3.9v8.1h1.7v2.5h-1.7v2.8h-2.8V437.8L227.1,437.8z M223.5,435.3h3.6v-5.6
		L223.5,435.3z"/>
	<circle class="st7" cx="379.9" cy="112.7" r="73.1"/>
	<g id="hex-platform_1_">
		<g id="_x3E_bg_1_">
			<g>
				<polyline class="st17" points="419.2,127.6 419.2,134.6 413.132,138.09 				"/>
				<line class="st18" x1="410.531" y1="139.585" x2="388.426" y2="152.298"/>
				<polyline class="st17" points="387.126,153.046 381.057,156.536 374.996,153.035 				"/>
				<line class="st19" x1="372.41" y1="151.542" x2="350.433" y2="138.848"/>
				<polyline class="st17" points="349.14,138.101 343.079,134.6 343.079,127.6 				"/>
				<line class="st20" x1="343.079" y1="124.596" x2="343.079" y2="99.066"/>
				<polyline class="st17" points="343.079,97.564 343.079,90.564 349.14,87.063 				"/>
				<line class="st19" x1="351.726" y1="85.57" x2="373.703" y2="72.876"/>
				<polyline class="st17" points="374.996,72.129 381.057,68.628 387.126,72.118 				"/>
				<line class="st18" x1="389.726" y1="73.614" x2="411.832" y2="86.327"/>
				<polyline class="st17" points="413.132,87.074 419.2,90.564 419.2,97.564 				"/>
				<line class="st20" x1="419.2" y1="100.568" x2="419.2" y2="126.098"/>
			</g>
		</g>
		<g id="logo-horizontal_1_">
			<g>
				<polygon class="st2" points="399.72,132.472 380.894,142.13 361.577,132.308 380.403,122.486 				"/>
				<polygon class="st21" points="391.698,128.379 380.566,134.109 369.271,128.216 380.403,122.486 				"/>
				<polygon class="st8" points="380.894,142.13 399.72,132.472 399.72,135.255 380.894,144.913 				"/>
				<polygon class="st9" points="380.894,142.13 361.577,132.308 361.577,135.091 380.894,144.913 				"/>
			</g>
			<g>
				<polygon class="st8" points="381.057,126.415 396.445,118.557 396.445,120.849 381.057,128.707 				"/>
				<polygon class="st9" points="381.057,126.415 365.669,118.557 365.669,120.849 381.057,128.707 				"/>
				<polygon class="st2" points="396.445,118.557 381.057,126.415 365.669,118.557 381.057,110.699 				"/>
				<polygon class="st21" points="392.353,116.429 381.057,122.322 369.762,116.429 381.057,110.699 				"/>
			</g>
			<g>
				<polygon class="st8" points="381.057,114.137 399.72,104.479 399.72,107.425 381.057,116.92 				"/>
				<polygon class="st9" points="381.057,114.137 362.395,104.479 362.395,107.425 381.057,116.92 				"/>
				<polygon class="st2" points="399.72,104.479 381.057,114.137 362.395,104.479 381.057,94.984 				"/>
				<polygon class="st21" points="394.808,102.023 381.057,109.062 367.306,102.023 381.057,94.984 				"/>
			</g>
			<g>
				<polygon class="st2" points="399.72,89.746 380.894,99.404 362.068,89.746 380.894,80.087 				"/>
				<polygon class="st8" points="380.894,99.404 399.72,89.746 399.72,92.692 380.894,102.351 				"/>
				<polygon class="st9" points="380.894,99.404 362.068,89.746 362.068,92.692 380.894,102.351 				"/>
			</g>
		</g>
	</g>
	<path class="st22" d="M399.72,102.023"/>
	<circle class="st7" cx="73.1" cy="73.1" r="73.1"/>
	<polygon class="st8" points="96.524,86.624 73.1,100.148 49.676,86.624 49.676,59.576 73.1,46.052 96.524,59.576 	"/>
	<polygon class="st2" points="49.676,59.576 73.1,73.1 96.524,59.576 73.1,46.052 	"/>
	<polygon class="st9" points="73.1,73.1 73.1,100.148 49.676,86.624 49.676,59.576 	"/>
	<line class="st17" x1="73.1" y1="40.903" x2="73.1" y2="28.576"/>
	<line class="st17" x1="87.097" y1="44.015" x2="92.32" y2="32.85"/>
	<line class="st17" x1="59.103" y1="44.015" x2="53.88" y2="32.85"/>
	<line class="st17" x1="73.1" y1="105.297" x2="73.1" y2="117.624"/>
	<line class="st17" x1="87.097" y1="102.185" x2="92.32" y2="113.35"/>
	<line class="st17" x1="59.103" y1="102.185" x2="53.88" y2="113.35"/>
	<line class="st17" x1="105.297" y1="73.1" x2="117.624" y2="73.1"/>
	<line class="st17" x1="102.185" y1="87.097" x2="113.35" y2="92.32"/>
	<line class="st17" x1="102.185" y1="59.103" x2="113.35" y2="53.88"/>
	<line class="st17" x1="40.903" y1="73.1" x2="28.576" y2="73.1"/>
	<line class="st17" x1="44.015" y1="87.097" x2="32.85" y2="92.32"/>
	<line class="st17" x1="44.015" y1="59.103" x2="32.85" y2="53.88"/>
</g>
<g id="gray-smiler_x60_37x37">
	<circle class="st16" cx="18.5" cy="18.5" r="18.5"/>
	<path class="st23" d="M6.8,24.5c2.2,4.3,6.6,7.2,11.7,7.2s9.5-2.9,11.7-7.2"/>
	<circle class="st2" cx="30.9" cy="13.1" r="2.2"/>
	<circle class="st2" cx="6.1" cy="13.1" r="2.2"/>
</g>
</svg>
