<?xml version="1.0" encoding="iso-8859-1"?>
<!-- Generator: Adobe Illustrator 22.1.0, SVG Export Plug-In . SVG Version: 6.00 Build 0)  -->
<svg version="1.1" id="Layer_1" xmlns="http://www.w3.org/2000/svg" xmlns:xlink="http://www.w3.org/1999/xlink" x="0px" y="0px"
	 viewBox="0 0 200 200" style="enable-background:new 0 0 200 200;" xml:space="preserve">
<style type="text/css">
	.st0{fill:#0072C3;}
	.st1{fill:#FFFFFF;}
	.st2{fill:#19B3FF;}
	.st3{fill:none;stroke:#FFFFFF;stroke-width:1.5;stroke-miterlimit:10;}
	.st4{fill:none;stroke:#82979F;stroke-miterlimit:10;}
	.st5{fill:#ACB8C4;}
	.st6{fill:#D5DDE6;}
	.st7{fill:#DBE3EB;}
	.st8{clip-path:url(#SVGID_2_);}
	.st9{opacity:0.39;fill:url(#SVGID_3_);enable-background:new    ;}
	.st10{opacity:0.39;fill:url(#SVGID_4_);enable-background:new    ;}
	.st11{opacity:0.39;fill:url(#SVGID_5_);enable-background:new    ;}
	.st12{opacity:0.72;fill:url(#SVGID_6_);enable-background:new    ;}
	.st13{opacity:0.13;fill:url(#SVGID_7_);enable-background:new    ;}
	.st14{fill:#637787;}
	.st15{fill:none;stroke:#E0E8F1;stroke-width:1.5826;stroke-miterlimit:10;}
	.st16{fill:none;stroke:#E0E8F1;stroke-width:1.5826;stroke-miterlimit:10;stroke-dasharray:10.5002,3.0001;}
	.st17{fill:none;stroke:#E0E8F1;stroke-width:1.5826;stroke-miterlimit:10;stroke-dasharray:10.4505,2.9859;}
	.st18{fill:none;stroke:#E0E8F1;stroke-width:1.5826;stroke-miterlimit:10;stroke-dasharray:10.5126,3.0036;}
	.st19{fill:#E2EAF3;}
	.st20{fill:none;stroke:#E0E8F1;stroke-width:1.5826;stroke-miterlimit:10;stroke-dasharray:14,4;}
	.st21{fill:none;stroke:#FFFFFF;stroke-width:2.6779;stroke-miterlimit:10;}
	.st22{fill:none;stroke:#1EB8FF;stroke-width:3;stroke-linecap:square;stroke-linejoin:bevel;}
	.st23{fill:none;stroke:#1EB8FF;stroke-width:3;stroke-linecap:square;stroke-linejoin:bevel;stroke-dasharray:6.5109,10.8515;}
	.st24{fill:none;stroke:#1EB8FF;stroke-width:3;stroke-linecap:square;stroke-linejoin:bevel;stroke-dasharray:6.5102,10.8504;}
	.st25{fill:none;stroke:#1EB8FF;stroke-width:3;stroke-linecap:square;stroke-linejoin:bevel;stroke-dasharray:6.5101,10.8501;}
	.st26{fill:none;stroke:#1EB8FF;stroke-width:3;stroke-linecap:square;stroke-linejoin:bevel;stroke-dasharray:6.5107,10.8512;}
	.st27{fill:none;stroke:#43C4A6;stroke-width:2.3066;stroke-miterlimit:10;}
	.st28{fill:#F3F7FA;}
	.st29{fill:#1EB8FF;}
	.st30{fill:none;}
	.st31{fill:#00ADFE;}
	.st32{fill:#DAE2E8;}
	.st33{fill:#EBF7FF;}
	.st34{fill:#BACEDB;}
	.st35{fill:#C7DEED;}
	.st36{fill:#51D5FB;}
	.st37{fill:url(#SVGID_8_);}
	.st38{fill:#44B9DA;}
	.st39{fill:url(#SVGID_9_);}
	.st40{fill:url(#SVGID_10_);}
	.st41{fill:url(#SVGID_11_);}
	.st42{fill:url(#SVGID_12_);}
	.st43{fill:url(#SVGID_13_);}
	.st44{fill:url(#SVGID_14_);}
	.st45{fill:url(#SVGID_15_);}
	.st46{fill:url(#SVGID_16_);}
	.st47{fill:#3FACCB;}
	.st48{fill:url(#SVGID_17_);}
	.st49{fill:url(#SVGID_18_);}
	.st50{fill:url(#SVGID_19_);}
	.st51{fill:url(#SVGID_20_);}
	.st52{fill:url(#SVGID_21_);}
	.st53{fill:url(#SVGID_22_);}
	.st54{fill:url(#SVGID_23_);}
	.st55{fill:url(#SVGID_24_);}
	.st56{fill:url(#SVGID_25_);}
	.st57{fill:url(#SVGID_26_);}
	.st58{fill:url(#SVGID_27_);}
	.st59{fill:url(#SVGID_28_);}
	.st60{fill:url(#SVGID_29_);}
	.st61{fill:url(#SVGID_30_);}
	.st62{fill:url(#SVGID_31_);}
	.st63{fill:none;stroke:#ABCCD9;stroke-linecap:round;stroke-linejoin:round;stroke-miterlimit:10;}
	.st64{fill:url(#SVGID_32_);}
	.st65{fill:url(#SVGID_33_);}
	.st66{fill:url(#SVGID_34_);}
	.st67{fill:#43AFCE;}
	.st68{fill:url(#SVGID_35_);}
	.st69{fill:#37638E;}
	.st70{fill:url(#SVGID_36_);}
	.st71{fill:url(#SVGID_37_);}
	.st72{fill:none;stroke:#FFFFFF;stroke-width:2;stroke-miterlimit:10;}
	.st73{fill:#2EAFFF;}
	.st74{fill:none;stroke:#00ADFE;stroke-width:3;stroke-miterlimit:10;}
</style>
<g id="next-arrow-btn_x60_94x40">
	<polygon class="st0" points="81.3,0 0,0 0,39.6 81.3,39.6 93.5,19.8 	"/>
</g>
<g id="create-hex_x60_165x191">
	<polygon class="st1" points="164.8,142.7 82.4,190.3 0,142.7 0,47.5 82.4,0 164.8,47.5 	"/>
</g>
<g id="dropdown-check_x60_12x9">
	<path class="st2" d="M3.175,7.85l-2.8-2.8c-0.5-0.6-0.5-1.5,0-2c0.6-0.6,1.5-0.6,2,0l1.8,1.8l4.4-4.4c0.5-0.6,1.5-0.6,2,0
		c0.5,0.5,0.5,1.5,0,2l-5.4,5.4c-0.3,0.3-0.6,0.4-1,0.4S3.475,8.15,3.175,7.85z"/>
</g>
<g id="whats-next_x60_349x170">
	<line class="st3" x1="174.1" y1="56.5" x2="174.1" y2="168.9"/>
	<polyline class="st3" points="124.9,119.7 174.1,168.9 223.2,119.7 	"/>
	<rect class="st1" width="348.1" height="56.6"/>
</g>
<g id="next-process_x60_453x456">
	<polyline class="st4" points="215.6,35.1 177.6,73.1 146.2,73.1 	"/>
	<polyline class="st4" points="237.4,150.6 275.4,112.6 306.8,112.6 	"/>
	<polyline class="st4" points="215.6,305.1 177.6,343.1 146.2,343.1 	"/>
	<polyline class="st4" points="237.4,420.6 275.4,382.6 306.8,382.6 	"/>
	<circle class="st5" cx="379.9" cy="382.7" r="73.1"/>
	<g>
		<polygon class="st6" points="431.4,378.9 418.1,386.6 404.7,378.9 404.7,363.5 418.1,355.8 431.4,363.5 		"/>
		<polygon class="st1" points="404.7,363.5 418.1,371.2 431.4,363.5 418.1,355.8 		"/>
		<polygon class="st7" points="418.1,371.2 418.1,386.6 404.7,378.9 404.7,363.5 		"/>
	</g>
	<g>
		<polygon class="st6" points="410.9,390.4 381.2,407.5 351.5,390.4 351.5,356 381.2,338.9 410.9,356 		"/>
		<polygon class="st1" points="351.5,356 381.2,373.2 410.9,356 381.2,338.9 		"/>
		<polygon class="st7" points="381.2,373.2 381.2,407.5 351.5,390.4 351.5,356 		"/>
	</g>
	<g>
		<polygon class="st6" points="355.1,400.5 341.8,408.2 328.4,400.5 328.4,385 341.8,377.3 355.1,385 		"/>
		<polygon class="st1" points="328.4,385 341.8,392.7 355.1,385 341.8,377.3 		"/>
		<polygon class="st7" points="341.8,392.7 341.8,408.2 328.4,400.5 328.4,385 		"/>
	</g>
	<g>
		<polygon class="st6" points="374.4,411.4 361.1,419.1 347.7,411.4 347.7,396 361.1,388.3 374.4,396 		"/>
		<polygon class="st1" points="347.7,396 361.1,403.7 374.4,396 361.1,388.3 		"/>
		<polygon class="st7" points="361.1,403.7 361.1,419.1 347.7,411.4 347.7,396 		"/>
	</g>
	<circle class="st5" cx="73.1" cy="343.1" r="73.1"/>
	<polygon class="st6" points="108.1,370.3 73.1,390.5 38.1,370.3 38.1,329.8 73.1,309.6 108.1,329.8 	"/>
	<polygon class="st1" points="38.1,329.8 73.1,350 108.1,329.8 73.1,309.6 	"/>
	<polygon class="st7" points="73.1,350 73.1,390.5 38.1,370.3 38.1,329.8 	"/>
	<g>
		<polygon class="st6" points="45.4,329.8 73.1,345.8 73.1,313.8 		"/>
		<polygon class="st7" points="73.1,313.8 73.1,345.8 100.8,329.8 		"/>
	</g>
	<g>
		<g>
			<g>
				<g>
					<g>
						<g>
							<g>
								<g>
									<defs>
										<polygon id="SVGID_1_" points="45.4,329.8 73.1,345.8 100.8,329.8 100.8,274.6 45.4,274.6 										"/>
									</defs>
									<clipPath id="SVGID_2_">
										<use xlink:href="#SVGID_1_"  style="overflow:visible;"/>
									</clipPath>
									<g class="st8">
										<polygon class="st1" points="93.2,319.3 73.1,330.9 53,319.3 53,296.1 73.1,284.5 93.2,296.1 										"/>
										<polygon class="st1" points="53,296.1 73.1,307.7 93.2,296.1 73.1,284.5 										"/>
										<polygon class="st1" points="73.1,307.7 73.1,330.9 53,319.3 53,296.1 										"/>
									</g>
								</g>
							</g>
						</g>
					</g>
				</g>
			</g>
		</g>
	</g>
	
		<linearGradient id="SVGID_3_" gradientUnits="userSpaceOnUse" x1="91.05" y1="-103.1706" x2="91.05" y2="-53.449" gradientTransform="matrix(1 0 0 -1 0 204)">
		<stop  offset="0" style="stop-color:#FFFFFF"/>
		<stop  offset="1" style="stop-color:#FFFFFF;stop-opacity:0"/>
	</linearGradient>
	<polygon class="st9" points="93.7,228.7 88.4,231.8 88.4,316.9 93.7,313.8 	"/>
	
		<linearGradient id="SVGID_4_" gradientUnits="userSpaceOnUse" x1="66.4" y1="-104.2359" x2="66.4" y2="-54.5144" gradientTransform="matrix(1 0 0 -1 0 204)">
		<stop  offset="0" style="stop-color:#FFFFFF"/>
		<stop  offset="1" style="stop-color:#FFFFFF;stop-opacity:0"/>
	</linearGradient>
	<polygon class="st10" points="69.1,229.8 63.7,232.9 63.7,318 69.1,314.9 	"/>
	
		<linearGradient id="SVGID_5_" gradientUnits="userSpaceOnUse" x1="61.75" y1="-99.9055" x2="61.75" y2="-47.4587" gradientTransform="matrix(1 0 0 -1 0 204)">
		<stop  offset="0" style="stop-color:#FFFFFF"/>
		<stop  offset="1" style="stop-color:#FFFFFF;stop-opacity:0"/>
	</linearGradient>
	<polygon class="st11" points="67.9,221.2 55.6,229.1 55.6,314.2 67.9,306.3 	"/>
	
		<linearGradient id="SVGID_6_" gradientUnits="userSpaceOnUse" x1="55.6" y1="-86.174" x2="55.6" y2="-35.8974" gradientTransform="matrix(1 0 0 -1 0 204)">
		<stop  offset="0" style="stop-color:#FFFFFF"/>
		<stop  offset="1" style="stop-color:#FFFFFF;stop-opacity:0"/>
	</linearGradient>
	<polygon class="st12" points="58.3,235.5 52.9,238.6 52.9,297 58.3,293.9 	"/>
	
		<linearGradient id="SVGID_7_" gradientUnits="userSpaceOnUse" x1="-2249.2749" y1="-104.4121" x2="-2249.2749" y2="-55.4812" gradientTransform="matrix(-1 0 0 -1 -2165.5249 204)">
		<stop  offset="0" style="stop-color:#FFFFFF"/>
		<stop  offset="1" style="stop-color:#FFFFFF;stop-opacity:0"/>
	</linearGradient>
	<polygon class="st13" points="79.1,231.2 88.4,235 88.4,318 79.1,314.2 	"/>
	<circle class="st14" cx="226.5" cy="433" r="18.5"/>
	<circle class="st14" cx="226.5" cy="298.5" r="18.5"/>
	<circle class="st14" cx="226.5" cy="164" r="18.5"/>
	<circle class="st14" cx="226.5" cy="29.6" r="18.5"/>
	<path class="st1" d="M226.1,26.3l-2.2,2.3l-1.6-1.7l4.2-4.2h2.5V36h-2.8L226.1,26.3L226.1,26.3z"/>
	<path class="st1" d="M221,168.2c5.5-4,7.1-5.4,7.1-7c0-1.2-1.1-1.7-2.2-1.7c-1.5,0-2.7,0.6-3.6,1.5l-1.6-1.9
		c1.3-1.5,3.3-2.2,5.1-2.2c2.8,0,5.1,1.6,5.1,4.3c0,2.3-1.9,4.3-5.5,6.8h5.6v2.5h-10V168.2z"/>
	<path class="st1" d="M222.2,301.9c0.9,1,2.4,1.5,3.7,1.5c1.6,0,2.5-0.7,2.5-1.7c0-1.1-0.8-1.6-2.7-1.6c-0.6,0-1.5,0-1.7,0v-2.5
		c0.2,0,1.2,0,1.7,0c1.5,0,2.5-0.5,2.5-1.5c0-1.1-1.1-1.6-2.5-1.6c-1.3,0-2.5,0.5-3.4,1.4l-1.4-1.8c1.1-1.2,2.8-2.1,5.1-2.1
		c3.1,0,5,1.4,5,3.6c0,1.7-1.4,2.8-2.9,3c1.4,0.1,3.1,1.2,3.1,3.2c0,2.3-2.1,3.9-5.3,3.9c-2.5,0-4.3-0.9-5.3-2.1L222.2,301.9z"/>
	<path class="st1" d="M227.1,437.8h-6.4v-2.2l5.3-8.3h3.9v8.1h1.7v2.5h-1.7v2.8h-2.8V437.8L227.1,437.8z M223.5,435.3h3.6v-5.6
		L223.5,435.3z"/>
	<circle class="st5" cx="379.9" cy="112.7" r="73.1"/>
	<g id="hex-platform_1_">
		<g id="_x3E_bg_1_">
			<g>
				<polyline class="st15" points="419.2,127.6 419.2,134.6 413.1,138.1 				"/>
				<line class="st16" x1="410.5" y1="139.6" x2="388.4" y2="152.3"/>
				<polyline class="st15" points="387.1,153 381.1,156.5 375,153 				"/>
				<line class="st17" x1="372.4" y1="151.5" x2="350.4" y2="138.8"/>
				<polyline class="st15" points="349.1,138.1 343.1,134.6 343.1,127.6 				"/>
				<line class="st18" x1="343.1" y1="124.6" x2="343.1" y2="99.1"/>
				<polyline class="st15" points="343.1,97.6 343.1,90.6 349.1,87.1 				"/>
				<line class="st17" x1="351.7" y1="85.6" x2="373.7" y2="72.9"/>
				<polyline class="st15" points="375,72.1 381.1,68.6 387.1,72.1 				"/>
				<line class="st16" x1="389.7" y1="73.6" x2="411.8" y2="86.3"/>
				<polyline class="st15" points="413.1,87.1 419.2,90.6 419.2,97.6 				"/>
				<line class="st18" x1="419.2" y1="100.6" x2="419.2" y2="126.1"/>
			</g>
		</g>
		<g id="logo-horizontal_1_">
			<g>
				<polygon class="st1" points="399.7,132.5 380.9,142.1 361.6,132.3 380.4,122.5 				"/>
				<polygon class="st19" points="391.7,128.4 380.6,134.1 369.3,128.2 380.4,122.5 				"/>
				<polygon class="st6" points="380.9,142.1 399.7,132.5 399.7,135.3 380.9,144.9 				"/>
				<polygon class="st7" points="380.9,142.1 361.6,132.3 361.6,135.1 380.9,144.9 				"/>
			</g>
			<g>
				<polygon class="st6" points="381.1,126.4 396.4,118.6 396.4,120.8 381.1,128.7 				"/>
				<polygon class="st7" points="381.1,126.4 365.7,118.6 365.7,120.8 381.1,128.7 				"/>
				<polygon class="st1" points="396.4,118.6 381.1,126.4 365.7,118.6 381.1,110.7 				"/>
				<polygon class="st19" points="392.4,116.4 381.1,122.3 369.8,116.4 381.1,110.7 				"/>
			</g>
			<g>
				<polygon class="st6" points="381.1,114.1 399.7,104.5 399.7,107.4 381.1,116.9 				"/>
				<polygon class="st7" points="381.1,114.1 362.4,104.5 362.4,107.4 381.1,116.9 				"/>
				<polygon class="st1" points="399.7,104.5 381.1,114.1 362.4,104.5 381.1,95 				"/>
				<polygon class="st19" points="394.8,102 381.1,109.1 367.3,102 381.1,95 				"/>
			</g>
			<g>
				<polygon class="st1" points="399.7,89.7 380.9,99.4 362.1,89.7 380.9,80.1 				"/>
				<polygon class="st6" points="380.9,99.4 399.7,89.7 399.7,92.7 380.9,102.4 				"/>
				<polygon class="st7" points="380.9,99.4 362.1,89.7 362.1,92.7 380.9,102.4 				"/>
			</g>
		</g>
	</g>
	<path class="st20" d="M399.7,102"/>
	<circle class="st5" cx="73.1" cy="73.1" r="73.1"/>
	<polygon class="st6" points="96.5,86.6 73.1,100.1 49.7,86.6 49.7,59.6 73.1,46.1 96.5,59.6 	"/>
	<polygon class="st1" points="49.7,59.6 73.1,73.1 96.5,59.6 73.1,46.1 	"/>
	<polygon class="st7" points="73.1,73.1 73.1,100.1 49.7,86.6 49.7,59.6 	"/>
	<line class="st15" x1="73.1" y1="40.9" x2="73.1" y2="28.6"/>
	<line class="st15" x1="87.1" y1="44" x2="92.3" y2="32.9"/>
	<line class="st15" x1="59.1" y1="44" x2="53.9" y2="32.9"/>
	<line class="st15" x1="73.1" y1="105.3" x2="73.1" y2="117.6"/>
	<line class="st15" x1="87.1" y1="102.2" x2="92.3" y2="113.4"/>
	<line class="st15" x1="59.1" y1="102.2" x2="53.9" y2="113.4"/>
	<line class="st15" x1="105.3" y1="73.1" x2="117.6" y2="73.1"/>
	<line class="st15" x1="102.2" y1="87.1" x2="113.3" y2="92.3"/>
	<line class="st15" x1="102.2" y1="59.1" x2="113.3" y2="53.9"/>
	<line class="st15" x1="40.9" y1="73.1" x2="28.6" y2="73.1"/>
	<line class="st15" x1="44" y1="87.1" x2="32.8" y2="92.3"/>
	<line class="st15" x1="44" y1="59.1" x2="32.8" y2="53.9"/>
</g>
<g id="gray-smiler_x60_37x37">
	<circle class="st14" cx="18.5" cy="18.5" r="18.5"/>
	<path class="st21" d="M6.8,24.5c2.2,4.3,6.6,7.2,11.7,7.2s9.5-2.9,11.7-7.2"/>
	<circle class="st1" cx="30.9" cy="13.1" r="2.2"/>
	<circle class="st1" cx="6.1" cy="13.1" r="2.2"/>
</g>
<g id="no-provider-illo_x60_176x176">
	<polygon class="st1" points="144.5,120.499 87.5,153.399 30.5,120.499 30.5,54.599 87.5,21.699 144.5,54.599 	"/>
	<g>
		<g>
			<polyline class="st22" points="162.3,127.699 162.3,130.699 159.7,132.199 			"/>
			<line class="st23" x1="150.3" y1="137.599" x2="94.8" y2="169.599"/>
			<polyline class="st22" points="90.1,172.299 87.5,173.799 84.9,172.299 			"/>
			<line class="st24" x1="75.5" y1="166.899" x2="20.1" y2="134.899"/>
			<polyline class="st22" points="15.4,132.199 12.8,130.699 12.8,127.699 			"/>
			<line class="st25" x1="12.8" y1="116.799" x2="12.8" y2="52.799"/>
			<polyline class="st22" points="12.8,47.399 12.8,44.399 15.4,42.899 			"/>
			<line class="st25" x1="24.8" y1="37.499" x2="80.2" y2="5.499"/>
			<polyline class="st22" points="84.9,2.799 87.5,1.299 90.1,2.799 			"/>
			<line class="st26" x1="99.5" y1="8.199" x2="155" y2="40.199"/>
			<polyline class="st22" points="159.7,42.899 162.3,44.399 162.3,47.399 			"/>
			<line class="st25" x1="162.3" y1="58.299" x2="162.3" y2="122.299"/>
		</g>
	</g>
	<path class="st27" d="M88,110.399"/>
	<path class="st27" d="M87.5,67.199"/>
	<path class="st27" d="M66.6,88.799"/>
	<path class="st27" d="M109.8,88.799"/>
	<polygon class="st28" points="144.5,54.599 87.1,83.699 87.1,153.399 144.5,120.499 	"/>
	<circle class="st29" cx="162.3" cy="130.699" r="12.7"/>
	<circle class="st30" cx="12.7" cy="130.699" r="12.7"/>
	<polygon class="st1" points="162.3,121.699 164.3,127.899 170.8,127.899 165.5,131.799 167.6,137.999 162.3,134.099 157,137.999 
		159,131.799 153.7,127.899 160.2,127.899 	"/>
</g>
<g id="new-custom_x60_37x43">
	<polygon class="st31" points="36.922,31.973 18.46,42.632 0,31.973 0,10.658 18.46,0 36.922,10.658 	"/>
	<polygon class="st1" points="30.592,28.319 18.46,35.322 6.33,28.319 6.33,14.313 18.46,7.31 30.592,14.313 	"/>
	<polygon class="st31" points="24.865,25.013 18.461,28.711 12.057,25.013 12.057,17.618 18.461,13.921 24.865,17.618 	"/>
</g>
<g id="lil-city_x60_287x164">
	<g>
		<polygon class="st32" points="110.937,109.858 221.874,141.345 110.937,163.271 0,141.345 		"/>
	</g>
	<polygon class="st33" points="110.937,84.786 221.874,106.711 110.937,128.636 0,106.711 	"/>
	<polygon class="st34" points="110.937,152.488 221.874,130.563 221.874,106.711 110.937,128.636 	"/>
	<polygon class="st35" points="110.937,152.488 0,130.563 0,106.711 110.937,128.636 	"/>
	<polygon class="st36" points="56.434,96.699 52.651,95.421 56.434,94.152 61.787,94.152 65.571,95.421 61.787,96.699 	"/>
	
		<linearGradient id="SVGID_8_" gradientUnits="userSpaceOnUse" x1="58.0366" y1="103.366" x2="60.2645" y2="96.5893" gradientTransform="matrix(1 0 0 -1 0 202)">
		<stop  offset="0.0048" style="stop-color:#39A1CB"/>
		<stop  offset="1" style="stop-color:#284969"/>
	</linearGradient>
	<rect x="56.434" y="96.708" class="st37" width="5.352" height="10.382"/>
	<polygon class="st38" points="56.434,96.708 52.651,95.421 52.651,105.813 56.434,107.09 	"/>
	
		<linearGradient id="SVGID_9_" gradientUnits="userSpaceOnUse" x1="62.7568" y1="103.548" x2="64.6698" y2="97.7294" gradientTransform="matrix(1 0 0 -1 0 202)">
		<stop  offset="0" style="stop-color:#3C7FAA"/>
		<stop  offset="1" style="stop-color:#304669"/>
	</linearGradient>
	<polygon class="st39" points="61.787,96.708 65.57,95.421 65.57,105.813 61.787,107.09 	"/>
	<polygon class="st36" points="73.915,38.893 70.131,37.616 73.915,36.346 79.267,36.346 83.051,37.616 79.267,38.893 	"/>
	
		<linearGradient id="SVGID_10_" gradientUnits="userSpaceOnUse" x1="72.5096" y1="153.3108" x2="80.9802" y2="127.546" gradientTransform="matrix(1 0 0 -1 0 202)">
		<stop  offset="0.0048" style="stop-color:#39A1CB"/>
		<stop  offset="1" style="stop-color:#284969"/>
	</linearGradient>
	<rect x="73.915" y="38.903" class="st40" width="5.352" height="44.401"/>
	<polygon class="st38" points="73.915,38.903 70.131,37.616 70.131,82.027 73.915,83.304 	"/>
	
		<linearGradient id="SVGID_11_" gradientUnits="userSpaceOnUse" x1="77.2289" y1="153.4926" x2="85.3845" y2="128.686" gradientTransform="matrix(1 0 0 -1 0 202)">
		<stop  offset="0" style="stop-color:#3C7FAA"/>
		<stop  offset="1" style="stop-color:#304669"/>
	</linearGradient>
	<polygon class="st41" points="79.267,38.903 83.05,37.616 83.05,82.027 79.267,83.304 	"/>
	<polygon class="st36" points="68.57,60.757 64.787,59.48 68.57,58.21 73.923,58.21 77.707,59.48 73.923,60.757 	"/>
	
		<linearGradient id="SVGID_12_" gradientUnits="userSpaceOnUse" x1="67.1647" y1="131.4474" x2="75.6353" y2="105.6826" gradientTransform="matrix(1 0 0 -1 0 202)">
		<stop  offset="0.0048" style="stop-color:#39A1CB"/>
		<stop  offset="1" style="stop-color:#284969"/>
	</linearGradient>
	<rect x="68.57" y="60.766" class="st42" width="5.352" height="44.401"/>
	<polygon class="st38" points="68.57,60.766 64.787,59.48 64.787,103.89 68.57,105.167 	"/>
	
		<linearGradient id="SVGID_13_" gradientUnits="userSpaceOnUse" x1="71.8848" y1="131.6293" x2="80.0404" y2="106.8227" gradientTransform="matrix(1 0 0 -1 0 202)">
		<stop  offset="0" style="stop-color:#3C7FAA"/>
		<stop  offset="1" style="stop-color:#304669"/>
	</linearGradient>
	<polygon class="st43" points="73.923,60.766 77.706,59.48 77.706,103.89 73.923,105.167 	"/>
	<polygon class="st36" points="64.688,85.178 60.905,83.901 64.688,82.631 70.04,82.631 73.824,83.901 70.04,85.178 	"/>
	
		<linearGradient id="SVGID_14_" gradientUnits="userSpaceOnUse" x1="65.1465" y1="111.8968" x2="69.7487" y2="97.8985" gradientTransform="matrix(1 0 0 -1 0 202)">
		<stop  offset="0.0048" style="stop-color:#39A1CB"/>
		<stop  offset="1" style="stop-color:#284969"/>
	</linearGradient>
	<rect x="64.688" y="85.188" class="st44" width="5.352" height="23.32"/>
	<polygon class="st38" points="64.688,85.188 60.905,83.901 60.905,107.231 64.688,108.508 	"/>
	
		<linearGradient id="SVGID_15_" gradientUnits="userSpaceOnUse" x1="69.8663" y1="112.0786" x2="74.1534" y2="99.0386" gradientTransform="matrix(1 0 0 -1 0 202)">
		<stop  offset="0" style="stop-color:#3C7FAA"/>
		<stop  offset="1" style="stop-color:#304669"/>
	</linearGradient>
	<polygon class="st45" points="70.04,85.188 73.824,83.901 73.824,107.231 70.04,108.508 	"/>
	<polygon class="st36" points="81.436,49.49 77.652,48.213 81.436,46.943 86.788,46.943 90.572,48.213 86.788,49.49 	"/>
	
		<linearGradient id="SVGID_16_" gradientUnits="userSpaceOnUse" x1="78.7371" y1="139.3341" x2="89.8924" y2="105.4036" gradientTransform="matrix(1 0 0 -1 0 202)">
		<stop  offset="0.0048" style="stop-color:#39A1CB"/>
		<stop  offset="1" style="stop-color:#284969"/>
	</linearGradient>
	<rect x="81.436" y="49.499" class="st46" width="5.352" height="59.031"/>
	<polygon class="st47" points="81.436,49.499 77.652,48.213 77.652,107.253 81.436,108.53 	"/>
	
		<linearGradient id="SVGID_17_" gradientUnits="userSpaceOnUse" x1="83.4563" y1="139.5157" x2="94.2965" y2="106.5434" gradientTransform="matrix(1 0 0 -1 0 202)">
		<stop  offset="0" style="stop-color:#3C7FAA"/>
		<stop  offset="1" style="stop-color:#304669"/>
	</linearGradient>
	<polygon class="st48" points="86.788,49.499 90.571,48.213 90.571,107.253 86.788,108.53 	"/>
	<polygon class="st36" points="72.354,78.97 68.571,77.692 72.354,76.423 77.707,76.423 81.491,77.692 77.707,78.97 	"/>
	
		<linearGradient id="SVGID_18_" gradientUnits="userSpaceOnUse" x1="72.1488" y1="116.3707" x2="78.1288" y2="98.1816" gradientTransform="matrix(1 0 0 -1 0 202)">
		<stop  offset="0.0048" style="stop-color:#428BBC"/>
		<stop  offset="1" style="stop-color:#38527A"/>
	</linearGradient>
	<rect x="72.354" y="78.979" class="st49" width="5.352" height="30.828"/>
	<polygon class="st47" points="72.354,78.979 68.571,77.692 68.571,108.53 72.354,109.807 	"/>
	
		<linearGradient id="SVGID_19_" gradientUnits="userSpaceOnUse" x1="76.869" y1="116.5526" x2="82.534" y2="99.3218" gradientTransform="matrix(1 0 0 -1 0 202)">
		<stop  offset="0" style="stop-color:#3C7FAA"/>
		<stop  offset="1" style="stop-color:#304669"/>
	</linearGradient>
	<polygon class="st50" points="77.707,78.979 81.49,77.692 81.49,108.53 77.707,109.807 	"/>
	<polygon class="st36" points="99.428,95.537 95.645,94.26 99.428,92.99 104.78,92.99 108.564,94.26 104.78,95.537 	"/>
	
		<linearGradient id="SVGID_20_" gradientUnits="userSpaceOnUse" x1="100.8199" y1="103.9773" x2="103.4851" y2="95.8704" gradientTransform="matrix(1 0 0 -1 0 202)">
		<stop  offset="0.0048" style="stop-color:#39A1CB"/>
		<stop  offset="1" style="stop-color:#284969"/>
	</linearGradient>
	<rect x="99.428" y="95.546" class="st51" width="5.352" height="12.765"/>
	<polygon class="st38" points="99.428,95.546 95.645,94.26 95.645,107.034 99.428,108.311 	"/>
	
		<linearGradient id="SVGID_21_" gradientUnits="userSpaceOnUse" x1="105.5395" y1="104.1591" x2="107.8898" y2="97.0103" gradientTransform="matrix(1 0 0 -1 0 202)">
		<stop  offset="0" style="stop-color:#3C7FAA"/>
		<stop  offset="1" style="stop-color:#304669"/>
	</linearGradient>
	<polygon class="st52" points="104.78,95.546 108.564,94.26 108.564,107.034 104.78,108.311 	"/>
	<polygon class="st36" points="90.571,69.556 86.788,68.279 90.571,67.009 95.924,67.009 99.708,68.279 95.924,69.556 	"/>
	
		<linearGradient id="SVGID_22_" gradientUnits="userSpaceOnUse" x1="89.5334" y1="123.609" x2="97.2408" y2="100.1658" gradientTransform="matrix(1 0 0 -1 0 202)">
		<stop  offset="0" style="stop-color:#4689B4"/>
		<stop  offset="1" style="stop-color:#284969"/>
	</linearGradient>
	<rect x="90.571" y="69.566" class="st53" width="5.352" height="40.241"/>
	<polygon class="st47" points="90.571,69.566 86.788,68.279 86.788,108.53 90.571,109.807 	"/>
	
		<linearGradient id="SVGID_23_" gradientUnits="userSpaceOnUse" x1="94.2536" y1="123.791" x2="101.646" y2="101.3059" gradientTransform="matrix(1 0 0 -1 0 202)">
		<stop  offset="0" style="stop-color:#37638E"/>
		<stop  offset="1" style="stop-color:#284969"/>
	</linearGradient>
	<polygon class="st54" points="95.924,69.566 99.707,68.279 99.707,108.53 95.924,109.807 	"/>
	
		<linearGradient id="SVGID_24_" gradientUnits="userSpaceOnUse" x1="129.9767" y1="110.5526" x2="135.4476" y2="93.9119" gradientTransform="matrix(1 0 0 -1 0 202)">
		<stop  offset="0.0048" style="stop-color:#51D5FB"/>
		<stop  offset="1" style="stop-color:#428BBC"/>
	</linearGradient>
	<path class="st55" d="M137.982,82.793l-0.569,30.001c0,0-12.906-2.091-12.147-2.851C126.025,109.184,137.982,82.793,137.982,82.793
		z"/>
	
		<linearGradient id="SVGID_25_" gradientUnits="userSpaceOnUse" x1="144.4005" y1="113.4032" x2="149.8714" y2="96.7624" gradientTransform="matrix(1 0 0 -1 0 202)">
		<stop  offset="0.0048" style="stop-color:#51D5FB"/>
		<stop  offset="1" style="stop-color:#428BBC"/>
	</linearGradient>
	<path class="st56" d="M152.406,79.943l-0.569,30.001c0,0-12.906-2.091-12.147-2.851S152.406,79.943,152.406,79.943z"/>
	
		<linearGradient id="SVGID_26_" gradientUnits="userSpaceOnUse" x1="158.8255" y1="116.254" x2="164.2964" y2="99.6135" gradientTransform="matrix(1 0 0 -1 0 202)">
		<stop  offset="0.0048" style="stop-color:#51D5FB"/>
		<stop  offset="1" style="stop-color:#428BBC"/>
	</linearGradient>
	<path class="st57" d="M166.831,77.092l-0.569,30.001c0,0-12.906-2.091-12.147-2.851C154.874,103.482,166.831,77.092,166.831,77.092
		z"/>
	
		<linearGradient id="SVGID_27_" gradientUnits="userSpaceOnUse" x1="166.2473" y1="118.3121" x2="172.0653" y2="100.6157" gradientTransform="matrix(1 0 0 -1 0 202)">
		<stop  offset="0" style="stop-color:#3C7FAA"/>
		<stop  offset="1" style="stop-color:#304669"/>
	</linearGradient>
	<polygon class="st58" points="166.831,77.092 180.686,104.242 166.261,107.093 	"/>
	
		<linearGradient id="SVGID_28_" gradientUnits="userSpaceOnUse" x1="151.8229" y1="115.4613" x2="157.6409" y2="97.7649" gradientTransform="matrix(1 0 0 -1 0 202)">
		<stop  offset="0" style="stop-color:#3C7FAA"/>
		<stop  offset="1" style="stop-color:#304669"/>
	</linearGradient>
	<polygon class="st59" points="152.406,79.943 166.261,107.093 151.837,109.943 	"/>
	
		<linearGradient id="SVGID_29_" gradientUnits="userSpaceOnUse" x1="137.3985" y1="112.6106" x2="143.2165" y2="94.9142" gradientTransform="matrix(1 0 0 -1 0 202)">
		<stop  offset="0" style="stop-color:#3C7FAA"/>
		<stop  offset="1" style="stop-color:#304669"/>
	</linearGradient>
	<polygon class="st60" points="137.982,82.793 151.837,109.943 137.412,112.794 	"/>
	<path class="st36" d="M159.072,95.572"/>
	<polygon class="st36" points="81.639,100.482 77.856,99.205 81.639,97.935 86.992,97.935 90.776,99.205 86.992,100.482 	"/>
	
		<linearGradient id="SVGID_30_" gradientUnits="userSpaceOnUse" x1="83.2413" y1="99.5827" x2="85.4693" y2="92.806" gradientTransform="matrix(1 0 0 -1 0 202)">
		<stop  offset="0.0048" style="stop-color:#39A1CB"/>
		<stop  offset="1" style="stop-color:#284969"/>
	</linearGradient>
	<rect x="81.639" y="100.492" class="st61" width="5.352" height="10.382"/>
	<polygon class="st38" points="81.639,100.492 77.856,99.205 77.856,109.596 81.639,110.873 	"/>
	
		<linearGradient id="SVGID_31_" gradientUnits="userSpaceOnUse" x1="87.9618" y1="99.7647" x2="89.8747" y2="93.9462" gradientTransform="matrix(1 0 0 -1 0 202)">
		<stop  offset="0" style="stop-color:#3C7FAA"/>
		<stop  offset="1" style="stop-color:#304669"/>
	</linearGradient>
	<polygon class="st62" points="86.992,100.492 90.775,99.205 90.775,109.596 86.992,110.873 	"/>
	<path class="st63" d="M109.575,53.749"/>
	
		<linearGradient id="SVGID_32_" gradientUnits="userSpaceOnUse" x1="119.6556" y1="119.8325" x2="110.2032" y2="188.5194" gradientTransform="matrix(1 0 0 -1 0 202)">
		<stop  offset="0" style="stop-color:#3D9AB2"/>
		<stop  offset="1" style="stop-color:#246F9D"/>
	</linearGradient>
	<polygon class="st64" points="110.542,15.975 98.583,22.162 96.513,35.983 112.919,64.929 112.911,64.926 128.751,73.887 
		128.751,26.277 	"/>
	
		<linearGradient id="SVGID_33_" gradientUnits="userSpaceOnUse" x1="116.3525" y1="152.7794" x2="111.5813" y2="187.4506" gradientTransform="matrix(1 0 0 -1 0 202)">
		<stop  offset="0" style="stop-color:#3D9AB2"/>
		<stop  offset="1" style="stop-color:#246F9D"/>
	</linearGradient>
	<polygon class="st65" points="98.583,22.162 112.919,46.145 128.751,37.249 110.542,15.975 	"/>
	
		<linearGradient id="SVGID_34_" gradientUnits="userSpaceOnUse" x1="116.7026" y1="205.3258" x2="133.9147" y2="178.475" gradientTransform="matrix(1 0 0 -1 0 202)">
		<stop  offset="0" style="stop-color:#B7ECFB"/>
		<stop  offset="1" style="stop-color:#31CAF6"/>
	</linearGradient>
	<polygon class="st66" points="120.266,0 105.976,13.392 128.751,26.277 149.511,14.404 	"/>
	<polygon class="st47" points="110.542,15.975 128.751,37.249 136.626,21.773 	"/>
	<polygon class="st67" points="120.266,0 110.542,15.975 98.583,22.162 105.976,13.392 	"/>
	
		<linearGradient id="SVGID_35_" gradientUnits="userSpaceOnUse" x1="146.5487" y1="182.4001" x2="140.3523" y2="149.353" gradientTransform="matrix(1 0 0 -1 0 202)">
		<stop  offset="0" style="stop-color:#448EC1"/>
		<stop  offset="1" style="stop-color:#263854"/>
	</linearGradient>
	<polygon class="st68" points="149.511,14.404 149.511,14.404 128.751,37.567 128.751,73.887 159.02,30.04 	"/>
	<polygon class="st69" points="128.751,37.249 112.919,46.145 112.919,64.929 128.751,73.887 136.292,49.228 	"/>
	
		<linearGradient id="SVGID_36_" gradientUnits="userSpaceOnUse" x1="146.3676" y1="150.3186" x2="141.204" y2="187.841" gradientTransform="matrix(1 0 0 -1 0 202)">
		<stop  offset="0" style="stop-color:#3D9AB2"/>
		<stop  offset="1" style="stop-color:#246F9D"/>
	</linearGradient>
	<polygon class="st70" points="136.626,21.773 149.511,14.404 159.02,30.04 136.292,49.228 128.751,37.249 	"/>
	
		<linearGradient id="SVGID_37_" gradientUnits="userSpaceOnUse" x1="125.587" y1="166.6166" x2="110.4404" y2="142.5197" gradientTransform="matrix(1 0 0 -1 0 202)">
		<stop  offset="0" style="stop-color:#37638E"/>
		<stop  offset="1" style="stop-color:#284969"/>
	</linearGradient>
	<polygon class="st71" points="112.919,64.929 128.751,37.249 112.919,46.145 	"/>
	<polyline class="st72" points="285.253,72.44 249.608,122.073 206.46,122.073 	"/>
	<circle class="st1" cx="206.46" cy="122.073" r="2.973"/>
</g>
<g id="legacy-launch_x60_53x38">
	<polygon class="st73" points="16.292,12.317 13.508,12.317 13.508,15.067 16.292,15.067 16.292,12.317 	"/>
	<polygon class="st73" points="22.27,12.317 19.486,12.317 19.486,15.067 22.27,15.067 22.27,12.317 	"/>
	<polygon class="st73" points="28.248,12.317 25.464,12.317 25.464,15.067 28.248,15.067 28.248,12.317 	"/>
	<polygon class="st73" points="34.226,12.317 31.442,12.317 31.442,15.067 34.226,15.067 34.226,12.317 	"/>
	<polygon class="st73" points="22.27,6.344 19.486,6.344 19.486,9.094 22.27,9.094 22.27,6.344 	"/>
	<polygon class="st73" points="28.248,6.344 25.464,6.344 25.464,9.094 28.248,9.094 28.248,6.344 	"/>
	<polygon class="st73" points="34.226,6.344 31.442,6.344 31.442,9.094 34.226,9.094 34.226,6.344 	"/>
	<polygon class="st73" points="34.226,0 31.442,0 31.442,2.75 34.226,2.75 34.226,0 	"/>
	<polygon class="st73" points="40.203,12.317 37.419,12.317 37.419,15.067 40.203,15.067 40.203,12.317 	"/>
	<polygon class="st73" points="47.9,31.525 47.9,22.478 52.424,27.002 	"/>
	<polygon class="st73" points="4.524,31.525 4.524,22.478 0,27.002 	"/>
	<path class="st73" d="M6.578,18.07v18.932h39.268V18.07H6.578z M15.945,29.743c-1.382,0-2.638-1.193-2.638-2.652
		c0-1.458,1.131-2.652,2.638-2.652c1.508,0,2.638,1.193,2.638,2.652C18.584,28.55,17.327,29.743,15.945,29.743z M26.405,33.861
		c-1.382,0-2.638-1.193-2.638-2.652h5.277C29.043,32.668,27.787,33.861,26.405,33.861z M36.864,29.743
		c-1.382,0-2.638-1.193-2.638-2.652c0-1.458,1.131-2.652,2.638-2.652c1.508,0,2.638,1.193,2.638,2.652
		C39.502,28.55,38.246,29.743,36.864,29.743z"/>
	<path class="st1" d="M13.508,34.859"/>
</g>
<g id="docker-launch_x60_49x34">
	<path class="st73" d="M42.491,13.258c-0.251-1.985-1.508-3.598-3.141-4.839l-0.628-0.496l-0.503,0.62
		c-1.005,1.117-1.382,3.102-1.256,4.591c0.126,1.117,0.503,2.233,1.131,3.102c-0.503,0.248-0.845,1.241-5.025,1.241H0
		c0,13.092,10.454,16.006,16.359,16.006c11.307,0,20.604-4.839,25.001-15.262c2.89,0.124,5.779-0.62,7.161-3.35l0.377-0.62
		l-0.628-0.372C46.637,12.885,44.375,12.761,42.491,13.258L42.491,13.258z M10.077,26.952c-1.382,0-2.638-1.193-2.638-2.652
		c0-1.458,1.131-2.652,2.638-2.652s2.638,1.193,2.638,2.652C12.715,25.759,11.459,26.952,10.077,26.952L10.077,26.952z"/>
	<polygon class="st73" points="7.009,12.317 4.225,12.317 4.225,15.067 7.009,15.067 7.009,12.317 	"/>
	<polygon class="st73" points="12.987,12.317 10.203,12.317 10.203,15.067 12.987,15.067 12.987,12.317 	"/>
	<polygon class="st73" points="18.965,12.317 16.181,12.317 16.181,15.067 18.965,15.067 18.965,12.317 	"/>
	<polygon class="st73" points="24.943,12.317 22.159,12.317 22.159,15.067 24.943,15.067 24.943,12.317 	"/>
	<polygon class="st73" points="12.987,6.344 10.203,6.344 10.203,9.094 12.987,9.094 12.987,6.344 	"/>
	<polygon class="st73" points="18.965,6.344 16.181,6.344 16.181,9.094 18.965,9.094 18.965,6.344 	"/>
	<polygon class="st73" points="24.943,6.344 22.159,6.344 22.159,9.094 24.943,9.094 24.943,6.344 	"/>
	<polygon class="st73" points="24.943,0 22.159,0 22.159,2.75 24.943,2.75 24.943,0 	"/>
	<polygon class="st73" points="30.921,12.317 28.137,12.317 28.137,15.067 30.921,15.067 30.921,12.317 	"/>
</g>
<g id="checkmark_x60_16x13">
	<polyline class="st74" points="1.061,6.466 5.28,10.686 14.905,1.061 	"/>
</g>
</svg>
