<?xml version="1.0" encoding="iso-8859-1"?>
<!-- Generator: Adobe Illustrator 21.0.0, SVG Export Plug-In . SVG Version: 6.00 Build 0)  -->
<svg version="1.1" id="Layer_1" xmlns="http://www.w3.org/2000/svg" xmlns:xlink="http://www.w3.org/1999/xlink" x="0px" y="0px"
	 viewBox="0 0 200 200" style="enable-background:new 0 0 200 200;" xml:space="preserve">
<style type="text/css">
	.st0{fill:#95A1A8;}
	.st1{fill:#0072C3;}
	.st2{fill:#FFFFFF;}
	.st3{fill:#19B3FF;}
	.st4{fill:none;stroke:#FFFFFF;stroke-miterlimit:10;}
	.st5{fill:none;stroke:#FFFFFF;stroke-width:1.0653;stroke-miterlimit:10;}
	.st6{fill:none;stroke:#82979F;stroke-miterlimit:10;}
	.st7{fill:#ACB8C4;}
	.st8{fill:#D5DDE6;}
	.st9{fill:#DBE3EB;}
	.st10{clip-path:url(#SVGID_2_);}
	.st11{opacity:0.39;fill:url(#SVGID_3_);enable-background:new    ;}
	.st12{opacity:0.39;fill:url(#SVGID_4_);enable-background:new    ;}
	.st13{opacity:0.39;fill:url(#SVGID_5_);enable-background:new    ;}
	.st14{opacity:0.72;fill:url(#SVGID_6_);enable-background:new    ;}
	.st15{opacity:0.13;fill:url(#SVGID_7_);enable-background:new    ;}
	.st16{fill:#637787;}
	.st17{fill:none;stroke:#E0E8F1;stroke-width:1.5826;stroke-miterlimit:10;}
	.st18{fill:none;stroke:#E0E8F1;stroke-width:1.5826;stroke-miterlimit:10;stroke-dasharray:10.5002,3.0001;}
	.st19{fill:none;stroke:#E0E8F1;stroke-width:1.5826;stroke-miterlimit:10;stroke-dasharray:10.4505,2.9859;}
	.st20{fill:none;stroke:#E0E8F1;stroke-width:1.5826;stroke-miterlimit:10;stroke-dasharray:10.5126,3.0036;}
	.st21{fill:#E2EAF3;}
	.st22{fill:none;stroke:#E0E8F1;stroke-width:1.5826;stroke-miterlimit:10;stroke-dasharray:14,4;}
	.st23{fill:none;stroke:#FFFFFF;stroke-width:2.6779;stroke-miterlimit:10;}
	.st24{fill:none;stroke:#1EB8FF;stroke-width:3;stroke-linecap:square;stroke-linejoin:bevel;}
	.st25{fill:none;stroke:#1EB8FF;stroke-width:3;stroke-linecap:square;stroke-linejoin:bevel;stroke-dasharray:6.5109,10.8515;}
	.st26{fill:none;stroke:#1EB8FF;stroke-width:3;stroke-linecap:square;stroke-linejoin:bevel;stroke-dasharray:6.5102,10.8504;}
	.st27{fill:none;stroke:#1EB8FF;stroke-width:3;stroke-linecap:square;stroke-linejoin:bevel;stroke-dasharray:6.5101,10.8501;}
	.st28{fill:none;stroke:#1EB8FF;stroke-width:3;stroke-linecap:square;stroke-linejoin:bevel;stroke-dasharray:6.5107,10.8512;}
	.st29{fill:none;stroke:#43C4A6;stroke-width:2.3066;stroke-miterlimit:10;}
	.st30{fill:#F3F7FA;}
	.st31{fill:#1EB8FF;}
	.st32{fill:none;}
</style>
<g id="cancel-x-btn_x60_15x15">
	<path class="st0" d="M14.3,13.1c0.2,0.2,0.2,0.4,0.2,0.6s-0.1,0.4-0.2,0.6c-0.2,0.2-0.4,0.2-0.6,0.2s-0.4-0.1-0.6-0.2L7.3,8.5
		l-5.8,5.8c-0.2,0.2-0.4,0.2-0.6,0.2c-0.1,0-0.3,0-0.3-0.1c-0.1,0-0.2-0.1-0.3-0.2C0.1,14.1,0,13.9,0,13.6c0-0.2,0.1-0.4,0.2-0.6
		L6,7.2L0.3,1.5C0.2,1.4,0.2,1.3,0.1,1.2C0.1,1.1,0,1,0,0.9s0.1-0.3,0.1-0.4s0.1-0.2,0.2-0.3C0.5,0,0.7,0,0.9,0s0.4,0.1,0.6,0.2
		L7.3,6l5.8-5.8C13.3,0,13.5,0,13.7,0s0.4,0.1,0.6,0.2c0.1,0.1,0.1,0.2,0.2,0.3c0,0.1,0.1,0.2,0.1,0.3s0,0.2-0.1,0.3
		c0,0.1-0.1,0.2-0.2,0.3L8.5,7.2L14.3,13.1z"/>
</g>
<g id="back-x-btn_x60_9x15">
	<path class="st0" d="M0,7.2l7-7C7.2,0,7.4,0,7.6,0S8,0.1,8.2,0.2c0.1,0.1,0.1,0.2,0.2,0.3c0,0.1,0.1,0.2,0.1,0.3s0,0.2-0.1,0.3
		c0,0.1-0.1,0.2-0.2,0.3L2.4,7.2L8.2,13c0.2,0.2,0.2,0.4,0.2,0.6S8.3,14,8.2,14.2c-0.2,0.2-0.4,0.2-0.6,0.2c-0.2,0-0.4-0.1-0.6-0.2
		L0,7.2z"/>
</g>
<g id="next-arrow-btn_x60_94x40">
	<polygon class="st1" points="81.3,0 0,0 0,39.6 81.3,39.6 93.5,19.8 	"/>
</g>
<g id="create-hex_x60_165x191">
	<polygon class="st2" points="164.8,142.7 82.4,190.3 0,142.7 0,47.5 82.4,0 164.8,47.5 	"/>
</g>
<g id="dropdown-check_x60_12x9">
	<path class="st3" d="M3.175,7.85l-2.8-2.8c-0.5-0.6-0.5-1.5,0-2c0.6-0.6,1.5-0.6,2,0l1.8,1.8l4.4-4.4c0.5-0.6,1.5-0.6,2,0
		c0.5,0.5,0.5,1.5,0,2l-5.4,5.4c-0.3,0.3-0.6,0.4-1,0.4S3.475,8.15,3.175,7.85z"/>
</g>
<g id="whats-next_x60_350x205">
	<line class="st4" x1="174.633" y1="57.033" x2="174.633" y2="203.433"/>
	<polyline class="st4" points="125.433,154.233 174.633,203.433 223.733,154.233 	"/>
	<rect x="0.533" y="0.533" class="st5" width="348.1" height="56.6"/>
</g>
<g id="next-process_x60_453x456">
	<polyline class="st6" points="215.6,35.1 177.6,73.1 146.2,73.1 	"/>
	<polyline class="st6" points="237.4,150.6 275.4,112.6 306.8,112.6 	"/>
	<polyline class="st6" points="215.6,305.1 177.6,343.1 146.2,343.1 	"/>
	<polyline class="st6" points="237.4,420.6 275.4,382.6 306.8,382.6 	"/>
	<circle class="st7" cx="379.9" cy="382.7" r="73.1"/>
	<g>
		<polygon class="st8" points="431.4,378.9 418.1,386.6 404.7,378.9 404.7,363.5 418.1,355.8 431.4,363.5 		"/>
		<polygon class="st2" points="404.7,363.5 418.1,371.2 431.4,363.5 418.1,355.8 		"/>
		<polygon class="st9" points="418.1,371.2 418.1,386.6 404.7,378.9 404.7,363.5 		"/>
	</g>
	<g>
		<polygon class="st8" points="410.9,390.4 381.2,407.5 351.5,390.4 351.5,356 381.2,338.9 410.9,356 		"/>
		<polygon class="st2" points="351.5,356 381.2,373.2 410.9,356 381.2,338.9 		"/>
		<polygon class="st9" points="381.2,373.2 381.2,407.5 351.5,390.4 351.5,356 		"/>
	</g>
	<g>
		<polygon class="st8" points="355.1,400.5 341.8,408.2 328.4,400.5 328.4,385 341.8,377.3 355.1,385 		"/>
		<polygon class="st2" points="328.4,385 341.8,392.7 355.1,385 341.8,377.3 		"/>
		<polygon class="st9" points="341.8,392.7 341.8,408.2 328.4,400.5 328.4,385 		"/>
	</g>
	<g>
		<polygon class="st8" points="374.4,411.4 361.1,419.1 347.7,411.4 347.7,396 361.1,388.3 374.4,396 		"/>
		<polygon class="st2" points="347.7,396 361.1,403.7 374.4,396 361.1,388.3 		"/>
		<polygon class="st9" points="361.1,403.7 361.1,419.1 347.7,411.4 347.7,396 		"/>
	</g>
	<circle class="st7" cx="73.1" cy="343.1" r="73.1"/>
	<polygon class="st8" points="108.1,370.3 73.1,390.5 38.1,370.3 38.1,329.8 73.1,309.6 108.1,329.8 	"/>
	<polygon class="st2" points="38.1,329.8 73.1,350 108.1,329.8 73.1,309.6 	"/>
	<polygon class="st9" points="73.1,350 73.1,390.5 38.1,370.3 38.1,329.8 	"/>
	<g>
		<polygon class="st8" points="45.4,329.8 73.1,345.8 73.1,313.8 		"/>
		<polygon class="st9" points="73.1,313.8 73.1,345.8 100.8,329.8 		"/>
	</g>
	<g>
		<g>
			<g>
				<g>
					<defs>
						<polygon id="SVGID_1_" points="45.4,329.8 73.1,345.8 100.8,329.8 100.8,274.6 45.4,274.6 						"/>
					</defs>
					<clipPath id="SVGID_2_">
						<use xlink:href="#SVGID_1_"  style="overflow:visible;"/>
					</clipPath>
					<g class="st10">
						<polygon class="st2" points="93.2,319.3 73.1,330.9 53,319.3 53,296.1 73.1,284.5 93.2,296.1 						"/>
						<polygon class="st2" points="53,296.1 73.1,307.7 93.2,296.1 73.1,284.5 						"/>
						<polygon class="st2" points="73.1,307.7 73.1,330.9 53,319.3 53,296.1 						"/>
					</g>
				</g>
			</g>
		</g>
	</g>
	
		<linearGradient id="SVGID_3_" gradientUnits="userSpaceOnUse" x1="91.05" y1="-105.1706" x2="91.05" y2="-55.449" gradientTransform="matrix(1 0 0 -1 0 202)">
		<stop  offset="0" style="stop-color:#FFFFFF"/>
		<stop  offset="1" style="stop-color:#FFFFFF;stop-opacity:0"/>
	</linearGradient>
	<polygon class="st11" points="93.7,228.7 88.4,231.8 88.4,316.9 93.7,313.8 	"/>
	
		<linearGradient id="SVGID_4_" gradientUnits="userSpaceOnUse" x1="66.4" y1="-106.2359" x2="66.4" y2="-56.5144" gradientTransform="matrix(1 0 0 -1 0 202)">
		<stop  offset="0" style="stop-color:#FFFFFF"/>
		<stop  offset="1" style="stop-color:#FFFFFF;stop-opacity:0"/>
	</linearGradient>
	<polygon class="st12" points="69.1,229.8 63.7,232.9 63.7,318 69.1,314.9 	"/>
	
		<linearGradient id="SVGID_5_" gradientUnits="userSpaceOnUse" x1="61.75" y1="-101.9055" x2="61.75" y2="-49.4587" gradientTransform="matrix(1 0 0 -1 0 202)">
		<stop  offset="0" style="stop-color:#FFFFFF"/>
		<stop  offset="1" style="stop-color:#FFFFFF;stop-opacity:0"/>
	</linearGradient>
	<polygon class="st13" points="67.9,221.2 55.6,229.1 55.6,314.2 67.9,306.3 	"/>
	
		<linearGradient id="SVGID_6_" gradientUnits="userSpaceOnUse" x1="55.6" y1="-88.174" x2="55.6" y2="-37.8974" gradientTransform="matrix(1 0 0 -1 0 202)">
		<stop  offset="0" style="stop-color:#FFFFFF"/>
		<stop  offset="1" style="stop-color:#FFFFFF;stop-opacity:0"/>
	</linearGradient>
	<polygon class="st14" points="58.3,235.5 52.9,238.6 52.9,297 58.3,293.9 	"/>
	
		<linearGradient id="SVGID_7_" gradientUnits="userSpaceOnUse" x1="-2251.2749" y1="-106.4121" x2="-2251.2749" y2="-57.4812" gradientTransform="matrix(-1 0 0 -1 -2167.5249 202)">
		<stop  offset="0" style="stop-color:#FFFFFF"/>
		<stop  offset="1" style="stop-color:#FFFFFF;stop-opacity:0"/>
	</linearGradient>
	<polygon class="st15" points="79.1,231.2 88.4,235 88.4,318 79.1,314.2 	"/>
	<circle class="st16" cx="226.5" cy="433" r="18.5"/>
	<circle class="st16" cx="226.5" cy="298.5" r="18.5"/>
	<circle class="st16" cx="226.5" cy="164" r="18.5"/>
	<circle class="st16" cx="226.5" cy="29.6" r="18.5"/>
	<path class="st2" d="M226.1,26.3l-2.2,2.3l-1.6-1.7l4.2-4.2h2.5V36h-2.8L226.1,26.3L226.1,26.3z"/>
	<path class="st2" d="M221,168.2c5.5-4,7.1-5.4,7.1-7c0-1.2-1.1-1.7-2.2-1.7c-1.5,0-2.7,0.6-3.6,1.5l-1.6-1.9
		c1.3-1.5,3.3-2.2,5.1-2.2c2.8,0,5.1,1.6,5.1,4.3c0,2.3-1.9,4.3-5.5,6.8h5.6v2.5h-10V168.2z"/>
	<path class="st2" d="M222.2,301.9c0.9,1,2.4,1.5,3.7,1.5c1.6,0,2.5-0.7,2.5-1.7c0-1.1-0.8-1.6-2.7-1.6c-0.6,0-1.5,0-1.7,0v-2.5
		c0.2,0,1.2,0,1.7,0c1.5,0,2.5-0.5,2.5-1.5c0-1.1-1.1-1.6-2.5-1.6c-1.3,0-2.5,0.5-3.4,1.4l-1.4-1.8c1.1-1.2,2.8-2.1,5.1-2.1
		c3.1,0,5,1.4,5,3.6c0,1.7-1.4,2.8-2.9,3c1.4,0.1,3.1,1.2,3.1,3.2c0,2.3-2.1,3.9-5.3,3.9c-2.5,0-4.3-0.9-5.3-2.1L222.2,301.9z"/>
	<path class="st2" d="M227.1,437.8h-6.4v-2.2l5.3-8.3h3.9v8.1h1.7v2.5h-1.7v2.8h-2.8V437.8L227.1,437.8z M223.5,435.3h3.6v-5.6
		L223.5,435.3z"/>
	<circle class="st7" cx="379.9" cy="112.7" r="73.1"/>
	<g id="hex-platform_1_">
		<g id="_x3E_bg_1_">
			<g>
				<polyline class="st17" points="419.2,127.6 419.2,134.6 413.1,138.1 				"/>
				<line class="st18" x1="410.5" y1="139.6" x2="388.4" y2="152.3"/>
				<polyline class="st17" points="387.1,153 381.1,156.5 375,153 				"/>
				<line class="st19" x1="372.4" y1="151.5" x2="350.4" y2="138.8"/>
				<polyline class="st17" points="349.1,138.1 343.1,134.6 343.1,127.6 				"/>
				<line class="st20" x1="343.1" y1="124.6" x2="343.1" y2="99.1"/>
				<polyline class="st17" points="343.1,97.6 343.1,90.6 349.1,87.1 				"/>
				<line class="st19" x1="351.7" y1="85.6" x2="373.7" y2="72.9"/>
				<polyline class="st17" points="375,72.1 381.1,68.6 387.1,72.1 				"/>
				<line class="st18" x1="389.7" y1="73.6" x2="411.8" y2="86.3"/>
				<polyline class="st17" points="413.1,87.1 419.2,90.6 419.2,97.6 				"/>
				<line class="st20" x1="419.2" y1="100.6" x2="419.2" y2="126.1"/>
			</g>
		</g>
		<g id="logo-horizontal_1_">
			<g>
				<polygon class="st2" points="399.7,132.5 380.9,142.1 361.6,132.3 380.4,122.5 				"/>
				<polygon class="st21" points="391.7,128.4 380.6,134.1 369.3,128.2 380.4,122.5 				"/>
				<polygon class="st8" points="380.9,142.1 399.7,132.5 399.7,135.3 380.9,144.9 				"/>
				<polygon class="st9" points="380.9,142.1 361.6,132.3 361.6,135.1 380.9,144.9 				"/>
			</g>
			<g>
				<polygon class="st8" points="381.1,126.4 396.4,118.6 396.4,120.8 381.1,128.7 				"/>
				<polygon class="st9" points="381.1,126.4 365.7,118.6 365.7,120.8 381.1,128.7 				"/>
				<polygon class="st2" points="396.4,118.6 381.1,126.4 365.7,118.6 381.1,110.7 				"/>
				<polygon class="st21" points="392.4,116.4 381.1,122.3 369.8,116.4 381.1,110.7 				"/>
			</g>
			<g>
				<polygon class="st8" points="381.1,114.1 399.7,104.5 399.7,107.4 381.1,116.9 				"/>
				<polygon class="st9" points="381.1,114.1 362.4,104.5 362.4,107.4 381.1,116.9 				"/>
				<polygon class="st2" points="399.7,104.5 381.1,114.1 362.4,104.5 381.1,95 				"/>
				<polygon class="st21" points="394.8,102 381.1,109.1 367.3,102 381.1,95 				"/>
			</g>
			<g>
				<polygon class="st2" points="399.7,89.7 380.9,99.4 362.1,89.7 380.9,80.1 				"/>
				<polygon class="st8" points="380.9,99.4 399.7,89.7 399.7,92.7 380.9,102.4 				"/>
				<polygon class="st9" points="380.9,99.4 362.1,89.7 362.1,92.7 380.9,102.4 				"/>
			</g>
		</g>
	</g>
	<path class="st22" d="M399.7,102"/>
	<circle class="st7" cx="73.1" cy="73.1" r="73.1"/>
	<polygon class="st8" points="96.5,86.6 73.1,100.1 49.7,86.6 49.7,59.6 73.1,46.1 96.5,59.6 	"/>
	<polygon class="st2" points="49.7,59.6 73.1,73.1 96.5,59.6 73.1,46.1 	"/>
	<polygon class="st9" points="73.1,73.1 73.1,100.1 49.7,86.6 49.7,59.6 	"/>
	<line class="st17" x1="73.1" y1="40.9" x2="73.1" y2="28.6"/>
	<line class="st17" x1="87.1" y1="44" x2="92.3" y2="32.9"/>
	<line class="st17" x1="59.1" y1="44" x2="53.9" y2="32.9"/>
	<line class="st17" x1="73.1" y1="105.3" x2="73.1" y2="117.6"/>
	<line class="st17" x1="87.1" y1="102.2" x2="92.3" y2="113.4"/>
	<line class="st17" x1="59.1" y1="102.2" x2="53.9" y2="113.4"/>
	<line class="st17" x1="105.3" y1="73.1" x2="117.6" y2="73.1"/>
	<line class="st17" x1="102.2" y1="87.1" x2="113.3" y2="92.3"/>
	<line class="st17" x1="102.2" y1="59.1" x2="113.3" y2="53.9"/>
	<line class="st17" x1="40.9" y1="73.1" x2="28.6" y2="73.1"/>
	<line class="st17" x1="44" y1="87.1" x2="32.8" y2="92.3"/>
	<line class="st17" x1="44" y1="59.1" x2="32.8" y2="53.9"/>
</g>
<g id="gray-smiler_x60_37x37">
	<circle class="st16" cx="18.5" cy="18.5" r="18.5"/>
	<path class="st23" d="M6.8,24.5c2.2,4.3,6.6,7.2,11.7,7.2s9.5-2.9,11.7-7.2"/>
	<circle class="st2" cx="30.9" cy="13.1" r="2.2"/>
	<circle class="st2" cx="6.1" cy="13.1" r="2.2"/>
</g>
<g id="no-provider-illo_x60_176x176">
	<polygon class="st2" points="144.594,120.506 87.573,153.424 30.56,120.506 30.56,54.673 87.573,21.757 144.594,54.673 	"/>
	<g>
		<g>
			<polyline class="st24" points="162.312,127.734 162.312,130.734 159.714,132.234 			"/>
			<line class="st25" x1="150.316" y1="137.66" x2="94.869" y2="169.67"/>
			<polyline class="st24" points="90.17,172.382 87.572,173.882 84.974,172.382 			"/>
			<line class="st26" x1="75.577" y1="166.957" x2="20.138" y2="134.947"/>
			<polyline class="st24" points="15.439,132.234 12.841,130.734 12.841,127.734 			"/>
			<line class="st27" x1="12.841" y1="116.884" x2="12.841" y2="52.868"/>
			<polyline class="st24" points="12.841,47.443 12.841,44.443 15.44,42.943 			"/>
			<line class="st27" x1="24.836" y1="37.518" x2="80.276" y2="5.511"/>
			<polyline class="st24" points="84.974,2.799 87.572,1.299 90.17,2.799 			"/>
			<line class="st28" x1="99.568" y1="8.224" x2="155.015" y2="40.231"/>
			<polyline class="st24" points="159.714,42.943 162.312,44.443 162.312,47.443 			"/>
			<line class="st27" x1="162.312" y1="58.293" x2="162.312" y2="122.309"/>
		</g>
	</g>
	<path class="st29" d="M88.039,110.436"/>
	<path class="st29" d="M87.577,67.27"/>
	<path class="st29" d="M66.69,88.851"/>
	<path class="st29" d="M109.851,88.851"/>
	<polygon class="st30" points="144.594,54.673 87.197,83.728 87.197,153.424 144.594,120.506 	"/>
	<circle class="st31" cx="162.312" cy="130.734" r="12.724"/>
	<circle class="st32" cx="12.724" cy="130.734" r="12.724"/>
	<polygon class="st2" points="162.312,121.737 164.332,127.954 170.869,127.954 165.58,131.796 167.6,138.013 162.312,134.171 
		157.023,138.013 159.043,131.796 153.755,127.954 160.292,127.954 	"/>
</g>
</svg>
