<?xml version="1.0" encoding="iso-8859-1"?>
<!-- Generator: Adobe Illustrator 20.0.0, SVG Export Plug-In . SVG Version: 6.00 Build 0)  -->
<svg version="1.1" id="Layer_1" xmlns="http://www.w3.org/2000/svg" xmlns:xlink="http://www.w3.org/1999/xlink" x="0px" y="0px"
	 viewBox="0 0 200 200" style="enable-background:new 0 0 200 200;" xml:space="preserve">
<style type="text/css">
	.st0{fill:#95A1A8;}
	.st1{fill:#0072C3;}
	.st2{fill:#FFFFFF;}
	.st3{fill:none;stroke:#FFFFFF;stroke-miterlimit:10;}
	.st4{fill:none;stroke:#FFFFFF;stroke-width:1.0653;stroke-miterlimit:10;}
	.st5{fill:none;stroke:#82979F;stroke-miterlimit:10;}
	.st6{fill:#C0C2C4;}
	.st7{fill:#DFDFDF;}
	.st8{fill:#E6E6E6;}
	.st9{fill:#637787;}
	.st10{fill:none;stroke:#EDEDED;stroke-width:1.5826;stroke-miterlimit:10;}
	.st11{fill:none;stroke:#EDEDED;stroke-width:1.5826;stroke-miterlimit:10;stroke-dasharray:10.5002,3.0001;}
	.st12{fill:none;stroke:#EDEDED;stroke-width:1.5826;stroke-miterlimit:10;stroke-dasharray:10.4505,2.9859;}
	.st13{fill:none;stroke:#EDEDED;stroke-width:1.5826;stroke-miterlimit:10;stroke-dasharray:10.5126,3.0036;}
	.st14{fill:#F0F0F0;}
	.st15{fill:none;stroke:#EDEDED;stroke-width:1.5826;stroke-miterlimit:10;stroke-dasharray:14,4;}
	.st16{clip-path:url(#SVGID_2_);fill:#FFFFFF;}
	.st17{clip-path:url(#SVGID_4_);fill:#FFFFFF;}
	.st18{clip-path:url(#SVGID_6_);fill:#FFFFFF;}
	.st19{opacity:0.39;fill:url(#SVGID_7_);enable-background:new    ;}
	.st20{opacity:0.39;fill:url(#SVGID_8_);enable-background:new    ;}
	.st21{opacity:0.39;fill:url(#SVGID_9_);enable-background:new    ;}
	.st22{opacity:0.72;fill:url(#SVGID_10_);enable-background:new    ;}
	.st23{opacity:0.13;fill:url(#SVGID_11_);enable-background:new    ;}
	.st24{fill:none;stroke:#FFFFFF;stroke-width:2.6779;stroke-miterlimit:10;}
</style>
<g id="cancel-x-btn_x60_15x15">
	<path class="st0" d="M14.3,13.1c0.2,0.2,0.2,0.4,0.2,0.6s-0.1,0.4-0.2,0.6c-0.2,0.2-0.4,0.2-0.6,0.2s-0.4-0.1-0.6-0.2L7.3,8.5
		l-5.8,5.8c-0.2,0.2-0.4,0.2-0.6,0.2c-0.1,0-0.3,0-0.3-0.1c-0.1,0-0.2-0.1-0.3-0.2C0.1,14.1,0,13.9,0,13.6c0-0.2,0.1-0.4,0.2-0.6
		L6,7.2L0.3,1.5C0.2,1.4,0.2,1.3,0.1,1.2C0.1,1.1,0,1,0,0.9s0.1-0.3,0.1-0.4s0.1-0.2,0.2-0.3C0.5,0,0.7,0,0.9,0s0.4,0.1,0.6,0.2
		L7.3,6l5.8-5.8C13.3,0,13.5,0,13.7,0s0.4,0.1,0.6,0.2c0.1,0.1,0.1,0.2,0.2,0.3c0,0.1,0.1,0.2,0.1,0.3s0,0.2-0.1,0.3
		c0,0.1-0.1,0.2-0.2,0.3L8.5,7.2L14.3,13.1z"/>
</g>
<g id="back-x-btn_x60_9x15">
	<path class="st0" d="M0,7.2l7-7C7.2,0,7.4,0,7.6,0S8,0.1,8.2,0.2c0.1,0.1,0.1,0.2,0.2,0.3c0,0.1,0.1,0.2,0.1,0.3s0,0.2-0.1,0.3
		c0,0.1-0.1,0.2-0.2,0.3L2.4,7.2L8.2,13c0.2,0.2,0.2,0.4,0.2,0.6S8.3,14,8.2,14.2c-0.2,0.2-0.4,0.2-0.6,0.2c-0.2,0-0.4-0.1-0.6-0.2
		L0,7.2z"/>
</g>
<g id="next-arrow-btn_x60_94x40">
	<polygon class="st1" points="81.3,0 0,0 0,39.6 81.3,39.6 93.5,19.8 	"/>
</g>
<g id="create-hex_x60_165x191">
	<polygon class="st2" points="164.8,142.7 82.4,190.3 0,142.7 0,47.5 82.4,0 164.8,47.5 	"/>
</g>
<g id="dropdown-check_x60_12x9">
	<path class="st1" d="M3.175,7.85l-2.8-2.8c-0.5-0.6-0.5-1.5,0-2c0.6-0.6,1.5-0.6,2,0l1.8,1.8l4.4-4.4c0.5-0.6,1.5-0.6,2,0
		c0.5,0.5,0.5,1.5,0,2l-5.4,5.4c-0.3,0.3-0.6,0.4-1,0.4S3.475,8.15,3.175,7.85z"/>
</g>
<g id="whats-next_x60_350x205">
	<line class="st3" x1="174.59" y1="57.109" x2="174.59" y2="203.475"/>
	<polyline class="st3" points="125.425,154.31 174.59,203.475 223.755,154.31 	"/>
	<rect x="0.533" y="0.533" class="st4" width="348.114" height="56.576"/>
</g>
<g id="next-process_x60_453x456">
	<polyline class="st5" points="215.556,35.073 177.556,73.073 146.144,73.073 	"/>
	<polyline class="st5" points="237.344,150.54 275.344,112.54 306.757,112.54 	"/>
	<polyline class="st5" points="215.556,305.073 177.556,343.073 146.144,343.073 	"/>
	<polyline class="st5" points="237.344,420.54 275.344,382.54 306.757,382.54 	"/>
	<circle class="st6" cx="379.829" cy="382.619" r="73.072"/>
	<polygon class="st7" points="431.39,378.833 418.037,386.543 404.683,378.833 404.683,363.413 418.037,355.704 431.39,363.413 	"/>
	<polygon class="st2" points="404.683,363.413 418.037,371.123 431.39,363.413 418.037,355.704 	"/>
	<polygon class="st8" points="418.037,371.123 418.037,386.543 404.683,378.833 404.683,363.413 	"/>
	<polygon class="st7" points="410.918,390.301 381.187,407.467 351.455,390.301 351.455,355.971 381.187,338.805 410.918,355.971 	
		"/>
	<polygon class="st2" points="351.455,355.971 381.187,373.136 410.918,355.971 381.187,338.805 	"/>
	<polygon class="st8" points="381.187,373.136 381.187,407.467 351.455,390.301 351.455,355.971 	"/>
	<circle class="st6" cx="73.072" cy="343.072" r="73.072"/>
	<circle class="st9" cx="226.45" cy="432.901" r="18.5"/>
	<circle class="st9" cx="226.45" cy="298.447" r="18.5"/>
	<circle class="st9" cx="226.45" cy="163.994" r="18.5"/>
	<circle class="st9" cx="226.45" cy="29.54" r="18.5"/>
	<path class="st2" d="M226.081,26.22l-2.221,2.261l-1.62-1.701l4.2-4.221h2.48v13.343h-2.84L226.081,26.22L226.081,26.22z"/>
	<path class="st2" d="M220.965,168.165c5.461-4.021,7.061-5.4,7.061-7.041c0-1.16-1.06-1.74-2.18-1.74
		c-1.501,0-2.661,0.6-3.562,1.54l-1.62-1.88c1.301-1.501,3.281-2.182,5.142-2.182c2.841,0,5.101,1.602,5.101,4.262
		c0,2.28-1.88,4.261-5.461,6.781h5.562v2.5h-10.043V168.165z"/>
	<path class="st2" d="M222.14,301.881c0.921,0.96,2.381,1.521,3.682,1.521c1.62,0,2.52-0.7,2.52-1.721c0-1.08-0.819-1.58-2.68-1.58
		c-0.561,0-1.461,0-1.66,0.021v-2.481c0.24,0.021,1.16,0.021,1.66,0.021c1.48,0,2.461-0.48,2.461-1.48
		c0-1.061-1.081-1.601-2.48-1.601c-1.281,0-2.461,0.5-3.401,1.4l-1.4-1.761c1.08-1.22,2.761-2.12,5.101-2.12
		c3.121,0,5.041,1.4,5.041,3.621c0,1.681-1.439,2.78-2.92,3.04c1.36,0.141,3.121,1.201,3.121,3.201c0,2.301-2.061,3.921-5.262,3.921
		c-2.461,0-4.281-0.94-5.262-2.141L222.14,301.881z"/>
	<path class="st2" d="M227.041,437.752h-6.381v-2.24l5.301-8.342h3.921v8.081h1.721v2.501h-1.721v2.761h-2.841L227.041,437.752
		L227.041,437.752z M223.441,435.251h3.601v-5.561L223.441,435.251z"/>
	<circle class="st6" cx="379.829" cy="112.619" r="73.072"/>
	<circle class="st6" cx="73.072" cy="73.072" r="73.072"/>
	<polygon class="st7" points="355.107,400.391 341.754,408.101 328.4,400.391 328.4,384.971 341.754,377.262 355.107,384.971 	"/>
	<polygon class="st2" points="328.4,384.971 341.754,392.681 355.107,384.971 341.754,377.262 	"/>
	<polygon class="st8" points="341.754,392.681 341.754,408.101 328.4,400.391 328.4,384.971 	"/>
	<polygon class="st7" points="96.496,86.596 73.072,100.12 49.648,86.596 49.648,59.548 73.072,46.024 96.496,59.548 	"/>
	<polygon class="st2" points="49.648,59.548 73.072,73.072 96.496,59.548 73.072,46.024 	"/>
	<polygon class="st8" points="73.072,73.072 73.072,100.12 49.648,86.596 49.648,59.548 	"/>
	<polygon class="st7" points="108.114,370.17 73.072,390.401 38.03,370.17 38.03,329.707 73.072,309.476 108.114,329.707 	"/>
	<polygon class="st2" points="38.03,329.707 73.072,349.938 108.114,329.707 73.072,309.476 	"/>
	<polygon class="st8" points="73.072,349.938 73.072,390.401 38.03,370.17 38.03,329.707 	"/>
	<polygon class="st7" points="374.411,411.322 361.057,419.031 347.703,411.322 347.703,395.902 361.057,388.192 374.411,395.902 	
		"/>
	<polygon class="st2" points="347.703,395.902 361.057,403.612 374.411,395.902 361.057,388.192 	"/>
	<polygon class="st8" points="361.057,403.612 361.057,419.031 347.703,411.322 347.703,395.902 	"/>
	<line class="st10" x1="73.072" y1="40.875" x2="73.072" y2="28.548"/>
	<line class="st10" x1="87.069" y1="43.987" x2="92.292" y2="32.822"/>
	<line class="st10" x1="59.075" y1="43.987" x2="53.852" y2="32.822"/>
	<line class="st10" x1="73.072" y1="105.269" x2="73.072" y2="117.596"/>
	<line class="st10" x1="87.069" y1="102.157" x2="92.292" y2="113.322"/>
	<line class="st10" x1="59.075" y1="102.157" x2="53.852" y2="113.322"/>
	<line class="st10" x1="105.269" y1="73.072" x2="117.596" y2="73.072"/>
	<line class="st10" x1="102.157" y1="87.069" x2="113.322" y2="92.292"/>
	<line class="st10" x1="102.157" y1="59.075" x2="113.322" y2="53.852"/>
	<line class="st10" x1="40.875" y1="73.072" x2="28.548" y2="73.072"/>
	<line class="st10" x1="43.987" y1="87.069" x2="32.822" y2="92.292"/>
	<line class="st10" x1="43.987" y1="59.075" x2="32.822" y2="53.852"/>
	<g>
		<g>
			<polyline class="st10" points="419.145,127.558 419.145,134.558 413.077,138.048 			"/>
			<line class="st11" x1="410.477" y1="139.543" x2="388.371" y2="152.256"/>
			<polyline class="st10" points="387.071,153.004 381.003,156.494 374.941,152.993 			"/>
			<line class="st12" x1="372.356" y1="151.499" x2="350.378" y2="138.805"/>
			<polyline class="st10" points="349.086,138.059 343.024,134.558 343.024,127.558 			"/>
			<line class="st13" x1="343.024" y1="124.554" x2="343.024" y2="99.024"/>
			<polyline class="st10" points="343.024,97.522 343.024,90.522 349.086,87.021 			"/>
			<line class="st12" x1="351.671" y1="85.527" x2="373.648" y2="72.834"/>
			<polyline class="st10" points="374.941,72.087 381.003,68.586 387.071,72.076 			"/>
			<line class="st11" x1="389.671" y1="73.571" x2="411.777" y2="86.284"/>
			<polyline class="st10" points="413.077,87.032 419.145,90.522 419.145,97.522 			"/>
			<line class="st13" x1="419.145" y1="100.525" x2="419.145" y2="126.056"/>
		</g>
	</g>
	<polygon class="st2" points="399.665,132.43 380.839,142.088 361.522,132.266 380.348,122.444 	"/>
	<polygon class="st14" points="391.643,128.337 380.512,134.067 369.216,128.173 380.348,122.444 	"/>
	<polygon class="st7" points="380.839,142.088 399.665,132.43 399.665,135.213 380.839,144.871 	"/>
	<polygon class="st8" points="380.839,142.088 361.522,132.266 361.522,135.049 380.839,144.871 	"/>
	<polygon class="st7" points="381.003,126.373 396.391,118.515 396.391,120.807 381.003,128.664 	"/>
	<polygon class="st8" points="381.003,126.373 365.615,118.515 365.615,120.807 381.003,128.664 	"/>
	<polygon class="st2" points="396.391,118.515 381.003,126.373 365.615,118.515 381.003,110.657 	"/>
	<polygon class="st14" points="392.298,116.387 381.003,122.28 369.707,116.387 381.003,110.657 	"/>
	<polygon class="st7" points="381.003,114.095 399.665,104.437 399.665,107.383 381.003,116.878 	"/>
	<polygon class="st8" points="381.003,114.095 362.341,104.437 362.341,107.383 381.003,116.878 	"/>
	<polygon class="st2" points="399.665,104.437 381.003,114.095 362.341,104.437 381.003,94.942 	"/>
	<polygon class="st14" points="394.754,101.981 381.003,109.02 367.252,101.981 381.003,94.942 	"/>
	<polygon class="st2" points="399.665,89.703 380.839,99.362 362.013,89.703 380.839,80.045 	"/>
	<polygon class="st7" points="380.839,99.362 399.665,89.703 399.665,92.65 380.839,102.308 	"/>
	<polygon class="st8" points="380.839,99.362 362.013,89.703 362.013,92.65 380.839,102.308 	"/>
	<path class="st15" d="M399.665,101.981"/>
	<polygon class="st7" points="45.351,329.707 73.072,345.712 73.072,313.702 	"/>
	<polygon class="st8" points="73.072,313.702 73.072,345.712 100.793,329.707 	"/>
	<g>
		<g>
			<defs>
				<polygon id="SVGID_1_" points="45.351,329.707 73.072,345.712 100.793,329.707 100.793,274.518 45.351,274.518 				"/>
			</defs>
			<clipPath id="SVGID_2_">
				<use xlink:href="#SVGID_1_"  style="overflow:visible;"/>
			</clipPath>
			<polygon class="st16" points="93.199,319.222 73.072,330.843 52.945,319.222 52.945,295.982 73.072,284.361 93.199,295.982 			
				"/>
		</g>
		<g>
			<defs>
				<polygon id="SVGID_3_" points="45.351,329.707 73.072,345.712 100.793,329.707 100.793,274.518 45.351,274.518 				"/>
			</defs>
			<clipPath id="SVGID_4_">
				<use xlink:href="#SVGID_3_"  style="overflow:visible;"/>
			</clipPath>
			<polygon class="st17" points="52.945,295.982 73.072,307.602 93.199,295.982 73.072,284.361 			"/>
		</g>
		<g>
			<defs>
				<polygon id="SVGID_5_" points="45.351,329.707 73.072,345.712 100.793,329.707 100.793,274.518 45.351,274.518 				"/>
			</defs>
			<clipPath id="SVGID_6_">
				<use xlink:href="#SVGID_5_"  style="overflow:visible;"/>
			</clipPath>
			<polygon class="st18" points="73.072,307.602 73.072,330.843 52.945,319.222 52.945,295.982 			"/>
		</g>
	</g>
	
		<linearGradient id="SVGID_7_" gradientUnits="userSpaceOnUse" x1="91.0335" y1="-105.0715" x2="91.0335" y2="-55.3499" gradientTransform="matrix(1 0 0 -1 0 202)">
		<stop  offset="0" style="stop-color:#FFFFFF"/>
		<stop  offset="1" style="stop-color:#FFFFFF;stop-opacity:0"/>
	</linearGradient>
	<polygon class="st19" points="93.709,228.641 88.358,231.717 88.358,316.821 93.709,313.744 	"/>
	
		<linearGradient id="SVGID_8_" gradientUnits="userSpaceOnUse" x1="66.373" y1="-106.1369" x2="66.373" y2="-56.4153" gradientTransform="matrix(1 0 0 -1 0 202)">
		<stop  offset="0" style="stop-color:#FFFFFF"/>
		<stop  offset="1" style="stop-color:#FFFFFF;stop-opacity:0"/>
	</linearGradient>
	<polygon class="st20" points="69.049,229.706 63.697,232.783 63.697,317.886 69.049,314.81 	"/>
	
		<linearGradient id="SVGID_9_" gradientUnits="userSpaceOnUse" x1="61.697" y1="-101.8065" x2="61.697" y2="-49.3596" gradientTransform="matrix(1 0 0 -1 0 202)">
		<stop  offset="0" style="stop-color:#FFFFFF"/>
		<stop  offset="1" style="stop-color:#FFFFFF;stop-opacity:0"/>
	</linearGradient>
	<polygon class="st21" points="67.871,221.077 55.523,228.987 55.523,314.09 67.871,306.181 	"/>
	
		<linearGradient id="SVGID_10_" gradientUnits="userSpaceOnUse" x1="55.551" y1="-88.0749" x2="55.551" y2="-37.7984" gradientTransform="matrix(1 0 0 -1 0 202)">
		<stop  offset="0" style="stop-color:#FFFFFF"/>
		<stop  offset="1" style="stop-color:#FFFFFF;stop-opacity:0"/>
	</linearGradient>
	<polygon class="st22" points="58.227,235.411 52.875,238.487 52.875,296.87 58.227,293.794 	"/>
	
		<linearGradient id="SVGID_11_" gradientUnits="userSpaceOnUse" x1="-531.2548" y1="-106.313" x2="-531.2548" y2="-57.3821" gradientTransform="matrix(-1 0 0 -1 -447.5248 202)">
		<stop  offset="0" style="stop-color:#FFFFFF"/>
		<stop  offset="1" style="stop-color:#FFFFFF;stop-opacity:0"/>
	</linearGradient>
	<polygon class="st23" points="79.102,231.13 88.358,234.926 88.358,317.907 79.102,314.111 	"/>
</g>
<g id="gray-smiler_x60_37x37">
	<circle class="st6" cx="18.45" cy="18.45" r="18.45"/>
	<path class="st24" d="M6.755,24.409c2.176,4.256,6.589,7.176,11.696,7.176s9.521-2.92,11.693-7.176"/>
	<circle class="st2" cx="30.853" cy="13.028" r="2.23"/>
	<circle class="st2" cx="5.984" cy="13.028" r="2.23"/>
</g>
</svg>
