<?xml version="1.0" encoding="iso-8859-1"?>
<!-- Generator: Adobe Illustrator 19.2.1, SVG Export Plug-In . SVG Version: 6.00 Build 0)  -->
<svg version="1.1" id="svgs" xmlns="http://www.w3.org/2000/svg" xmlns:xlink="http://www.w3.org/1999/xlink" x="0px" y="0px"
	 viewBox="0 0 200 200" style="enable-background:new 0 0 200 200;" xml:space="preserve">
<style type="text/css">
	.st0{fill:#95A1A8;}
	.st1{fill:#0072C3;}
	.st2{fill:#FFFFFF;}
	.st3{fill:none;stroke:#029ADB;stroke-width:2.5;stroke-miterlimit:10;}
	.st4{fill:#029ADB;}
	.st5{fill:#F79900;}
	.st6{clip-path:url(#SVGID_2_);fill:none;stroke:#F79900;stroke-width:2.1094;stroke-miterlimit:10;}
	.st7{clip-path:url(#SVGID_4_);fill:none;stroke:#F79900;stroke-width:2.1094;stroke-miterlimit:10;}
	.st8{clip-path:url(#SVGID_6_);fill:none;stroke:#F79900;stroke-width:2.1094;stroke-miterlimit:10;}
	.st9{clip-path:url(#SVGID_8_);fill:none;stroke:#F79900;stroke-width:2.1094;stroke-miterlimit:10;}
	.st10{clip-path:url(#SVGID_10_);fill:none;stroke:#F79900;stroke-width:2.1094;stroke-miterlimit:10;}
	.st11{clip-path:url(#SVGID_12_);fill:none;stroke:#F79900;stroke-width:2.1094;stroke-miterlimit:10;}
	.st12{clip-path:url(#SVGID_14_);fill:none;stroke:#F79900;stroke-width:2.1094;stroke-miterlimit:10;}
	.st13{clip-path:url(#SVGID_16_);fill:none;stroke:#F79900;stroke-width:2.1094;stroke-miterlimit:10;}
	.st14{clip-path:url(#SVGID_18_);fill:none;stroke:#F79900;stroke-width:2.1094;stroke-miterlimit:10;}
	.st15{clip-path:url(#SVGID_20_);fill:none;stroke:#F79900;stroke-width:2.1094;stroke-miterlimit:10;}
	.st16{clip-path:url(#SVGID_22_);fill:none;stroke:#F79900;stroke-width:2.1094;stroke-miterlimit:10;}
	.st17{clip-path:url(#SVGID_24_);fill:none;stroke:#F79900;stroke-width:2.1094;stroke-miterlimit:10;}
	.st18{clip-path:url(#SVGID_26_);fill:none;stroke:#F79900;stroke-width:2.1094;stroke-miterlimit:10;}
	.st19{clip-path:url(#SVGID_28_);fill:none;stroke:#F79900;stroke-width:2.1094;stroke-miterlimit:10;}
	.st20{clip-path:url(#SVGID_30_);fill:none;stroke:#F79900;stroke-width:2.1094;stroke-miterlimit:10;}
	.st21{clip-path:url(#SVGID_32_);fill:none;stroke:#F79900;stroke-width:2.1094;stroke-miterlimit:10;}
	.st22{clip-path:url(#SVGID_34_);fill:none;stroke:#F79900;stroke-width:2.1094;stroke-miterlimit:10;}
	.st23{clip-path:url(#SVGID_36_);fill:none;stroke:#F79900;stroke-width:2.1094;stroke-miterlimit:10;}
	.st24{clip-path:url(#SVGID_38_);fill:none;stroke:#F79900;stroke-width:2.1094;stroke-miterlimit:10;}
	.st25{clip-path:url(#SVGID_40_);fill:none;stroke:#F79900;stroke-width:2.1094;stroke-miterlimit:10;}
	.st26{clip-path:url(#SVGID_42_);fill:none;stroke:#F79900;stroke-width:2.1094;stroke-miterlimit:10;}
	.st27{clip-path:url(#SVGID_44_);fill:none;stroke:#F79900;stroke-width:2.1094;stroke-miterlimit:10;}
	.st28{clip-path:url(#SVGID_46_);fill:none;stroke:#F79900;stroke-width:2.1094;stroke-miterlimit:10;}
	.st29{clip-path:url(#SVGID_48_);fill:none;stroke:#F79900;stroke-width:2.1094;stroke-miterlimit:10;}
	.st30{clip-path:url(#SVGID_50_);fill:none;stroke:#F79900;stroke-width:2.1094;stroke-miterlimit:10;}
	.st31{clip-path:url(#SVGID_52_);fill:none;stroke:#F79900;stroke-width:2.1094;stroke-miterlimit:10;}
	.st32{clip-path:url(#SVGID_54_);fill:none;stroke:#F79900;stroke-width:2.1094;stroke-miterlimit:10;}
	.st33{clip-path:url(#SVGID_56_);fill:none;stroke:#F79900;stroke-width:2.1094;stroke-miterlimit:10;}
	.st34{clip-path:url(#SVGID_58_);fill:none;stroke:#F79900;stroke-width:2.1094;stroke-miterlimit:10;}
	.st35{clip-path:url(#SVGID_60_);fill:none;stroke:#F79900;stroke-width:2.1094;stroke-miterlimit:10;}
	.st36{clip-path:url(#SVGID_62_);fill:none;stroke:#F79900;stroke-width:2.1094;stroke-miterlimit:10;}
	.st37{clip-path:url(#SVGID_64_);fill:none;stroke:#F79900;stroke-width:2.1094;stroke-miterlimit:10;}
	.st38{clip-path:url(#SVGID_66_);fill:none;stroke:#F79900;stroke-width:2.1094;stroke-miterlimit:10;}
	.st39{clip-path:url(#SVGID_68_);fill:none;stroke:#F79900;stroke-width:2.1094;stroke-miterlimit:10;}
	.st40{clip-path:url(#SVGID_70_);fill:none;stroke:#F79900;stroke-width:2.1094;stroke-miterlimit:10;}
	.st41{clip-path:url(#SVGID_72_);fill:none;stroke:#F79900;stroke-width:2.1094;stroke-miterlimit:10;}
	.st42{clip-path:url(#SVGID_74_);fill:none;stroke:#F79900;stroke-width:2.1094;stroke-miterlimit:10;}
	.st43{clip-path:url(#SVGID_76_);fill:none;stroke:#F79900;stroke-width:2.1094;stroke-miterlimit:10;}
	.st44{clip-path:url(#SVGID_78_);fill:none;stroke:#F79900;stroke-width:2.1094;stroke-miterlimit:10;}
	.st45{clip-path:url(#SVGID_80_);fill:none;stroke:#F79900;stroke-width:2.1094;stroke-miterlimit:10;}
	.st46{clip-path:url(#SVGID_82_);fill:none;stroke:#F79900;stroke-width:2.1094;stroke-miterlimit:10;}
	.st47{clip-path:url(#SVGID_84_);fill:none;stroke:#F79900;stroke-width:2.1094;stroke-miterlimit:10;}
	.st48{clip-path:url(#SVGID_86_);fill:none;stroke:#F79900;stroke-width:2.1094;stroke-miterlimit:10;}
	.st49{clip-path:url(#SVGID_88_);fill:none;stroke:#F79900;stroke-width:2.1094;stroke-miterlimit:10;}
	.st50{clip-path:url(#SVGID_90_);fill:none;stroke:#F79900;stroke-width:2.1094;stroke-miterlimit:10;}
	.st51{clip-path:url(#SVGID_92_);fill:none;stroke:#F79900;stroke-width:2.1094;stroke-miterlimit:10;}
	.st52{clip-path:url(#SVGID_94_);fill:none;stroke:#F79900;stroke-width:2.1094;stroke-miterlimit:10;}
	.st53{clip-path:url(#SVGID_96_);fill:none;stroke:#F79900;stroke-width:2.1094;stroke-miterlimit:10;}
	.st54{clip-path:url(#SVGID_98_);fill:none;stroke:#F79900;stroke-width:2.1094;stroke-miterlimit:10;}
	.st55{clip-path:url(#SVGID_100_);fill:none;stroke:#F79900;stroke-width:2.1094;stroke-miterlimit:10;}
	.st56{fill:#CECDCA;}
	.st57{fill:#F3B41A;}
	.st58{fill:#DC462F;}
	.st59{fill:#517DBE;}
	.st60{fill:#4F71A8;}
	.st61{fill:#C2432F;}
	.st62{fill:#D09C2A;}
	.st63{fill:#4472B7;}
	.st64{fill:#FFFFFF;stroke:#4472B7;stroke-width:0.123;stroke-miterlimit:10;}
	.st65{fill:none;stroke:#FFFFFF;stroke-width:2.5;stroke-miterlimit:10;}
	.st66{fill:none;stroke:#FFFFFF;stroke-width:3;stroke-miterlimit:10;}
	.st67{fill:none;stroke:#FFFFFF;stroke-miterlimit:10;}
	.st68{fill:none;stroke:#FFFFFF;stroke-width:1.0653;stroke-miterlimit:10;}
	.st69{fill:none;stroke:#82979F;stroke-miterlimit:10;}
	.st70{fill:#C0C2C4;}
	.st71{fill:#DFDFDF;}
	.st72{fill:#E6E6E6;}
	.st73{fill:#637787;}
	.st74{fill:none;stroke:#EDEDED;stroke-width:1.5826;stroke-miterlimit:10;}
	.st75{fill:none;stroke:#EDEDED;stroke-width:1.5826;stroke-miterlimit:10;stroke-dasharray:10.5002,3.0001;}
	.st76{fill:none;stroke:#EDEDED;stroke-width:1.5826;stroke-miterlimit:10;stroke-dasharray:10.4505,2.9859;}
	.st77{fill:none;stroke:#EDEDED;stroke-width:1.5826;stroke-miterlimit:10;stroke-dasharray:10.5126,3.0036;}
	.st78{fill:#F0F0F0;}
	.st79{fill:none;stroke:#EDEDED;stroke-width:1.5826;stroke-miterlimit:10;stroke-dasharray:14,4;}
	.st80{clip-path:url(#SVGID_102_);fill:#FFFFFF;}
	.st81{opacity:0.39;fill:url(#SVGID_103_);}
	.st82{opacity:0.39;fill:url(#SVGID_104_);}
	.st83{opacity:0.39;fill:url(#SVGID_105_);}
	.st84{opacity:0.72;fill:url(#SVGID_106_);}
	.st85{opacity:0.13;fill:url(#SVGID_107_);}
	.st86{fill:none;stroke:#FFFFFF;stroke-width:2.6779;stroke-miterlimit:10;}
</style>
<g id="cancel-x-btn">
	<path class="st0" d="M21.2,17.2c0.2,0.2,0.2,0.4,0.2,0.6s-0.1,0.4-0.2,0.6c-0.2,0.2-0.4,0.2-0.6,0.2s-0.4-0.1-0.6-0.2l-5.8-5.8
		l-5.8,5.8c-0.2,0.2-0.4,0.2-0.6,0.2c-0.1,0-0.3,0-0.3-0.1c-0.1,0-0.2-0.1-0.3-0.2C7,18.2,6.9,18,6.9,17.7c0-0.2,0.1-0.4,0.2-0.6
		l5.8-5.8L7.2,5.6C7.1,5.5,7.1,5.4,7,5.3C7,5.2,6.9,5.1,6.9,5S7,4.7,7,4.6s0.1-0.2,0.2-0.3c0.2-0.2,0.4-0.2,0.6-0.2s0.4,0.1,0.6,0.2
		l5.8,5.8L20,4.3c0.2-0.2,0.4-0.2,0.6-0.2s0.4,0.1,0.6,0.2c0.1,0.1,0.1,0.2,0.2,0.3c0,0.1,0.1,0.2,0.1,0.3s0,0.2-0.1,0.3
		c0,0.1-0.1,0.2-0.2,0.3l-5.8,5.8L21.2,17.2z"/>
</g>
<g id="back-x-btn">
	<path class="st0" d="M38.2,11.4l7-7c0.2-0.2,0.4-0.2,0.6-0.2s0.4,0.1,0.6,0.2c0.1,0.1,0.1,0.2,0.2,0.3c0,0.1,0.1,0.2,0.1,0.3
		s0,0.2-0.1,0.3c0,0.1-0.1,0.2-0.2,0.3l-5.8,5.8l5.8,5.8c0.2,0.2,0.2,0.4,0.2,0.6s-0.1,0.4-0.2,0.6c-0.2,0.2-0.4,0.2-0.6,0.2
		c-0.2,0-0.4-0.1-0.6-0.2L38.2,11.4z"/>
</g>
<g id="next-arrow-btn">
	<polygon class="st1" points="140.9,11.9 59.6,11.9 59.6,51.5 140.9,51.5 153.1,31.7 	"/>
</g>
<g id="create-hex">
	<polygon class="st2" points="575.6,125 493.2,172.6 410.8,125 410.8,29.8 493.2,-17.7 575.6,29.8 	"/>
</g>
<g id="create-digital-ocean">
	<path class="st3" d="M268.2,24c-0.2-0.9-0.3-1.9-0.3-2.9c0-7,5.7-12.7,12.7-12.7c4.1,0,7.7,1.9,10,4.9"/>
	<path class="st3" d="M263.3,15.8c1.9-7.2,8.4-12.5,16.2-12.5c5.4,0,10.2,2.5,13.2,6.5"/>
	<path class="st3" d="M260.2,37c-2.5-1.1-4.3-3.5-4.3-6.4c0-3.9,3.1-7,7-7"/>
	<path class="st3" d="M256.1,40.7c-3.2-2.2-5.4-5.9-5.4-10.1c0-6.7,5.5-12.2,12.2-12.2"/>
	<path class="st3" d="M292.8,45.4c-2.3-1-4.5-2.1-6.4-3c-4.4-2.3-7.3-3.5-11.4-3.5c-7.2,0-10,2.2-14,5.3"/>
	<path class="st3" d="M295.5,35.7c4.2,1.9,9,3.4,15.3,3.4c2.1,0,4.1-0.8,5.9-1.8"/>
	<path class="st3" d="M263.9,36.5c0,0,5.4-3.1,10.4-3.1c11.8,0,18.6,10.8,36.5,10.8c8.3,0,14.5-7.7,14.5-7.7"/>
	<rect x="312.1" y="30.2" class="st4" width="4.3" height="4.3"/>
	<rect x="297.4" y="11.2" class="st4" width="5.7" height="5.7"/>
	<rect x="319.5" y="24.5" class="st4" width="5.7" height="5.7"/>
	<rect x="301" y="24.7" class="st4" width="4.3" height="4.3"/>
	<rect x="312.4" y="17.7" class="st4" width="4.3" height="4.3"/>
	<rect x="305" y="17.6" class="st4" width="4.3" height="4.3"/>
	<rect x="291.1" y="14.7" class="st4" width="4.3" height="4.3"/>
</g>
<g id="create-aws">
	<path id="path243_4_" class="st5" d="M300.6,98.3c-2.9,0-6.2,1.1-6.9,4.9c-0.1,0.4,0.2,0.6,0.4,0.6l3,0.4c0.3,0,0.5-0.3,0.5-0.6
		c0.3-1.3,1.3-1.9,2.5-1.9c0.6,0,1.3,0.2,1.7,0.8c0.4,0.7,0.4,1.5,0.4,2.3v0.4c-1.8,0.2-4.1,0.3-5.8,1.1c-1.9,0.9-3.3,2.6-3.3,5.2
		c0,3.3,2,4.9,4.6,4.9c2.2,0,3.4-0.5,5.1-2.3c0.6,0.8,0.7,1.2,1.8,2.1c0.2,0.1,0.5,0.1,0.7-0.1l0,0c0.6-0.6,1.7-1.6,2.4-2.1
		c0.3-0.2,0.2-0.6,0-0.8c-0.6-0.8-1.2-1.4-1.2-2.9v-4.9c0-2.1,0.2-4-1.3-5.5C304.1,98.7,302.1,98.3,300.6,98.3z M302,107.3v0.7
		c0,1.2,0,2.3-0.6,3.4c-0.5,0.9-1.3,1.4-2.1,1.4c-1.2,0-1.9-1-1.9-2.3C297.5,107.8,299.8,107.3,302,107.3z"/>
	<polygon class="st5" points="308.3,99.2 313.4,98.6 315.5,110 317.8,98.8 322.4,98.8 324.7,109.9 326.9,98.5 331.6,99.2 
		326.5,115.9 321.9,115.9 320,106.1 320,104.3 319.6,104.3 319.6,106.1 317.4,115.9 312.8,115.9 	"/>
	<path class="st5" d="M345,99.6c0,0-2.9-1.6-5.7-1.6s-6.4,2.2-6.4,6c0,5.3,7.7,4.4,7.7,7.6c0,0.9-1.1,1.2-1.8,1.2
		c-1.5,0-5.3-2-5.3-2l-1.4,3.5c0,0,3,2.2,7,2.2s6.4-2.2,6.4-5.7c0-5.3-7.9-4.9-7.9-7.7c0-0.7,0.4-1.3,2.1-1.3s3.7,1.3,3.7,1.3
		L345,99.6z"/>
	<g>
		<g>
			<g>
				<defs>
					<polygon id="SVGID_1_" points="274.5,117.3 274.5,133.8 264.3,137.7 264.3,121.3 					"/>
				</defs>
				<clipPath id="SVGID_2_">
					<use xlink:href="#SVGID_1_"  style="overflow:visible;"/>
				</clipPath>
				<line class="st6" x1="263.6" y1="135.4" x2="274.8" y2="130.7"/>
			</g>
		</g>
		<g>
			<g>
				<defs>
					<polygon id="SVGID_3_" points="274.5,117.3 274.5,133.8 264.3,137.7 264.3,121.3 					"/>
				</defs>
				<clipPath id="SVGID_4_">
					<use xlink:href="#SVGID_3_"  style="overflow:visible;"/>
				</clipPath>
				<line class="st7" x1="263.6" y1="131.6" x2="274.8" y2="126.9"/>
			</g>
		</g>
		<g>
			<g>
				<defs>
					<polygon id="SVGID_5_" points="274.5,117.3 274.5,133.8 264.3,137.7 264.3,121.3 					"/>
				</defs>
				<clipPath id="SVGID_6_">
					<use xlink:href="#SVGID_5_"  style="overflow:visible;"/>
				</clipPath>
				<line class="st8" x1="263.6" y1="127.8" x2="274.8" y2="123.1"/>
			</g>
		</g>
		<g>
			<g>
				<defs>
					<polygon id="SVGID_7_" points="274.5,117.3 274.5,133.8 264.3,137.7 264.3,121.3 					"/>
				</defs>
				<clipPath id="SVGID_8_">
					<use xlink:href="#SVGID_7_"  style="overflow:visible;"/>
				</clipPath>
				<line class="st9" x1="263.6" y1="124" x2="274.8" y2="119.4"/>
			</g>
		</g>
	</g>
	<g>
		<g>
			<g>
				<defs>
					<polygon id="SVGID_9_" points="262.7,122.8 252.5,117.8 251.9,130.4 262.8,136.2 					"/>
				</defs>
				<clipPath id="SVGID_10_">
					<use xlink:href="#SVGID_9_"  style="overflow:visible;"/>
				</clipPath>
				<line class="st10" x1="261.4" y1="138" x2="261.4" y2="121.2"/>
			</g>
		</g>
		<g>
			<g>
				<defs>
					<polygon id="SVGID_11_" points="262.7,122.8 252.5,117.8 251.9,130.4 262.8,136.2 					"/>
				</defs>
				<clipPath id="SVGID_12_">
					<use xlink:href="#SVGID_11_"  style="overflow:visible;"/>
				</clipPath>
				<line class="st11" x1="257.8" y1="136.6" x2="257.8" y2="119.8"/>
			</g>
		</g>
		<g>
			<g>
				<defs>
					<polygon id="SVGID_13_" points="262.7,122.8 252.5,117.8 251.9,130.4 262.8,136.2 					"/>
				</defs>
				<clipPath id="SVGID_14_">
					<use xlink:href="#SVGID_13_"  style="overflow:visible;"/>
				</clipPath>
				<line class="st12" x1="254.3" y1="134.3" x2="254.3" y2="118.4"/>
			</g>
		</g>
	</g>
	<g>
		<g>
			<g>
				<defs>
					<polygon id="SVGID_15_" points="267.5,112.3 275.8,116.1 263,121.4 254.7,117.7 					"/>
				</defs>
				<clipPath id="SVGID_16_">
					<use xlink:href="#SVGID_15_"  style="overflow:visible;"/>
				</clipPath>
				<line class="st13" x1="265.1" y1="121.6" x2="252.1" y2="115.5"/>
			</g>
		</g>
		<g>
			<g>
				<defs>
					<polygon id="SVGID_17_" points="267.5,112.3 275.8,116.1 263,121.4 254.7,117.7 					"/>
				</defs>
				<clipPath id="SVGID_18_">
					<use xlink:href="#SVGID_17_"  style="overflow:visible;"/>
				</clipPath>
				<line class="st14" x1="269.4" y1="119.8" x2="256.5" y2="113.7"/>
			</g>
		</g>
		<g>
			<g>
				<defs>
					<polygon id="SVGID_19_" points="267.5,112.3 275.8,116.1 263,121.4 254.7,117.7 					"/>
				</defs>
				<clipPath id="SVGID_20_">
					<use xlink:href="#SVGID_19_"  style="overflow:visible;"/>
				</clipPath>
				<line class="st15" x1="273.8" y1="118" x2="260.8" y2="111.9"/>
			</g>
		</g>
	</g>
	<g>
		<g>
			<g>
				<defs>
					<polygon id="SVGID_21_" points="286.8,96.7 286.8,113.1 276.6,117.1 276.6,100.6 					"/>
				</defs>
				<clipPath id="SVGID_22_">
					<use xlink:href="#SVGID_21_"  style="overflow:visible;"/>
				</clipPath>
				<line class="st16" x1="275.9" y1="114.7" x2="287.1" y2="110"/>
			</g>
		</g>
		<g>
			<g>
				<defs>
					<polygon id="SVGID_23_" points="286.8,96.7 286.8,113.1 276.6,117.1 276.6,100.6 					"/>
				</defs>
				<clipPath id="SVGID_24_">
					<use xlink:href="#SVGID_23_"  style="overflow:visible;"/>
				</clipPath>
				<line class="st17" x1="275.9" y1="110.9" x2="287.1" y2="106.3"/>
			</g>
		</g>
		<g>
			<g>
				<defs>
					<polygon id="SVGID_25_" points="286.8,96.7 286.8,113.1 276.6,117.1 276.6,100.6 					"/>
				</defs>
				<clipPath id="SVGID_26_">
					<use xlink:href="#SVGID_25_"  style="overflow:visible;"/>
				</clipPath>
				<line class="st18" x1="275.9" y1="107.2" x2="287.1" y2="102.5"/>
			</g>
		</g>
		<g>
			<g>
				<defs>
					<polygon id="SVGID_27_" points="286.8,96.7 286.8,113.1 276.6,117.1 276.6,100.6 					"/>
				</defs>
				<clipPath id="SVGID_28_">
					<use xlink:href="#SVGID_27_"  style="overflow:visible;"/>
				</clipPath>
				<line class="st19" x1="275.9" y1="103.4" x2="287.1" y2="98.7"/>
			</g>
		</g>
	</g>
	<g>
		<g>
			<g>
				<defs>
					<polygon id="SVGID_29_" points="275,102.1 264.8,97.2 264.2,109.8 275.1,115.5 					"/>
				</defs>
				<clipPath id="SVGID_30_">
					<use xlink:href="#SVGID_29_"  style="overflow:visible;"/>
				</clipPath>
				<line class="st20" x1="273.7" y1="117.4" x2="273.7" y2="100.6"/>
			</g>
		</g>
		<g>
			<g>
				<defs>
					<polygon id="SVGID_31_" points="275,102.1 264.8,97.2 264.2,109.8 275.1,115.5 					"/>
				</defs>
				<clipPath id="SVGID_32_">
					<use xlink:href="#SVGID_31_"  style="overflow:visible;"/>
				</clipPath>
				<line class="st21" x1="270.1" y1="115.9" x2="270.1" y2="99.1"/>
			</g>
		</g>
		<g>
			<g>
				<defs>
					<polygon id="SVGID_33_" points="275,102.1 264.8,97.2 264.2,109.8 275.1,115.5 					"/>
				</defs>
				<clipPath id="SVGID_34_">
					<use xlink:href="#SVGID_33_"  style="overflow:visible;"/>
				</clipPath>
				<line class="st22" x1="266.6" y1="113.6" x2="266.6" y2="97.7"/>
			</g>
		</g>
	</g>
	<g>
		<g>
			<g>
				<defs>
					<polygon id="SVGID_35_" points="279.8,91.6 288.1,95.5 275.3,100.7 267,97 					"/>
				</defs>
				<clipPath id="SVGID_36_">
					<use xlink:href="#SVGID_35_"  style="overflow:visible;"/>
				</clipPath>
				<line class="st23" x1="277.4" y1="101" x2="264.4" y2="94.9"/>
			</g>
		</g>
		<g>
			<g>
				<defs>
					<polygon id="SVGID_37_" points="279.8,91.6 288.1,95.5 275.3,100.7 267,97 					"/>
				</defs>
				<clipPath id="SVGID_38_">
					<use xlink:href="#SVGID_37_"  style="overflow:visible;"/>
				</clipPath>
				<line class="st24" x1="281.7" y1="99.1" x2="268.8" y2="93.1"/>
			</g>
		</g>
		<g>
			<g>
				<defs>
					<polygon id="SVGID_39_" points="279.8,91.6 288.1,95.5 275.3,100.7 267,97 					"/>
				</defs>
				<clipPath id="SVGID_40_">
					<use xlink:href="#SVGID_39_"  style="overflow:visible;"/>
				</clipPath>
				<line class="st25" x1="286.1" y1="97.3" x2="273.1" y2="91.3"/>
			</g>
		</g>
	</g>
	<g>
		<g>
			<g>
				<defs>
					<polygon id="SVGID_41_" points="299.8,76.8 299.8,93.3 289.6,97.3 289.6,80.8 					"/>
				</defs>
				<clipPath id="SVGID_42_">
					<use xlink:href="#SVGID_41_"  style="overflow:visible;"/>
				</clipPath>
				<line class="st26" x1="288.9" y1="94.9" x2="300.1" y2="90.2"/>
			</g>
		</g>
		<g>
			<g>
				<defs>
					<polygon id="SVGID_43_" points="299.8,76.8 299.8,93.3 289.6,97.3 289.6,80.8 					"/>
				</defs>
				<clipPath id="SVGID_44_">
					<use xlink:href="#SVGID_43_"  style="overflow:visible;"/>
				</clipPath>
				<line class="st27" x1="288.9" y1="91.1" x2="300.1" y2="86.4"/>
			</g>
		</g>
		<g>
			<g>
				<defs>
					<polygon id="SVGID_45_" points="299.8,76.8 299.8,93.3 289.6,97.3 289.6,80.8 					"/>
				</defs>
				<clipPath id="SVGID_46_">
					<use xlink:href="#SVGID_45_"  style="overflow:visible;"/>
				</clipPath>
				<line class="st28" x1="288.9" y1="87.3" x2="300.1" y2="82.7"/>
			</g>
		</g>
		<g>
			<g>
				<defs>
					<polygon id="SVGID_47_" points="299.8,76.8 299.8,93.3 289.6,97.3 289.6,80.8 					"/>
				</defs>
				<clipPath id="SVGID_48_">
					<use xlink:href="#SVGID_47_"  style="overflow:visible;"/>
				</clipPath>
				<line class="st29" x1="288.9" y1="83.5" x2="300.1" y2="78.9"/>
			</g>
		</g>
	</g>
	<g>
		<g>
			<g>
				<defs>
					<polygon id="SVGID_49_" points="288.1,82.3 277.8,77.4 277.3,90 288.2,95.7 					"/>
				</defs>
				<clipPath id="SVGID_50_">
					<use xlink:href="#SVGID_49_"  style="overflow:visible;"/>
				</clipPath>
				<line class="st30" x1="286.7" y1="97.6" x2="286.7" y2="80.8"/>
			</g>
		</g>
		<g>
			<g>
				<defs>
					<polygon id="SVGID_51_" points="288.1,82.3 277.8,77.4 277.3,90 288.2,95.7 					"/>
				</defs>
				<clipPath id="SVGID_52_">
					<use xlink:href="#SVGID_51_"  style="overflow:visible;"/>
				</clipPath>
				<line class="st31" x1="283.2" y1="96.1" x2="283.2" y2="79.3"/>
			</g>
		</g>
		<g>
			<g>
				<defs>
					<polygon id="SVGID_53_" points="288.1,82.3 277.8,77.4 277.3,90 288.2,95.7 					"/>
				</defs>
				<clipPath id="SVGID_54_">
					<use xlink:href="#SVGID_53_"  style="overflow:visible;"/>
				</clipPath>
				<line class="st32" x1="279.6" y1="93.8" x2="279.6" y2="77.9"/>
			</g>
		</g>
	</g>
	<g>
		<g>
			<g>
				<defs>
					<polygon id="SVGID_55_" points="292.8,71.8 301.1,75.6 288.3,80.9 280,77.2 					"/>
				</defs>
				<clipPath id="SVGID_56_">
					<use xlink:href="#SVGID_55_"  style="overflow:visible;"/>
				</clipPath>
				<line class="st33" x1="290.4" y1="81.1" x2="277.5" y2="75.1"/>
			</g>
		</g>
		<g>
			<g>
				<defs>
					<polygon id="SVGID_57_" points="292.8,71.8 301.1,75.6 288.3,80.9 280,77.2 					"/>
				</defs>
				<clipPath id="SVGID_58_">
					<use xlink:href="#SVGID_57_"  style="overflow:visible;"/>
				</clipPath>
				<line class="st34" x1="294.7" y1="79.3" x2="281.8" y2="73.2"/>
			</g>
		</g>
		<g>
			<g>
				<defs>
					<polygon id="SVGID_59_" points="292.8,71.8 301.1,75.6 288.3,80.9 280,77.2 					"/>
				</defs>
				<clipPath id="SVGID_60_">
					<use xlink:href="#SVGID_59_"  style="overflow:visible;"/>
				</clipPath>
				<line class="st35" x1="299.1" y1="77.5" x2="286.1" y2="71.4"/>
			</g>
		</g>
	</g>
	<g>
		<g>
			<g>
				<defs>
					<polygon id="SVGID_61_" points="323.2,76.8 323.2,93.3 313,97.3 313,80.8 					"/>
				</defs>
				<clipPath id="SVGID_62_">
					<use xlink:href="#SVGID_61_"  style="overflow:visible;"/>
				</clipPath>
				<line class="st36" x1="312.2" y1="94.9" x2="323.4" y2="90.2"/>
			</g>
		</g>
		<g>
			<g>
				<defs>
					<polygon id="SVGID_63_" points="323.2,76.8 323.2,93.3 313,97.3 313,80.8 					"/>
				</defs>
				<clipPath id="SVGID_64_">
					<use xlink:href="#SVGID_63_"  style="overflow:visible;"/>
				</clipPath>
				<line class="st37" x1="312.2" y1="91.1" x2="323.4" y2="86.4"/>
			</g>
		</g>
		<g>
			<g>
				<defs>
					<polygon id="SVGID_65_" points="323.2,76.8 323.2,93.3 313,97.3 313,80.8 					"/>
				</defs>
				<clipPath id="SVGID_66_">
					<use xlink:href="#SVGID_65_"  style="overflow:visible;"/>
				</clipPath>
				<line class="st38" x1="312.2" y1="87.3" x2="323.4" y2="82.7"/>
			</g>
		</g>
		<g>
			<g>
				<defs>
					<polygon id="SVGID_67_" points="323.2,76.8 323.2,93.3 313,97.3 313,80.8 					"/>
				</defs>
				<clipPath id="SVGID_68_">
					<use xlink:href="#SVGID_67_"  style="overflow:visible;"/>
				</clipPath>
				<line class="st39" x1="312.2" y1="83.5" x2="323.4" y2="78.9"/>
			</g>
		</g>
	</g>
	<g>
		<g>
			<g>
				<defs>
					<polygon id="SVGID_69_" points="311.4,82.3 301.2,77.4 300.6,90 311.5,95.7 					"/>
				</defs>
				<clipPath id="SVGID_70_">
					<use xlink:href="#SVGID_69_"  style="overflow:visible;"/>
				</clipPath>
				<line class="st40" x1="310.1" y1="97.6" x2="310.1" y2="80.8"/>
			</g>
		</g>
		<g>
			<g>
				<defs>
					<polygon id="SVGID_71_" points="311.4,82.3 301.2,77.4 300.6,90 311.5,95.7 					"/>
				</defs>
				<clipPath id="SVGID_72_">
					<use xlink:href="#SVGID_71_"  style="overflow:visible;"/>
				</clipPath>
				<line class="st41" x1="306.5" y1="96.1" x2="306.5" y2="79.3"/>
			</g>
		</g>
		<g>
			<g>
				<defs>
					<polygon id="SVGID_73_" points="311.4,82.3 301.2,77.4 300.6,90 311.5,95.7 					"/>
				</defs>
				<clipPath id="SVGID_74_">
					<use xlink:href="#SVGID_73_"  style="overflow:visible;"/>
				</clipPath>
				<line class="st42" x1="303" y1="93.8" x2="303" y2="77.9"/>
			</g>
		</g>
	</g>
	<g>
		<g>
			<g>
				<defs>
					<polygon id="SVGID_75_" points="316.2,71.8 324.5,75.6 311.7,80.9 303.3,77.2 					"/>
				</defs>
				<clipPath id="SVGID_76_">
					<use xlink:href="#SVGID_75_"  style="overflow:visible;"/>
				</clipPath>
				<line class="st43" x1="313.8" y1="81.1" x2="300.8" y2="75.1"/>
			</g>
		</g>
		<g>
			<g>
				<defs>
					<polygon id="SVGID_77_" points="316.2,71.8 324.5,75.6 311.7,80.9 303.3,77.2 					"/>
				</defs>
				<clipPath id="SVGID_78_">
					<use xlink:href="#SVGID_77_"  style="overflow:visible;"/>
				</clipPath>
				<line class="st44" x1="318.1" y1="79.3" x2="305.2" y2="73.2"/>
			</g>
		</g>
		<g>
			<g>
				<defs>
					<polygon id="SVGID_79_" points="316.2,71.8 324.5,75.6 311.7,80.9 303.3,77.2 					"/>
				</defs>
				<clipPath id="SVGID_80_">
					<use xlink:href="#SVGID_79_"  style="overflow:visible;"/>
				</clipPath>
				<line class="st45" x1="322.5" y1="77.5" x2="309.5" y2="71.4"/>
			</g>
		</g>
	</g>
	<g>
		<g>
			<g>
				<defs>
					<polygon id="SVGID_81_" points="262.6,97.5 262.6,113.9 252.4,117.9 252.4,101.5 					"/>
				</defs>
				<clipPath id="SVGID_82_">
					<use xlink:href="#SVGID_81_"  style="overflow:visible;"/>
				</clipPath>
				<line class="st46" x1="251.7" y1="115.5" x2="262.9" y2="110.9"/>
			</g>
		</g>
		<g>
			<g>
				<defs>
					<polygon id="SVGID_83_" points="262.6,97.5 262.6,113.9 252.4,117.9 252.4,101.5 					"/>
				</defs>
				<clipPath id="SVGID_84_">
					<use xlink:href="#SVGID_83_"  style="overflow:visible;"/>
				</clipPath>
				<line class="st47" x1="251.7" y1="111.8" x2="262.9" y2="107.1"/>
			</g>
		</g>
		<g>
			<g>
				<defs>
					<polygon id="SVGID_85_" points="262.6,97.5 262.6,113.9 252.4,117.9 252.4,101.5 					"/>
				</defs>
				<clipPath id="SVGID_86_">
					<use xlink:href="#SVGID_85_"  style="overflow:visible;"/>
				</clipPath>
				<line class="st48" x1="251.7" y1="108" x2="262.9" y2="103.3"/>
			</g>
		</g>
		<g>
			<g>
				<defs>
					<polygon id="SVGID_87_" points="262.6,97.5 262.6,113.9 252.4,117.9 252.4,101.5 					"/>
				</defs>
				<clipPath id="SVGID_88_">
					<use xlink:href="#SVGID_87_"  style="overflow:visible;"/>
				</clipPath>
				<line class="st49" x1="251.7" y1="104.2" x2="262.9" y2="99.5"/>
			</g>
		</g>
	</g>
	<g>
		<g>
			<g>
				<defs>
					<polygon id="SVGID_89_" points="250.9,102.9 240.6,98 240.1,110.6 251,116.3 					"/>
				</defs>
				<clipPath id="SVGID_90_">
					<use xlink:href="#SVGID_89_"  style="overflow:visible;"/>
				</clipPath>
				<line class="st50" x1="249.5" y1="118.2" x2="249.5" y2="101.4"/>
			</g>
		</g>
		<g>
			<g>
				<defs>
					<polygon id="SVGID_91_" points="250.9,102.9 240.6,98 240.1,110.6 251,116.3 					"/>
				</defs>
				<clipPath id="SVGID_92_">
					<use xlink:href="#SVGID_91_"  style="overflow:visible;"/>
				</clipPath>
				<line class="st51" x1="246" y1="116.8" x2="246" y2="100"/>
			</g>
		</g>
		<g>
			<g>
				<defs>
					<polygon id="SVGID_93_" points="250.9,102.9 240.6,98 240.1,110.6 251,116.3 					"/>
				</defs>
				<clipPath id="SVGID_94_">
					<use xlink:href="#SVGID_93_"  style="overflow:visible;"/>
				</clipPath>
				<line class="st52" x1="242.4" y1="114.5" x2="242.4" y2="98.6"/>
			</g>
		</g>
	</g>
	<g>
		<g>
			<g>
				<defs>
					<polygon id="SVGID_95_" points="255.6,92.5 263.9,96.3 251.1,101.6 242.8,97.9 					"/>
				</defs>
				<clipPath id="SVGID_96_">
					<use xlink:href="#SVGID_95_"  style="overflow:visible;"/>
				</clipPath>
				<line class="st53" x1="253.2" y1="101.8" x2="240.3" y2="95.7"/>
			</g>
		</g>
		<g>
			<g>
				<defs>
					<polygon id="SVGID_97_" points="255.6,92.5 263.9,96.3 251.1,101.6 242.8,97.9 					"/>
				</defs>
				<clipPath id="SVGID_98_">
					<use xlink:href="#SVGID_97_"  style="overflow:visible;"/>
				</clipPath>
				<line class="st54" x1="257.6" y1="100" x2="244.6" y2="93.9"/>
			</g>
		</g>
		<g>
			<g>
				<defs>
					<polygon id="SVGID_99_" points="255.6,92.5 263.9,96.3 251.1,101.6 242.8,97.9 					"/>
				</defs>
				<clipPath id="SVGID_100_">
					<use xlink:href="#SVGID_99_"  style="overflow:visible;"/>
				</clipPath>
				<line class="st55" x1="261.9" y1="98.2" x2="248.9" y2="92.1"/>
			</g>
		</g>
	</g>
</g>
<g id="create-google-compute">
	<polygon class="st56" points="264.5,180.7 293.8,163.8 323,180.7 323,214.4 293.8,231.3 264.5,214.4 	"/>
	<path class="st57" d="M268.2,183.5l25.7-15l14.1-8.2c1-0.6,2.5-0.8,3.8-0.8l-15-8.6c-1.8-1-4.7-1-6.5,0l-36,20.8
		c-1.8,1-3.3,3.6-3.3,5.6v24.8c0.6,1,1.4,1.9,2.3,2.4l15,8.5v-29.5H268.2z"/>
	<polygon class="st58" points="296.8,245.4 332.8,224.6 318.2,233 	"/>
	<path class="st58" d="M296.8,245.4l21.4-12.3c0.7-1.1,1.1-2.3,1.1-3.4V213l-25.5,14.5l-25.5-14.4l-15-8.5c-0.9-0.5-1.7-1.4-2.3-2.4
		V219c0,2.1,1.5,4.6,3.3,5.6l14.3,8.3l21.7,12.5C292.1,246.4,295,246.4,296.8,245.4z"/>
	<path class="st59" d="M332.8,224.6c1.8-1,3.3-3.6,3.3-5.6v-16.4v-25.2c0-2.1-1.5-4.6-3.3-5.6l-21.1-12.2c-1.4-0.1-2.8,0.2-3.8,0.8
		l-14.1,8.2l25.4,14.7V213v16.7c0,1.1-0.4,2.3-1.1,3.4L332.8,224.6z"/>
	<polygon class="st56" points="293.9,168.5 268.2,183.5 268.2,212.9 293.7,227.4 319.2,212.9 319.2,183.2 	"/>
	<path class="st60" d="M312.7,160.1l-0.9-0.5c-1.4-0.1-2.8,0.2-3.8,0.8l-14.1,8.2l7.6,4.4L312.7,160.1z"/>
	<path class="st61" d="M317.2,233.6l1-0.6c0.7-1.1,1.1-2.3,1.1-3.4v-16.7l-7.7,4.4L317.2,233.6z"/>
	<path class="st62" d="M251,200.7v1.4c0.6,1,1.4,1.9,2.3,2.4l15,8.5v-9L251,200.7z"/>
	<circle class="st2" cx="327.8" cy="178.4" r="2.5"/>
	<path class="st63" d="M330.1,178.4c0,1.3-1.1,2.4-2.4,2.4s-2.4-1.1-2.4-2.4c0-1.3,1.1-2.4,2.4-2.4
		C329.1,176.1,330.1,177.1,330.1,178.4 M330.5,178.4c0-1.5-1.2-2.7-2.7-2.7s-2.7,1.2-2.7,2.7s1.2,2.7,2.7,2.7
		C329.3,181.1,330.5,179.9,330.5,178.4L330.5,178.4z"/>
	<circle class="st64" cx="327.8" cy="217.7" r="2.4"/>
	<circle class="st2" cx="259.7" cy="178.4" r="2.5"/>
	<circle class="st2" cx="259.7" cy="217.7" r="2.5"/>
	<circle class="st2" cx="293.6" cy="237.4" r="2.5"/>
	<path class="st2" d="M295.9,158.6c0,1.3-1.1,2.4-2.4,2.4s-2.4-1.1-2.4-2.4c0-1.3,1.1-2.4,2.4-2.4
		C294.9,156.3,295.9,157.3,295.9,158.6"/>
	<rect x="284.6" y="189" class="st65" width="19.3" height="19.3"/>
	<rect x="290.5" y="195" class="st2" width="7.3" height="7.3"/>
	<line class="st66" x1="288.5" y1="183" x2="288.5" y2="189"/>
	<line class="st66" x1="293.5" y1="183" x2="293.5" y2="189"/>
	<line class="st66" x1="299.5" y1="183" x2="299.5" y2="189"/>
	<line class="st66" x1="310" y1="193.5" x2="303.9" y2="193.5"/>
	<line class="st66" x1="310" y1="198.5" x2="303.9" y2="198.5"/>
	<line class="st66" x1="310" y1="204.5" x2="303.9" y2="204.5"/>
	<line class="st66" x1="299.5" y1="214" x2="299.5" y2="208.3"/>
	<line class="st66" x1="294.5" y1="214" x2="294.5" y2="208.3"/>
	<line class="st66" x1="288.5" y1="214" x2="288.5" y2="208.3"/>
	<line class="st66" x1="279" y1="204.5" x2="284.6" y2="204.5"/>
	<line class="st66" x1="279" y1="199.5" x2="284.6" y2="199.5"/>
	<line class="st66" x1="279" y1="193.5" x2="284.6" y2="193.5"/>
</g>
<g id="dropdown-check">
	<path class="st1" d="M14.6,43.1l-2.8-2.8c-0.5-0.6-0.5-1.5,0-2c0.6-0.6,1.5-0.6,2,0l1.8,1.8l4.4-4.4c0.5-0.6,1.5-0.6,2,0
		c0.5,0.5,0.5,1.5,0,2l-5.4,5.4c-0.3,0.3-0.6,0.4-1,0.4S14.9,43.4,14.6,43.1z"/>
</g>
<g id="whats-next">
	<line class="st67" x1="584.857" y1="298.445" x2="584.857" y2="444.811"/>
	<polyline class="st67" points="535.692,395.646 584.857,444.811 634.022,395.646 	"/>
	<rect x="410.8" y="241.869" class="st68" width="348.114" height="56.576"/>
</g>
<g id="next-process">
	<polyline class="st69" points="1024.291,47.924 986.291,85.924 954.879,85.924 	"/>
	<polyline class="st69" points="1046.079,163.391 1084.079,125.391 1115.492,125.391 	"/>
	<polyline class="st69" points="1024.291,317.924 986.291,355.924 954.879,355.924 	"/>
	<polyline class="st69" points="1046.079,433.391 1084.079,395.391 1115.492,395.391 	"/>
	<circle class="st70" cx="1188.564" cy="395.47" r="73.072"/>
	<polygon class="st71" points="1240.125,391.684 1226.772,399.394 1213.418,391.684 1213.418,376.264 1226.772,368.555 
		1240.125,376.264 	"/>
	<polygon class="st2" points="1213.418,376.264 1226.772,383.974 1240.125,376.264 1226.772,368.555 	"/>
	<polygon class="st72" points="1226.772,383.974 1226.772,399.394 1213.418,391.684 1213.418,376.264 	"/>
	<polygon class="st71" points="1219.653,403.152 1189.922,420.318 1160.19,403.152 1160.19,368.822 1189.922,351.656 
		1219.653,368.822 	"/>
	<polygon class="st2" points="1160.19,368.822 1189.922,385.987 1219.653,368.822 1189.922,351.656 	"/>
	<polygon class="st72" points="1189.922,385.987 1189.922,420.318 1160.19,403.152 1160.19,368.822 	"/>
	<circle class="st70" cx="881.807" cy="355.923" r="73.072"/>
	<circle class="st73" cx="1035.185" cy="445.752" r="18.5"/>
	<circle class="st73" cx="1035.185" cy="311.298" r="18.5"/>
	<circle class="st73" cx="1035.185" cy="176.845" r="18.5"/>
	<circle class="st73" cx="1035.185" cy="42.391" r="18.5"/>
	<path class="st2" d="M1034.816,39.071l-2.221,2.261l-1.62-1.701l4.2-4.221h2.48v13.343h-2.84V39.071z"/>
	<path class="st2" d="M1029.7,181.016c5.461-4.021,7.061-5.4,7.061-7.041c0-1.16-1.06-1.74-2.18-1.74c-1.501,0-2.661,0.6-3.562,1.54
		l-1.62-1.88c1.301-1.501,3.281-2.182,5.142-2.182c2.841,0,5.101,1.602,5.101,4.262c0,2.28-1.88,4.261-5.461,6.781h5.562v2.5H1029.7
		V181.016z"/>
	<path class="st2" d="M1030.875,314.732c0.921,0.96,2.381,1.521,3.682,1.521c1.62,0,2.52-0.7,2.52-1.721
		c0-1.08-0.819-1.58-2.68-1.58c-0.561,0-1.461,0-1.66,0.021v-2.481c0.24,0.021,1.16,0.021,1.66,0.021c1.48,0,2.461-0.48,2.461-1.48
		c0-1.061-1.081-1.601-2.48-1.601c-1.281,0-2.461,0.5-3.401,1.4l-1.4-1.761c1.08-1.22,2.761-2.12,5.101-2.12
		c3.121,0,5.041,1.4,5.041,3.621c0,1.681-1.439,2.78-2.92,3.04c1.36,0.141,3.121,1.201,3.121,3.201c0,2.301-2.061,3.921-5.262,3.921
		c-2.461,0-4.281-0.94-5.262-2.141L1030.875,314.732z"/>
	<path class="st2" d="M1035.776,450.603h-6.381v-2.24l5.301-8.342h3.921v8.081h1.721v2.501h-1.721v2.761h-2.841V450.603z
		 M1032.176,448.102h3.601v-5.561L1032.176,448.102z"/>
	<circle class="st70" cx="1188.564" cy="125.47" r="73.072"/>
	<circle class="st70" cx="881.807" cy="85.923" r="73.072"/>
	<polygon class="st71" points="1163.842,413.242 1150.489,420.952 1137.135,413.242 1137.135,397.822 1150.489,390.113 
		1163.842,397.822 	"/>
	<polygon class="st2" points="1137.135,397.822 1150.489,405.532 1163.842,397.822 1150.489,390.113 	"/>
	<polygon class="st72" points="1150.489,405.532 1150.489,420.952 1137.135,413.242 1137.135,397.822 	"/>
	<polygon class="st71" points="905.231,99.447 881.807,112.971 858.383,99.447 858.383,72.399 881.807,58.875 905.231,72.399 	"/>
	<polygon class="st2" points="858.383,72.399 881.807,85.923 905.231,72.399 881.807,58.875 	"/>
	<polygon class="st72" points="881.807,85.923 881.807,112.971 858.383,99.447 858.383,72.399 	"/>
	<polygon class="st71" points="916.849,383.021 881.807,403.252 846.765,383.021 846.765,342.558 881.807,322.327 916.849,342.558 	
		"/>
	<polygon class="st2" points="846.765,342.558 881.807,362.789 916.849,342.558 881.807,322.327 	"/>
	<polygon class="st72" points="881.807,362.789 881.807,403.252 846.765,383.021 846.765,342.558 	"/>
	<polygon class="st71" points="1183.146,424.173 1169.792,431.882 1156.438,424.173 1156.438,408.753 1169.792,401.043 
		1183.146,408.753 	"/>
	<polygon class="st2" points="1156.438,408.753 1169.792,416.463 1183.146,408.753 1169.792,401.043 	"/>
	<polygon class="st72" points="1169.792,416.463 1169.792,431.882 1156.438,424.173 1156.438,408.753 	"/>
	<line class="st74" x1="881.807" y1="53.726" x2="881.807" y2="41.399"/>
	<line class="st74" x1="895.804" y1="56.838" x2="901.027" y2="45.673"/>
	<line class="st74" x1="867.81" y1="56.838" x2="862.587" y2="45.673"/>
	<line class="st74" x1="881.807" y1="118.12" x2="881.807" y2="130.447"/>
	<line class="st74" x1="895.804" y1="115.008" x2="901.027" y2="126.173"/>
	<line class="st74" x1="867.81" y1="115.008" x2="862.587" y2="126.173"/>
	<line class="st74" x1="914.004" y1="85.923" x2="926.331" y2="85.923"/>
	<line class="st74" x1="910.892" y1="99.92" x2="922.057" y2="105.143"/>
	<line class="st74" x1="910.892" y1="71.926" x2="922.057" y2="66.703"/>
	<line class="st74" x1="849.61" y1="85.923" x2="837.283" y2="85.923"/>
	<line class="st74" x1="852.722" y1="99.92" x2="841.557" y2="105.143"/>
	<line class="st74" x1="852.722" y1="71.926" x2="841.557" y2="66.703"/>
	<g>
		<g>
			<polyline class="st74" points="1227.88,140.409 1227.88,147.409 1221.812,150.899 			"/>
			<line class="st75" x1="1219.212" y1="152.394" x2="1197.106" y2="165.107"/>
			<polyline class="st74" points="1195.806,165.855 1189.738,169.345 1183.676,165.844 			"/>
			<line class="st76" x1="1181.091" y1="164.35" x2="1159.113" y2="151.656"/>
			<polyline class="st74" points="1157.821,150.91 1151.759,147.409 1151.759,140.409 			"/>
			<line class="st77" x1="1151.759" y1="137.405" x2="1151.759" y2="111.875"/>
			<polyline class="st74" points="1151.759,110.373 1151.759,103.373 1157.821,99.872 			"/>
			<line class="st76" x1="1160.406" y1="98.378" x2="1182.383" y2="85.685"/>
			<polyline class="st74" points="1183.676,84.938 1189.738,81.437 1195.806,84.927 			"/>
			<line class="st75" x1="1198.406" y1="86.422" x2="1220.512" y2="99.135"/>
			<polyline class="st74" points="1221.812,99.883 1227.88,103.373 1227.88,110.373 			"/>
			<line class="st77" x1="1227.88" y1="113.376" x2="1227.88" y2="138.907"/>
		</g>
	</g>
	<polygon class="st2" points="1208.4,145.281 1189.574,154.939 1170.257,145.117 1189.083,135.295 	"/>
	<polygon class="st78" points="1200.378,141.188 1189.247,146.918 1177.951,141.024 1189.083,135.295 	"/>
	<polygon class="st71" points="1189.574,154.939 1208.4,145.281 1208.4,148.064 1189.574,157.722 	"/>
	<polygon class="st72" points="1189.574,154.939 1170.257,145.117 1170.257,147.9 1189.574,157.722 	"/>
	<polygon class="st71" points="1189.738,139.224 1205.126,131.366 1205.126,133.658 1189.738,141.515 	"/>
	<polygon class="st72" points="1189.738,139.224 1174.35,131.366 1174.35,133.658 1189.738,141.515 	"/>
	<polygon class="st2" points="1205.126,131.366 1189.738,139.224 1174.35,131.366 1189.738,123.508 	"/>
	<polygon class="st78" points="1201.033,129.238 1189.738,135.131 1178.442,129.238 1189.738,123.508 	"/>
	<polygon class="st71" points="1189.738,126.946 1208.4,117.288 1208.4,120.234 1189.738,129.729 	"/>
	<polygon class="st72" points="1189.738,126.946 1171.076,117.288 1171.076,120.234 1189.738,129.729 	"/>
	<polygon class="st2" points="1208.4,117.288 1189.738,126.946 1171.076,117.288 1189.738,107.793 	"/>
	<polygon class="st78" points="1203.489,114.832 1189.738,121.871 1175.987,114.832 1189.738,107.793 	"/>
	<polygon class="st2" points="1208.4,102.554 1189.574,112.213 1170.748,102.554 1189.574,92.896 	"/>
	<polygon class="st71" points="1189.574,112.213 1208.4,102.554 1208.4,105.501 1189.574,115.159 	"/>
	<polygon class="st72" points="1189.574,112.213 1170.748,102.554 1170.748,105.501 1189.574,115.159 	"/>
	<path class="st79" d="M1208.4,114.832"/>
	<polygon class="st71" points="854.086,342.558 881.807,358.563 881.807,326.553 	"/>
	<polygon class="st72" points="881.807,326.553 881.807,358.563 909.528,342.558 	"/>
	<g>
		<defs>
			<polygon id="SVGID_101_" points="854.086,342.558 881.807,358.563 909.528,342.558 909.528,287.369 854.086,287.369 			"/>
		</defs>
		<clipPath id="SVGID_102_">
			<use xlink:href="#SVGID_101_"  style="overflow:visible;"/>
		</clipPath>
		<polygon class="st80" points="901.934,332.073 881.807,343.694 861.68,332.073 861.68,308.833 881.807,297.212 901.934,308.833 		
			"/>
		<polygon class="st80" points="861.68,308.833 881.807,320.453 901.934,308.833 881.807,297.212 		"/>
		<polygon class="st80" points="881.807,320.453 881.807,343.694 861.68,332.073 861.68,308.833 		"/>
	</g>
	<linearGradient id="SVGID_103_" gradientUnits="userSpaceOnUse" x1="899.7686" y1="319.9225" x2="899.7686" y2="270.2009">
		<stop  offset="0" style="stop-color:#FFFFFF"/>
		<stop  offset="1" style="stop-color:#FFFFFF;stop-opacity:0"/>
	</linearGradient>
	<polygon class="st81" points="902.444,241.492 897.093,244.568 897.093,329.672 902.444,326.595 	"/>
	<linearGradient id="SVGID_104_" gradientUnits="userSpaceOnUse" x1="875.1077" y1="320.9879" x2="875.1077" y2="271.2663">
		<stop  offset="0" style="stop-color:#FFFFFF"/>
		<stop  offset="1" style="stop-color:#FFFFFF;stop-opacity:0"/>
	</linearGradient>
	<polygon class="st82" points="877.784,242.557 872.432,245.634 872.432,330.737 877.784,327.661 	"/>
	<linearGradient id="SVGID_105_" gradientUnits="userSpaceOnUse" x1="870.4319" y1="316.6575" x2="870.4319" y2="264.2106">
		<stop  offset="0" style="stop-color:#FFFFFF"/>
		<stop  offset="1" style="stop-color:#FFFFFF;stop-opacity:0"/>
	</linearGradient>
	<polygon class="st83" points="876.606,233.928 864.258,241.838 864.258,326.941 876.606,319.032 	"/>
	<linearGradient id="SVGID_106_" gradientUnits="userSpaceOnUse" x1="864.2862" y1="302.9259" x2="864.2862" y2="252.6494">
		<stop  offset="0" style="stop-color:#FFFFFF"/>
		<stop  offset="1" style="stop-color:#FFFFFF;stop-opacity:0"/>
	</linearGradient>
	<polygon class="st84" points="866.962,248.262 861.61,251.338 861.61,309.721 866.962,306.645 	"/>
	
		<linearGradient id="SVGID_107_" gradientUnits="userSpaceOnUse" x1="-1341.9895" y1="321.164" x2="-1341.9895" y2="272.2331" gradientTransform="matrix(-1 0 0 1 -449.5248 0)">
		<stop  offset="0" style="stop-color:#FFFFFF"/>
		<stop  offset="1" style="stop-color:#FFFFFF;stop-opacity:0"/>
	</linearGradient>
	<polygon class="st85" points="887.837,243.981 897.093,247.777 897.093,330.758 887.837,326.962 	"/>
</g>
<g id="gray-smiler">
	<circle class="st70" cx="686.325" cy="85.923" r="18.45"/>
	<path class="st86" d="M674.63,91.882c2.176,4.256,6.589,7.176,11.696,7.176s9.521-2.92,11.693-7.176"/>
	<circle class="st2" cx="698.728" cy="80.501" r="2.23"/>
	<circle class="st2" cx="673.859" cy="80.501" r="2.23"/>
</g>
</svg>
