<?xml version="1.0" encoding="iso-8859-1"?>
<!-- Generator: Adobe Illustrator 19.2.1, SVG Export Plug-In . SVG Version: 6.00 Build 0)  -->
<svg version="1.1" id="svgs" xmlns="http://www.w3.org/2000/svg" xmlns:xlink="http://www.w3.org/1999/xlink" x="0px" y="0px"
	 viewBox="0 0 200 200" style="enable-background:new 0 0 200 200;" xml:space="preserve">
<style type="text/css">
	.st0{fill:#95A1A8;}
</style>
<g id="cancel-x-btn">
	<path class="st0" d="M21.178,17.157c0.164,0.164,0.246,0.36,0.246,0.588c0,0.227-0.082,0.423-0.246,0.588
		c-0.165,0.164-0.368,0.246-0.61,0.246c-0.203,0-0.396-0.082-0.58-0.246l-5.791-5.791l-5.82,5.791
		c-0.164,0.164-0.353,0.246-0.565,0.246c-0.136,0-0.252-0.021-0.349-0.064c-0.097-0.045-0.188-0.105-0.275-0.182
		c-0.165-0.165-0.247-0.361-0.247-0.588c0-0.228,0.082-0.424,0.247-0.588l5.79-5.791l-5.79-5.805
		C7.109,5.484,7.05,5.392,7.006,5.285C6.962,5.179,6.94,5.068,6.94,4.952s0.021-0.228,0.065-0.334s0.104-0.203,0.182-0.29
		C7.352,4.163,7.55,4.081,7.782,4.081s0.431,0.082,0.595,0.247l5.82,5.849l5.791-5.849c0.164-0.165,0.362-0.247,0.595-0.247
		s0.431,0.082,0.596,0.247c0.077,0.087,0.135,0.184,0.174,0.29c0.038,0.106,0.058,0.218,0.058,0.334s-0.02,0.228-0.058,0.333
		c-0.039,0.107-0.097,0.199-0.174,0.276l-5.806,5.805L21.178,17.157z"/>
</g>
</svg>
