<?xml version="1.0" encoding="utf-8"?>
<!-- Generator: Adobe Illustrator 22.1.0, SVG Export Plug-In . SVG Version: 6.00 Build 0)  -->
<svg version="1.1" id="svgs" xmlns="http://www.w3.org/2000/svg" xmlns:xlink="http://www.w3.org/1999/xlink" x="0px" y="0px"
	 viewBox="0 0 200 200" style="enable-background:new 0 0 200 200;" xml:space="preserve">
<style type="text/css">
	.st0{fill:#0072C3;}
	.st1{fill:#FFFFFF;}
	.st2{fill:#19B3FF;}
	.st3{fill:none;stroke:#FFFFFF;stroke-width:1.5;stroke-miterlimit:10;}
	.st4{fill:none;stroke:#82979F;stroke-miterlimit:10;}
	.st5{fill:#ACB8C4;}
	.st6{fill:#D5DDE6;}
	.st7{fill:#DBE3EB;}
	.st8{clip-path:url(#SVGID_2_);}
	.st9{opacity:0.39;fill:url(#SVGID_3_);enable-background:new    ;}
	.st10{opacity:0.39;fill:url(#SVGID_4_);enable-background:new    ;}
	.st11{opacity:0.39;fill:url(#SVGID_5_);enable-background:new    ;}
	.st12{opacity:0.72;fill:url(#SVGID_6_);enable-background:new    ;}
	.st13{opacity:0.13;fill:url(#SVGID_7_);enable-background:new    ;}
	.st14{fill:#637787;}
	.st15{fill:none;stroke:#E0E8F1;stroke-width:1.5826;stroke-miterlimit:10;}
	.st16{fill:none;stroke:#E0E8F1;stroke-width:1.5826;stroke-miterlimit:10;stroke-dasharray:10.5002,3.0001;}
	.st17{fill:none;stroke:#E0E8F1;stroke-width:1.5826;stroke-miterlimit:10;stroke-dasharray:10.4505,2.9859;}
	.st18{fill:none;stroke:#E0E8F1;stroke-width:1.5826;stroke-miterlimit:10;stroke-dasharray:10.5126,3.0036;}
	.st19{fill:#E2EAF3;}
	.st20{fill:none;stroke:#E0E8F1;stroke-width:1.5826;stroke-miterlimit:10;stroke-dasharray:14,4;}
	.st21{fill:none;stroke:#FFFFFF;stroke-width:2.6779;stroke-miterlimit:10;}
	.st22{fill:none;stroke:#1EB8FF;stroke-width:3;stroke-linecap:square;stroke-linejoin:bevel;}
	.st23{fill:none;stroke:#1EB8FF;stroke-width:3;stroke-linecap:square;stroke-linejoin:bevel;stroke-dasharray:6.5109,10.8515;}
	.st24{fill:none;stroke:#1EB8FF;stroke-width:3;stroke-linecap:square;stroke-linejoin:bevel;stroke-dasharray:6.5102,10.8504;}
	.st25{fill:none;stroke:#1EB8FF;stroke-width:3;stroke-linecap:square;stroke-linejoin:bevel;stroke-dasharray:6.5101,10.8501;}
	.st26{fill:none;stroke:#1EB8FF;stroke-width:3;stroke-linecap:square;stroke-linejoin:bevel;stroke-dasharray:6.5107,10.8512;}
	.st27{fill:none;stroke:#43C4A6;stroke-width:2.3066;stroke-miterlimit:10;}
	.st28{fill:#F3F7FA;}
	.st29{fill:#1EB8FF;}
	.st30{fill:none;}
	.st31{fill:#00ADFE;}
	.st32{fill:#DAE2E8;}
	.st33{fill:#EBF7FF;}
	.st34{fill:#BACEDB;}
	.st35{fill:#C7DEED;}
	.st36{fill:#51D5FB;}
	.st37{fill:url(#SVGID_8_);}
	.st38{fill:#44B9DA;}
	.st39{fill:url(#SVGID_9_);}
	.st40{fill:url(#SVGID_10_);}
	.st41{fill:url(#SVGID_11_);}
	.st42{fill:url(#SVGID_12_);}
	.st43{fill:url(#SVGID_13_);}
	.st44{fill:url(#SVGID_14_);}
	.st45{fill:url(#SVGID_15_);}
	.st46{fill:url(#SVGID_16_);}
	.st47{fill:#3FACCB;}
	.st48{fill:url(#SVGID_17_);}
	.st49{fill:url(#SVGID_18_);}
	.st50{fill:url(#SVGID_19_);}
	.st51{fill:url(#SVGID_20_);}
	.st52{fill:url(#SVGID_21_);}
	.st53{fill:url(#SVGID_22_);}
	.st54{fill:url(#SVGID_23_);}
	.st55{fill:url(#SVGID_24_);}
	.st56{fill:url(#SVGID_25_);}
	.st57{fill:url(#SVGID_26_);}
	.st58{fill:url(#SVGID_27_);}
	.st59{fill:url(#SVGID_28_);}
	.st60{fill:url(#SVGID_29_);}
	.st61{fill:url(#SVGID_30_);}
	.st62{fill:url(#SVGID_31_);}
	.st63{fill:none;stroke:#ABCCD9;stroke-linecap:round;stroke-linejoin:round;stroke-miterlimit:10;}
	.st64{fill:url(#SVGID_32_);}
	.st65{fill:url(#SVGID_33_);}
	.st66{fill:url(#SVGID_34_);}
	.st67{fill:#43AFCE;}
	.st68{fill:url(#SVGID_35_);}
	.st69{fill:#37638E;}
	.st70{fill:url(#SVGID_36_);}
	.st71{fill:url(#SVGID_37_);}
	.st72{fill:none;stroke:#FFFFFF;stroke-width:2;stroke-miterlimit:10;}
	.st73{fill:#2EAFFF;}
</style>
<g id="next-arrow-btn">
	<polygon class="st0" points="140.9,11.9 59.6,11.9 59.6,51.5 140.9,51.5 153.1,31.7 	"/>
</g>
<g id="create-hex">
	<polygon class="st1" points="575.6,125 493.2,172.6 410.8,125 410.8,29.8 493.2,-17.7 575.6,29.8 	"/>
</g>
<g id="dropdown-check">
	<path class="st2" d="M14.6,43.1l-2.8-2.8c-0.5-0.6-0.5-1.5,0-2c0.6-0.6,1.5-0.6,2,0l1.8,1.8l4.4-4.4c0.5-0.6,1.5-0.6,2,0
		c0.5,0.5,0.5,1.5,0,2l-5.4,5.4c-0.3,0.3-0.6,0.4-1,0.4S14.9,43.4,14.6,43.1z"/>
</g>
<g id="whats-next">
	<line class="st3" x1="584.9" y1="298.4" x2="584.9" y2="410.8"/>
	<polyline class="st3" points="535.7,361.6 584.9,410.8 634,361.6 	"/>
	<rect x="410.8" y="241.9" class="st1" width="348.1" height="56.6"/>
</g>
<g id="next-process">
	<polyline class="st4" points="1024.3,47.9 986.3,85.9 954.9,85.9 	"/>
	<polyline class="st4" points="1046.1,163.4 1084.1,125.4 1115.5,125.4 	"/>
	<polyline class="st4" points="1024.3,317.9 986.3,355.9 954.9,355.9 	"/>
	<polyline class="st4" points="1046.1,433.4 1084.1,395.4 1115.5,395.4 	"/>
	<circle class="st5" cx="1188.6" cy="395.5" r="73.1"/>
	<g>
		<polygon class="st6" points="1240.1,391.7 1226.8,399.4 1213.4,391.7 1213.4,376.3 1226.8,368.6 1240.1,376.3 		"/>
		<polygon class="st1" points="1213.4,376.3 1226.8,384 1240.1,376.3 1226.8,368.6 		"/>
		<polygon class="st7" points="1226.8,384 1226.8,399.4 1213.4,391.7 1213.4,376.3 		"/>
	</g>
	<g>
		<polygon class="st6" points="1219.6,403.2 1189.9,420.3 1160.2,403.2 1160.2,368.8 1189.9,351.7 1219.6,368.8 		"/>
		<polygon class="st1" points="1160.2,368.8 1189.9,386 1219.6,368.8 1189.9,351.7 		"/>
		<polygon class="st7" points="1189.9,386 1189.9,420.3 1160.2,403.2 1160.2,368.8 		"/>
	</g>
	<g>
		<polygon class="st6" points="1163.8,413.3 1150.5,421 1137.1,413.3 1137.1,397.8 1150.5,390.1 1163.8,397.8 		"/>
		<polygon class="st1" points="1137.1,397.8 1150.5,405.5 1163.8,397.8 1150.5,390.1 		"/>
		<polygon class="st7" points="1150.5,405.5 1150.5,421 1137.1,413.3 1137.1,397.8 		"/>
	</g>
	<g>
		<polygon class="st6" points="1183.1,424.2 1169.8,431.9 1156.4,424.2 1156.4,408.8 1169.8,401.1 1183.1,408.8 		"/>
		<polygon class="st1" points="1156.4,408.8 1169.8,416.5 1183.1,408.8 1169.8,401.1 		"/>
		<polygon class="st7" points="1169.8,416.5 1169.8,431.9 1156.4,424.2 1156.4,408.8 		"/>
	</g>
	<circle class="st5" cx="881.8" cy="355.9" r="73.1"/>
	<polygon class="st6" points="916.8,383.1 881.8,403.3 846.8,383.1 846.8,342.6 881.8,322.4 916.8,342.6 	"/>
	<polygon class="st1" points="846.8,342.6 881.8,362.8 916.8,342.6 881.8,322.4 	"/>
	<polygon class="st7" points="881.8,362.8 881.8,403.3 846.8,383.1 846.8,342.6 	"/>
	<g>
		<polygon class="st6" points="854.1,342.6 881.8,358.6 881.8,326.6 		"/>
		<polygon class="st7" points="881.8,326.6 881.8,358.6 909.5,342.6 		"/>
	</g>
	<g>
		<g>
			<g>
				<g>
					<g>
						<g>
							<g>
								<g>
									<defs>
										<polygon id="SVGID_1_" points="854.1,342.6 881.8,358.6 909.5,342.6 909.5,287.4 854.1,287.4 										"/>
									</defs>
									<clipPath id="SVGID_2_">
										<use xlink:href="#SVGID_1_"  style="overflow:visible;"/>
									</clipPath>
									<g class="st8">
										<polygon class="st1" points="901.9,332.1 881.8,343.7 861.7,332.1 861.7,308.9 881.8,297.3 901.9,308.9 										"/>
										<polygon class="st1" points="861.7,308.9 881.8,320.5 901.9,308.9 881.8,297.3 										"/>
										<polygon class="st1" points="881.8,320.5 881.8,343.7 861.7,332.1 861.7,308.9 										"/>
									</g>
								</g>
							</g>
						</g>
					</g>
				</g>
			</g>
		</g>
	</g>
	
		<linearGradient id="SVGID_3_" gradientUnits="userSpaceOnUse" x1="899.75" y1="-117.9706" x2="899.75" y2="-68.249" gradientTransform="matrix(1 0 0 -1 0 202)">
		<stop  offset="0" style="stop-color:#FFFFFF"/>
		<stop  offset="1" style="stop-color:#FFFFFF;stop-opacity:0"/>
	</linearGradient>
	<polygon class="st9" points="902.4,241.5 897.1,244.6 897.1,329.7 902.4,326.6 	"/>
	
		<linearGradient id="SVGID_4_" gradientUnits="userSpaceOnUse" x1="875.1" y1="-119.0359" x2="875.1" y2="-69.3144" gradientTransform="matrix(1 0 0 -1 0 202)">
		<stop  offset="0" style="stop-color:#FFFFFF"/>
		<stop  offset="1" style="stop-color:#FFFFFF;stop-opacity:0"/>
	</linearGradient>
	<polygon class="st10" points="877.8,242.6 872.4,245.7 872.4,330.8 877.8,327.7 	"/>
	
		<linearGradient id="SVGID_5_" gradientUnits="userSpaceOnUse" x1="870.45" y1="-114.7055" x2="870.45" y2="-62.2587" gradientTransform="matrix(1 0 0 -1 0 202)">
		<stop  offset="0" style="stop-color:#FFFFFF"/>
		<stop  offset="1" style="stop-color:#FFFFFF;stop-opacity:0"/>
	</linearGradient>
	<polygon class="st11" points="876.6,234 864.3,241.9 864.3,327 876.6,319.1 	"/>
	
		<linearGradient id="SVGID_6_" gradientUnits="userSpaceOnUse" x1="864.3" y1="-100.974" x2="864.3" y2="-50.6974" gradientTransform="matrix(1 0 0 -1 0 202)">
		<stop  offset="0" style="stop-color:#FFFFFF"/>
		<stop  offset="1" style="stop-color:#FFFFFF;stop-opacity:0"/>
	</linearGradient>
	<polygon class="st12" points="867,248.3 861.6,251.4 861.6,309.8 867,306.7 	"/>
	
		<linearGradient id="SVGID_7_" gradientUnits="userSpaceOnUse" x1="-3059.9749" y1="-119.2121" x2="-3059.9749" y2="-70.2812" gradientTransform="matrix(-1 0 0 -1 -2167.5249 202)">
		<stop  offset="0" style="stop-color:#FFFFFF"/>
		<stop  offset="1" style="stop-color:#FFFFFF;stop-opacity:0"/>
	</linearGradient>
	<polygon class="st13" points="887.8,244 897.1,247.8 897.1,330.8 887.8,327 	"/>
	<circle class="st14" cx="1035.2" cy="445.8" r="18.5"/>
	<circle class="st14" cx="1035.2" cy="311.3" r="18.5"/>
	<circle class="st14" cx="1035.2" cy="176.8" r="18.5"/>
	<circle class="st14" cx="1035.2" cy="42.4" r="18.5"/>
	<path class="st1" d="M1034.8,39.1l-2.2,2.3l-1.6-1.7l4.2-4.2h2.5v13.3h-2.8L1034.8,39.1L1034.8,39.1z"/>
	<path class="st1" d="M1029.7,181c5.5-4,7.1-5.4,7.1-7c0-1.2-1.1-1.7-2.2-1.7c-1.5,0-2.7,0.6-3.6,1.5l-1.6-1.9
		c1.3-1.5,3.3-2.2,5.1-2.2c2.8,0,5.1,1.6,5.1,4.3c0,2.3-1.9,4.3-5.5,6.8h5.6v2.5h-10V181z"/>
	<path class="st1" d="M1030.9,314.7c0.9,1,2.4,1.5,3.7,1.5c1.6,0,2.5-0.7,2.5-1.7c0-1.1-0.8-1.6-2.7-1.6c-0.6,0-1.5,0-1.7,0v-2.5
		c0.2,0,1.2,0,1.7,0c1.5,0,2.5-0.5,2.5-1.5c0-1.1-1.1-1.6-2.5-1.6c-1.3,0-2.5,0.5-3.4,1.4l-1.4-1.8c1.1-1.2,2.8-2.1,5.1-2.1
		c3.1,0,5,1.4,5,3.6c0,1.7-1.4,2.8-2.9,3c1.4,0.1,3.1,1.2,3.1,3.2c0,2.3-2.1,3.9-5.3,3.9c-2.5,0-4.3-0.9-5.3-2.1L1030.9,314.7z"/>
	<path class="st1" d="M1035.8,450.6h-6.4v-2.2l5.3-8.3h3.9v8.1h1.7v2.5h-1.7v2.8h-2.8V450.6L1035.8,450.6z M1032.2,448.1h3.6v-5.6
		L1032.2,448.1z"/>
	<circle class="st5" cx="1188.6" cy="125.5" r="73.1"/>
	<g id="hex-platform_1_">
		<g id="_x3E_bg_1_">
			<g>
				<polyline class="st15" points="1227.9,140.4 1227.9,147.4 1221.8,150.9 				"/>
				<line class="st16" x1="1219.2" y1="152.4" x2="1197.1" y2="165.1"/>
				<polyline class="st15" points="1195.8,165.8 1189.8,169.3 1183.7,165.8 				"/>
				<line class="st17" x1="1181.1" y1="164.3" x2="1159.1" y2="151.6"/>
				<polyline class="st15" points="1157.8,150.9 1151.8,147.4 1151.8,140.4 				"/>
				<line class="st18" x1="1151.8" y1="137.4" x2="1151.8" y2="111.9"/>
				<polyline class="st15" points="1151.8,110.4 1151.8,103.4 1157.8,99.9 				"/>
				<line class="st17" x1="1160.4" y1="98.4" x2="1182.4" y2="85.7"/>
				<polyline class="st15" points="1183.7,84.9 1189.8,81.4 1195.8,84.9 				"/>
				<line class="st16" x1="1198.4" y1="86.4" x2="1220.5" y2="99.1"/>
				<polyline class="st15" points="1221.8,99.9 1227.9,103.4 1227.9,110.4 				"/>
				<line class="st18" x1="1227.9" y1="113.4" x2="1227.9" y2="138.9"/>
			</g>
		</g>
		<g id="logo-horizontal_1_">
			<g>
				<polygon class="st1" points="1208.4,145.3 1189.6,154.9 1170.3,145.1 1189.1,135.3 				"/>
				<polygon class="st19" points="1200.4,141.2 1189.3,146.9 1178,141 1189.1,135.3 				"/>
				<polygon class="st6" points="1189.6,154.9 1208.4,145.3 1208.4,148.1 1189.6,157.7 				"/>
				<polygon class="st7" points="1189.6,154.9 1170.3,145.1 1170.3,147.9 1189.6,157.7 				"/>
			</g>
			<g>
				<polygon class="st6" points="1189.8,139.2 1205.1,131.4 1205.1,133.6 1189.8,141.5 				"/>
				<polygon class="st7" points="1189.8,139.2 1174.4,131.4 1174.4,133.6 1189.8,141.5 				"/>
				<polygon class="st1" points="1205.1,131.4 1189.8,139.2 1174.4,131.4 1189.8,123.5 				"/>
				<polygon class="st19" points="1201.1,129.2 1189.8,135.1 1178.5,129.2 1189.8,123.5 				"/>
			</g>
			<g>
				<polygon class="st6" points="1189.8,126.9 1208.4,117.3 1208.4,120.2 1189.8,129.7 				"/>
				<polygon class="st7" points="1189.8,126.9 1171.1,117.3 1171.1,120.2 1189.8,129.7 				"/>
				<polygon class="st1" points="1208.4,117.3 1189.8,126.9 1171.1,117.3 1189.8,107.8 				"/>
				<polygon class="st19" points="1203.5,114.8 1189.8,121.9 1176,114.8 1189.8,107.8 				"/>
			</g>
			<g>
				<polygon class="st1" points="1208.4,102.5 1189.6,112.2 1170.8,102.5 1189.6,92.9 				"/>
				<polygon class="st6" points="1189.6,112.2 1208.4,102.5 1208.4,105.5 1189.6,115.2 				"/>
				<polygon class="st7" points="1189.6,112.2 1170.8,102.5 1170.8,105.5 1189.6,115.2 				"/>
			</g>
		</g>
	</g>
	<path class="st20" d="M1208.4,114.8"/>
	<circle class="st5" cx="881.8" cy="85.9" r="73.1"/>
	<polygon class="st6" points="905.2,99.4 881.8,112.9 858.4,99.4 858.4,72.4 881.8,58.9 905.2,72.4 	"/>
	<polygon class="st1" points="858.4,72.4 881.8,85.9 905.2,72.4 881.8,58.9 	"/>
	<polygon class="st7" points="881.8,85.9 881.8,112.9 858.4,99.4 858.4,72.4 	"/>
	<line class="st15" x1="881.8" y1="53.7" x2="881.8" y2="41.4"/>
	<line class="st15" x1="895.8" y1="56.8" x2="901" y2="45.7"/>
	<line class="st15" x1="867.8" y1="56.8" x2="862.6" y2="45.7"/>
	<line class="st15" x1="881.8" y1="118.1" x2="881.8" y2="130.4"/>
	<line class="st15" x1="895.8" y1="115" x2="901" y2="126.2"/>
	<line class="st15" x1="867.8" y1="115" x2="862.6" y2="126.2"/>
	<line class="st15" x1="914" y1="85.9" x2="926.3" y2="85.9"/>
	<line class="st15" x1="910.9" y1="99.9" x2="922" y2="105.1"/>
	<line class="st15" x1="910.9" y1="71.9" x2="922" y2="66.7"/>
	<line class="st15" x1="849.6" y1="85.9" x2="837.3" y2="85.9"/>
	<line class="st15" x1="852.7" y1="99.9" x2="841.5" y2="105.1"/>
	<line class="st15" x1="852.7" y1="71.9" x2="841.5" y2="66.7"/>
</g>
<g id="gray-smiler">
	<circle class="st14" cx="686.3" cy="85.9" r="18.5"/>
	<path class="st21" d="M674.6,91.9c2.2,4.3,6.6,7.2,11.7,7.2s9.5-2.9,11.7-7.2"/>
	<circle class="st1" cx="698.7" cy="80.5" r="2.2"/>
	<circle class="st1" cx="673.9" cy="80.5" r="2.2"/>
</g>
<g id="no-provider-illo">
	<polygon class="st1" points="294.7,369.1 237.7,402 180.7,369.1 180.7,303.2 237.7,270.3 294.7,303.2 	"/>
	<g>
		<g>
			<polyline class="st22" points="312.5,376.3 312.5,379.3 309.9,380.8 			"/>
			<line class="st23" x1="300.5" y1="386.2" x2="245" y2="418.2"/>
			<polyline class="st22" points="240.3,420.9 237.7,422.4 235.1,420.9 			"/>
			<line class="st24" x1="225.7" y1="415.5" x2="170.3" y2="383.5"/>
			<polyline class="st22" points="165.6,380.8 163,379.3 163,376.3 			"/>
			<line class="st25" x1="163" y1="365.4" x2="163" y2="301.4"/>
			<polyline class="st22" points="163,296 163,293 165.6,291.5 			"/>
			<line class="st25" x1="175" y1="286.1" x2="230.4" y2="254.1"/>
			<polyline class="st22" points="235.1,251.4 237.7,249.9 240.3,251.4 			"/>
			<line class="st26" x1="249.7" y1="256.8" x2="305.2" y2="288.8"/>
			<polyline class="st22" points="309.9,291.5 312.5,293 312.5,296 			"/>
			<line class="st25" x1="312.5" y1="306.9" x2="312.5" y2="370.9"/>
		</g>
	</g>
	<path class="st27" d="M238.2,359"/>
	<path class="st27" d="M237.7,315.8"/>
	<path class="st27" d="M216.8,337.4"/>
	<path class="st27" d="M260,337.4"/>
	<polygon class="st28" points="294.7,303.2 237.3,332.3 237.3,402 294.7,369.1 	"/>
	<circle class="st29" cx="312.5" cy="379.3" r="12.7"/>
	<circle class="st30" cx="162.9" cy="379.3" r="12.7"/>
	<polygon class="st1" points="312.5,370.3 314.5,376.5 321,376.5 315.7,380.4 317.8,386.6 312.5,382.7 307.2,386.6 309.2,380.4 
		303.9,376.5 310.4,376.5 	"/>
</g>
<g id="new-custom">
	<polygon class="st31" points="263.5,42.4 245,53 226.5,42.4 226.5,21 245,10.4 263.5,21 	"/>
	<polygon class="st1" points="257.1,38.7 245,45.7 232.9,38.7 232.9,24.7 245,17.7 257.1,24.7 	"/>
	<polygon class="st31" points="251.4,35.4 245,39.1 238.6,35.4 238.6,28 245,24.3 251.4,28 	"/>
</g>
<g id="lil-city">
	<g>
		<polygon class="st32" points="62,563.3 172.9,594.8 62,616.7 -49,594.8 		"/>
	</g>
	<polygon class="st33" points="62,538.3 172.9,560.2 62,582.1 -49,560.2 	"/>
	<polygon class="st34" points="62,606 172.9,584 172.9,560.2 62,582.1 	"/>
	<polygon class="st35" points="62,606 -49,584 -49,560.2 62,582.1 	"/>
	<polygon class="st36" points="7.5,550.2 3.7,548.9 7.5,547.6 12.8,547.6 16.6,548.9 12.8,550.2 	"/>
	
		<linearGradient id="SVGID_8_" gradientUnits="userSpaceOnUse" x1="9.0696" y1="-352.104" x2="11.2975" y2="-358.8807" gradientTransform="matrix(1 0 0 -1 0 200)">
		<stop  offset="4.800000e-03" style="stop-color:#39A1CB"/>
		<stop  offset="1" style="stop-color:#284969"/>
	</linearGradient>
	<rect x="7.5" y="550.2" class="st37" width="5.4" height="10.4"/>
	<polygon class="st38" points="7.5,550.2 3.7,548.9 3.7,559.3 7.5,560.6 	"/>
	
		<linearGradient id="SVGID_9_" gradientUnits="userSpaceOnUse" x1="13.7898" y1="-351.922" x2="15.7028" y2="-357.7406" gradientTransform="matrix(1 0 0 -1 0 200)">
		<stop  offset="0" style="stop-color:#3C7FAA"/>
		<stop  offset="1" style="stop-color:#304669"/>
	</linearGradient>
	<polygon class="st39" points="12.8,550.2 16.6,548.9 16.6,559.3 12.8,560.6 	"/>
	<polygon class="st36" points="24.9,492.4 21.2,491.1 24.9,489.8 30.3,489.8 34.1,491.1 30.3,492.4 	"/>
	
		<linearGradient id="SVGID_10_" gradientUnits="userSpaceOnUse" x1="23.5426" y1="-302.1591" x2="32.0132" y2="-327.924" gradientTransform="matrix(1 0 0 -1 0 200)">
		<stop  offset="4.800000e-03" style="stop-color:#39A1CB"/>
		<stop  offset="1" style="stop-color:#284969"/>
	</linearGradient>
	<rect x="24.9" y="492.4" class="st40" width="5.4" height="44.4"/>
	<polygon class="st38" points="24.9,492.4 21.2,491.1 21.2,535.5 24.9,536.8 	"/>
	
		<linearGradient id="SVGID_11_" gradientUnits="userSpaceOnUse" x1="28.2619" y1="-301.9774" x2="36.4175" y2="-326.784" gradientTransform="matrix(1 0 0 -1 0 200)">
		<stop  offset="0" style="stop-color:#3C7FAA"/>
		<stop  offset="1" style="stop-color:#304669"/>
	</linearGradient>
	<polygon class="st41" points="30.3,492.4 34.1,491.1 34.1,535.5 30.3,536.8 	"/>
	<polygon class="st36" points="19.6,514.2 15.8,513 19.6,511.7 25,511.7 28.7,513 25,514.2 	"/>
	
		<linearGradient id="SVGID_12_" gradientUnits="userSpaceOnUse" x1="18.1977" y1="-324.0226" x2="26.6683" y2="-349.7874" gradientTransform="matrix(1 0 0 -1 0 200)">
		<stop  offset="4.800000e-03" style="stop-color:#39A1CB"/>
		<stop  offset="1" style="stop-color:#284969"/>
	</linearGradient>
	<rect x="19.6" y="514.2" class="st42" width="5.4" height="44.4"/>
	<polygon class="st38" points="19.6,514.2 15.8,513 15.8,557.4 19.6,558.6 	"/>
	
		<linearGradient id="SVGID_13_" gradientUnits="userSpaceOnUse" x1="22.9178" y1="-323.8408" x2="31.0734" y2="-348.6473" gradientTransform="matrix(1 0 0 -1 0 200)">
		<stop  offset="0" style="stop-color:#3C7FAA"/>
		<stop  offset="1" style="stop-color:#304669"/>
	</linearGradient>
	<polygon class="st43" points="25,514.2 28.7,513 28.7,557.4 25,558.6 	"/>
	<polygon class="st36" points="15.7,538.6 11.9,537.4 15.7,536.1 21.1,536.1 24.9,537.4 21.1,538.6 	"/>
	
		<linearGradient id="SVGID_14_" gradientUnits="userSpaceOnUse" x1="16.1795" y1="-343.5732" x2="20.7817" y2="-357.5715" gradientTransform="matrix(1 0 0 -1 0 200)">
		<stop  offset="4.800000e-03" style="stop-color:#39A1CB"/>
		<stop  offset="1" style="stop-color:#284969"/>
	</linearGradient>
	<rect x="15.7" y="538.7" class="st44" width="5.4" height="23.3"/>
	<polygon class="st38" points="15.7,538.7 11.9,537.4 11.9,560.7 15.7,562 	"/>
	
		<linearGradient id="SVGID_15_" gradientUnits="userSpaceOnUse" x1="20.8993" y1="-343.3914" x2="25.1864" y2="-356.4314" gradientTransform="matrix(1 0 0 -1 0 200)">
		<stop  offset="0" style="stop-color:#3C7FAA"/>
		<stop  offset="1" style="stop-color:#304669"/>
	</linearGradient>
	<polygon class="st45" points="21.1,538.7 24.9,537.4 24.9,560.7 21.1,562 	"/>
	<polygon class="st36" points="32.5,503 28.7,501.7 32.5,500.4 37.8,500.4 41.6,501.7 37.8,503 	"/>
	
		<linearGradient id="SVGID_16_" gradientUnits="userSpaceOnUse" x1="29.7701" y1="-316.1359" x2="40.9254" y2="-350.0664" gradientTransform="matrix(1 0 0 -1 0 200)">
		<stop  offset="4.800000e-03" style="stop-color:#39A1CB"/>
		<stop  offset="1" style="stop-color:#284969"/>
	</linearGradient>
	<rect x="32.5" y="503" class="st46" width="5.4" height="59"/>
	<polygon class="st47" points="32.5,503 28.7,501.7 28.7,560.7 32.5,562 	"/>
	
		<linearGradient id="SVGID_17_" gradientUnits="userSpaceOnUse" x1="34.4893" y1="-315.9543" x2="45.3295" y2="-348.9266" gradientTransform="matrix(1 0 0 -1 0 200)">
		<stop  offset="0" style="stop-color:#3C7FAA"/>
		<stop  offset="1" style="stop-color:#304669"/>
	</linearGradient>
	<polygon class="st48" points="37.8,503 41.6,501.7 41.6,560.7 37.8,562 	"/>
	<polygon class="st36" points="23.4,532.4 19.6,531.2 23.4,529.9 28.7,529.9 32.5,531.2 28.7,532.4 	"/>
	
		<linearGradient id="SVGID_18_" gradientUnits="userSpaceOnUse" x1="23.1818" y1="-339.0993" x2="29.1618" y2="-357.2884" gradientTransform="matrix(1 0 0 -1 0 200)">
		<stop  offset="4.800000e-03" style="stop-color:#428BBC"/>
		<stop  offset="1" style="stop-color:#38527A"/>
	</linearGradient>
	<rect x="23.4" y="532.4" class="st49" width="5.4" height="30.8"/>
	<polygon class="st47" points="23.4,532.4 19.6,531.2 19.6,562 23.4,563.3 	"/>
	
		<linearGradient id="SVGID_19_" gradientUnits="userSpaceOnUse" x1="27.902" y1="-338.9174" x2="33.567" y2="-356.1482" gradientTransform="matrix(1 0 0 -1 0 200)">
		<stop  offset="0" style="stop-color:#3C7FAA"/>
		<stop  offset="1" style="stop-color:#304669"/>
	</linearGradient>
	<polygon class="st50" points="28.7,532.4 32.5,531.2 32.5,562 28.7,563.3 	"/>
	<polygon class="st36" points="50.5,549 46.7,547.7 50.5,546.5 55.8,546.5 59.6,547.7 55.8,549 	"/>
	
		<linearGradient id="SVGID_20_" gradientUnits="userSpaceOnUse" x1="51.8529" y1="-351.4927" x2="54.5181" y2="-359.5996" gradientTransform="matrix(1 0 0 -1 0 200)">
		<stop  offset="4.800000e-03" style="stop-color:#39A1CB"/>
		<stop  offset="1" style="stop-color:#284969"/>
	</linearGradient>
	<rect x="50.5" y="549" class="st51" width="5.4" height="12.8"/>
	<polygon class="st38" points="50.5,549 46.7,547.7 46.7,560.5 50.5,561.8 	"/>
	
		<linearGradient id="SVGID_21_" gradientUnits="userSpaceOnUse" x1="56.5725" y1="-351.3109" x2="58.9228" y2="-358.4597" gradientTransform="matrix(1 0 0 -1 0 200)">
		<stop  offset="0" style="stop-color:#3C7FAA"/>
		<stop  offset="1" style="stop-color:#304669"/>
	</linearGradient>
	<polygon class="st52" points="55.8,549 59.6,547.7 59.6,560.5 55.8,561.8 	"/>
	<polygon class="st36" points="41.6,523 37.8,521.7 41.6,520.5 47,520.5 50.7,521.7 47,523 	"/>
	
		<linearGradient id="SVGID_22_" gradientUnits="userSpaceOnUse" x1="40.5664" y1="-331.861" x2="48.2738" y2="-355.3042" gradientTransform="matrix(1 0 0 -1 0 200)">
		<stop  offset="0" style="stop-color:#4689B4"/>
		<stop  offset="1" style="stop-color:#284969"/>
	</linearGradient>
	<rect x="41.6" y="523" class="st53" width="5.4" height="40.2"/>
	<polygon class="st47" points="41.6,523 37.8,521.7 37.8,562 41.6,563.3 	"/>
	
		<linearGradient id="SVGID_23_" gradientUnits="userSpaceOnUse" x1="45.2866" y1="-331.679" x2="52.679" y2="-354.1641" gradientTransform="matrix(1 0 0 -1 0 200)">
		<stop  offset="0" style="stop-color:#37638E"/>
		<stop  offset="1" style="stop-color:#284969"/>
	</linearGradient>
	<polygon class="st54" points="47,523 50.7,521.7 50.7,562 47,563.3 	"/>
	
		<linearGradient id="SVGID_24_" gradientUnits="userSpaceOnUse" x1="81.0097" y1="-344.9174" x2="86.4806" y2="-361.5581" gradientTransform="matrix(1 0 0 -1 0 200)">
		<stop  offset="4.800000e-03" style="stop-color:#51D5FB"/>
		<stop  offset="1" style="stop-color:#428BBC"/>
	</linearGradient>
	<path class="st55" d="M89,536.3l-0.6,30c0,0-12.9-2.1-12.1-2.9C77.1,562.7,89,536.3,89,536.3z"/>
	
		<linearGradient id="SVGID_25_" gradientUnits="userSpaceOnUse" x1="95.4335" y1="-342.0668" x2="100.9044" y2="-358.7076" gradientTransform="matrix(1 0 0 -1 0 200)">
		<stop  offset="4.800000e-03" style="stop-color:#51D5FB"/>
		<stop  offset="1" style="stop-color:#428BBC"/>
	</linearGradient>
	<path class="st56" d="M103.4,533.4l-0.6,30c0,0-12.9-2.1-12.1-2.9C91.5,559.8,103.4,533.4,103.4,533.4z"/>
	
		<linearGradient id="SVGID_26_" gradientUnits="userSpaceOnUse" x1="109.8585" y1="-339.216" x2="115.3294" y2="-355.8565" gradientTransform="matrix(1 0 0 -1 0 200)">
		<stop  offset="4.800000e-03" style="stop-color:#51D5FB"/>
		<stop  offset="1" style="stop-color:#428BBC"/>
	</linearGradient>
	<path class="st57" d="M117.9,530.6l-0.6,30c0,0-12.9-2.1-12.1-2.9C105.9,557,117.9,530.6,117.9,530.6z"/>
	
		<linearGradient id="SVGID_27_" gradientUnits="userSpaceOnUse" x1="117.2803" y1="-337.1579" x2="123.0983" y2="-354.8543" gradientTransform="matrix(1 0 0 -1 0 200)">
		<stop  offset="0" style="stop-color:#3C7FAA"/>
		<stop  offset="1" style="stop-color:#304669"/>
	</linearGradient>
	<polygon class="st58" points="117.9,530.6 131.7,557.7 117.3,560.6 	"/>
	
		<linearGradient id="SVGID_28_" gradientUnits="userSpaceOnUse" x1="102.8559" y1="-340.0087" x2="108.6739" y2="-357.7051" gradientTransform="matrix(1 0 0 -1 0 200)">
		<stop  offset="0" style="stop-color:#3C7FAA"/>
		<stop  offset="1" style="stop-color:#304669"/>
	</linearGradient>
	<polygon class="st59" points="103.4,533.4 117.3,560.6 102.9,563.4 	"/>
	
		<linearGradient id="SVGID_29_" gradientUnits="userSpaceOnUse" x1="88.4315" y1="-342.8594" x2="94.2495" y2="-360.5558" gradientTransform="matrix(1 0 0 -1 0 200)">
		<stop  offset="0" style="stop-color:#3C7FAA"/>
		<stop  offset="1" style="stop-color:#304669"/>
	</linearGradient>
	<polygon class="st60" points="89,536.3 102.9,563.4 88.4,566.3 	"/>
	<path class="st36" d="M110.1,549"/>
	<polygon class="st36" points="32.7,554 28.9,552.7 32.7,551.4 38,551.4 41.8,552.7 38,554 	"/>
	
		<linearGradient id="SVGID_30_" gradientUnits="userSpaceOnUse" x1="34.2743" y1="-355.8873" x2="36.5023" y2="-362.664" gradientTransform="matrix(1 0 0 -1 0 200)">
		<stop  offset="4.800000e-03" style="stop-color:#39A1CB"/>
		<stop  offset="1" style="stop-color:#284969"/>
	</linearGradient>
	<rect x="32.7" y="554" class="st61" width="5.4" height="10.4"/>
	<polygon class="st38" points="32.7,554 28.9,552.7 28.9,563.1 32.7,564.3 	"/>
	
		<linearGradient id="SVGID_31_" gradientUnits="userSpaceOnUse" x1="38.9948" y1="-355.7053" x2="40.9077" y2="-361.5238" gradientTransform="matrix(1 0 0 -1 0 200)">
		<stop  offset="0" style="stop-color:#3C7FAA"/>
		<stop  offset="1" style="stop-color:#304669"/>
	</linearGradient>
	<polygon class="st62" points="38,554 41.8,552.7 41.8,563.1 38,564.3 	"/>
	<path class="st63" d="M60.6,507.2"/>
	
		<linearGradient id="SVGID_32_" gradientUnits="userSpaceOnUse" x1="70.6886" y1="-335.6375" x2="61.2362" y2="-266.9506" gradientTransform="matrix(1 0 0 -1 0 200)">
		<stop  offset="0" style="stop-color:#3D9AB2"/>
		<stop  offset="1" style="stop-color:#246F9D"/>
	</linearGradient>
	<polygon class="st64" points="61.6,469.4 49.6,475.6 47.5,489.5 64,518.4 63.9,518.4 79.8,527.4 79.8,479.7 	"/>
	
		<linearGradient id="SVGID_33_" gradientUnits="userSpaceOnUse" x1="67.3855" y1="-302.6906" x2="62.6143" y2="-268.0194" gradientTransform="matrix(1 0 0 -1 0 200)">
		<stop  offset="0" style="stop-color:#3D9AB2"/>
		<stop  offset="1" style="stop-color:#246F9D"/>
	</linearGradient>
	<polygon class="st65" points="49.6,475.6 64,499.6 79.8,490.7 61.6,469.4 	"/>
	
		<linearGradient id="SVGID_34_" gradientUnits="userSpaceOnUse" x1="67.7356" y1="-250.1442" x2="84.9477" y2="-276.995" gradientTransform="matrix(1 0 0 -1 0 200)">
		<stop  offset="0" style="stop-color:#B7ECFB"/>
		<stop  offset="1" style="stop-color:#31CAF6"/>
	</linearGradient>
	<polygon class="st66" points="71.3,453.5 57,466.9 79.8,479.7 100.5,467.9 	"/>
	<polygon class="st47" points="61.6,469.4 79.8,490.7 87.7,475.2 	"/>
	<polygon class="st67" points="71.3,453.5 61.6,469.4 49.6,475.6 57,466.9 	"/>
	
		<linearGradient id="SVGID_35_" gradientUnits="userSpaceOnUse" x1="97.5817" y1="-273.0699" x2="91.3853" y2="-306.1171" gradientTransform="matrix(1 0 0 -1 0 200)">
		<stop  offset="0" style="stop-color:#448EC1"/>
		<stop  offset="1" style="stop-color:#263854"/>
	</linearGradient>
	<polygon class="st68" points="100.5,467.9 100.5,467.9 79.8,491 79.8,527.4 110.1,483.5 	"/>
	<polygon class="st69" points="79.8,490.7 64,499.6 64,518.4 79.8,527.4 87.3,502.7 	"/>
	
		<linearGradient id="SVGID_36_" gradientUnits="userSpaceOnUse" x1="97.4006" y1="-305.1514" x2="92.237" y2="-267.6291" gradientTransform="matrix(1 0 0 -1 0 200)">
		<stop  offset="0" style="stop-color:#3D9AB2"/>
		<stop  offset="1" style="stop-color:#246F9D"/>
	</linearGradient>
	<polygon class="st70" points="87.7,475.2 100.5,467.9 110.1,483.5 87.3,502.7 79.8,490.7 	"/>
	
		<linearGradient id="SVGID_37_" gradientUnits="userSpaceOnUse" x1="76.62" y1="-288.8534" x2="61.4734" y2="-312.9503" gradientTransform="matrix(1 0 0 -1 0 200)">
		<stop  offset="0" style="stop-color:#37638E"/>
		<stop  offset="1" style="stop-color:#284969"/>
	</linearGradient>
	<polygon class="st71" points="64,518.4 79.8,490.7 64,499.6 	"/>
	<polyline class="st72" points="236.3,525.9 200.6,575.5 157.5,575.5 	"/>
	<circle class="st1" cx="157.5" cy="575.5" r="3"/>
</g>
<g id="legacy-launch">
	<polygon class="st73" points="247.4,79.1 244.6,79.1 244.6,81.9 247.4,81.9 247.4,79.1 	"/>
	<polygon class="st73" points="253.4,79.1 250.6,79.1 250.6,81.9 253.4,81.9 253.4,79.1 	"/>
	<polygon class="st73" points="259.4,79.1 256.6,79.1 256.6,81.9 259.4,81.9 259.4,79.1 	"/>
	<polygon class="st73" points="265.3,79.1 262.6,79.1 262.6,81.9 265.3,81.9 265.3,79.1 	"/>
	<polygon class="st73" points="253.4,73.2 250.6,73.2 250.6,75.9 253.4,75.9 253.4,73.2 	"/>
	<polygon class="st73" points="259.4,73.2 256.6,73.2 256.6,75.9 259.4,75.9 259.4,73.2 	"/>
	<polygon class="st73" points="265.3,73.2 262.6,73.2 262.6,75.9 265.3,75.9 265.3,73.2 	"/>
	<polygon class="st73" points="265.3,66.8 262.6,66.8 262.6,69.6 265.3,69.6 265.3,66.8 	"/>
	<polygon class="st73" points="271.3,79.1 268.5,79.1 268.5,81.9 271.3,81.9 271.3,79.1 	"/>
	<polygon class="st73" points="279,98.4 279,89.3 283.5,93.8 	"/>
	<polygon class="st73" points="235.6,98.4 235.6,89.3 231.1,93.8 	"/>
	<path class="st73" d="M237.7,84.9v18.9H277V84.9H237.7z M247.1,96.6c-1.4,0-2.6-1.2-2.6-2.7c0-1.5,1.1-2.7,2.6-2.7
		c1.5,0,2.6,1.2,2.6,2.7C249.7,95.4,248.4,96.6,247.1,96.6z M257.5,100.7c-1.4,0-2.6-1.2-2.6-2.7h5.3
		C260.2,99.5,258.9,100.7,257.5,100.7z M268,96.6c-1.4,0-2.6-1.2-2.6-2.7c0-1.5,1.1-2.7,2.6-2.7c1.5,0,2.6,1.2,2.6,2.7
		C270.6,95.4,269.4,96.6,268,96.6z"/>
	<path class="st1" d="M244.6,101.7"/>
</g>
<g id="docker-launch">
	<path class="st73" d="M348.3,83.3c-0.3-2-1.5-3.6-3.1-4.8l-0.6-0.5l-0.5,0.6c-1,1.1-1.4,3.1-1.3,4.6c0.1,1.1,0.5,2.2,1.1,3.1
		c-0.5,0.2-0.8,1.2-5,1.2h-33.1c0,13.1,10.5,16,16.4,16c11.3,0,20.6-4.8,25-15.3c2.9,0.1,5.8-0.6,7.2-3.4l0.4-0.6L354,84
		C352.4,83,350.2,82.8,348.3,83.3L348.3,83.3z M315.9,97c-1.4,0-2.6-1.2-2.6-2.7c0-1.5,1.1-2.7,2.6-2.7s2.6,1.2,2.6,2.7
		C318.5,95.8,317.2,97,315.9,97L315.9,97z"/>
	<polygon class="st73" points="312.8,82.4 310,82.4 310,85.1 312.8,85.1 312.8,82.4 	"/>
	<polygon class="st73" points="318.8,82.4 316,82.4 316,85.1 318.8,85.1 318.8,82.4 	"/>
	<polygon class="st73" points="324.7,82.4 322,82.4 322,85.1 324.7,85.1 324.7,82.4 	"/>
	<polygon class="st73" points="330.7,82.4 327.9,82.4 327.9,85.1 330.7,85.1 330.7,82.4 	"/>
	<polygon class="st73" points="318.8,76.4 316,76.4 316,79.2 318.8,79.2 318.8,76.4 	"/>
	<polygon class="st73" points="324.7,76.4 322,76.4 322,79.2 324.7,79.2 324.7,76.4 	"/>
	<polygon class="st73" points="330.7,76.4 327.9,76.4 327.9,79.2 330.7,79.2 330.7,76.4 	"/>
	<polygon class="st73" points="330.7,70.1 327.9,70.1 327.9,72.8 330.7,72.8 330.7,70.1 	"/>
	<polygon class="st73" points="336.7,82.4 333.9,82.4 333.9,85.1 336.7,85.1 336.7,82.4 	"/>
</g>
</svg>
