<?xml version="1.0" encoding="iso-8859-1"?>
<!-- Generator: Adobe Illustrator 19.2.1, SVG Export Plug-In . SVG Version: 6.00 Build 0)  -->
<svg version="1.1" id="svgs" xmlns="http://www.w3.org/2000/svg" xmlns:xlink="http://www.w3.org/1999/xlink" x="0px" y="0px"
	 viewBox="0 0 200 200" style="enable-background:new 0 0 200 200;" xml:space="preserve">
<style type="text/css">
	.st0{fill:#95A1A8;}
	.st1{fill:#0072C3;}
	.st2{fill:#FFFFFF;}
	.st3{fill:none;stroke:#029ADB;stroke-width:2.5;stroke-miterlimit:10;}
	.st4{fill:#029ADB;}
	.st5{clip-path:url(#SVGID_2_);fill:none;stroke:#029ADB;stroke-width:1.6755;stroke-miterlimit:10;}
	.st6{clip-path:url(#SVGID_4_);fill:none;stroke:#029ADB;stroke-width:1.6755;stroke-miterlimit:10;}
	.st7{clip-path:url(#SVGID_6_);fill:none;stroke:#029ADB;stroke-width:1.6755;stroke-miterlimit:10;}
	.st8{clip-path:url(#SVGID_8_);fill:none;stroke:#029ADB;stroke-width:1.6755;stroke-miterlimit:10;}
	.st9{clip-path:url(#SVGID_10_);fill:none;stroke:#029ADB;stroke-width:1.6755;stroke-miterlimit:10;}
	.st10{clip-path:url(#SVGID_12_);fill:none;stroke:#029ADB;stroke-width:1.6755;stroke-miterlimit:10;}
	.st11{clip-path:url(#SVGID_14_);fill:none;stroke:#029ADB;stroke-width:1.6755;stroke-miterlimit:10;}
	.st12{clip-path:url(#SVGID_16_);fill:none;stroke:#029ADB;stroke-width:1.6755;stroke-miterlimit:10;}
	.st13{clip-path:url(#SVGID_18_);fill:none;stroke:#029ADB;stroke-width:1.6755;stroke-miterlimit:10;}
	.st14{clip-path:url(#SVGID_20_);fill:none;stroke:#029ADB;stroke-width:1.6755;stroke-miterlimit:10;}
	.st15{clip-path:url(#SVGID_22_);fill:none;stroke:#029ADB;stroke-width:1.6755;stroke-miterlimit:10;}
	.st16{clip-path:url(#SVGID_24_);fill:none;stroke:#029ADB;stroke-width:1.6755;stroke-miterlimit:10;}
	.st17{clip-path:url(#SVGID_26_);fill:none;stroke:#029ADB;stroke-width:1.6755;stroke-miterlimit:10;}
	.st18{clip-path:url(#SVGID_28_);fill:none;stroke:#029ADB;stroke-width:1.6755;stroke-miterlimit:10;}
	.st19{clip-path:url(#SVGID_30_);fill:none;stroke:#029ADB;stroke-width:1.6755;stroke-miterlimit:10;}
	.st20{fill:none;stroke:#029ADB;stroke-width:3;stroke-miterlimit:10;}
</style>
<g id="cancel-x-btn">
	<path class="st0" d="M21.178,17.157c0.164,0.164,0.246,0.36,0.246,0.588c0,0.227-0.082,0.423-0.246,0.588
		c-0.165,0.164-0.368,0.246-0.61,0.246c-0.203,0-0.396-0.082-0.58-0.246l-5.791-5.791l-5.82,5.791
		c-0.164,0.164-0.353,0.246-0.565,0.246c-0.136,0-0.252-0.021-0.349-0.064c-0.097-0.045-0.188-0.105-0.275-0.182
		c-0.165-0.165-0.247-0.361-0.247-0.588c0-0.228,0.082-0.424,0.247-0.588l5.79-5.791l-5.79-5.805
		C7.109,5.484,7.05,5.392,7.006,5.285C6.962,5.179,6.94,5.068,6.94,4.952s0.021-0.228,0.065-0.334s0.104-0.203,0.182-0.29
		C7.352,4.163,7.55,4.081,7.782,4.081s0.431,0.082,0.595,0.247l5.82,5.849l5.791-5.849c0.164-0.165,0.362-0.247,0.595-0.247
		s0.431,0.082,0.596,0.247c0.077,0.087,0.135,0.184,0.174,0.29c0.038,0.106,0.058,0.218,0.058,0.334s-0.02,0.228-0.058,0.333
		c-0.039,0.107-0.097,0.199-0.174,0.276l-5.806,5.805L21.178,17.157z"/>
</g>
<g id="back-x-btn">
	<path class="st0" d="M38.22,11.366l7.01-7.039c0.164-0.165,0.362-0.247,0.595-0.247s0.431,0.082,0.596,0.247
		c0.077,0.087,0.135,0.184,0.174,0.29c0.038,0.106,0.058,0.218,0.058,0.334s-0.02,0.228-0.058,0.333
		c-0.039,0.107-0.097,0.199-0.174,0.276l-5.806,5.805l5.806,5.791c0.164,0.164,0.246,0.36,0.246,0.588
		c0,0.227-0.082,0.423-0.246,0.588c-0.165,0.164-0.368,0.246-0.61,0.246c-0.203,0-0.396-0.082-0.58-0.246L38.22,11.366z"/>
</g>
<g id="next-arrow-btn">
	<polygon class="st1" points="140.934,11.898 59.602,11.881 59.602,51.525 140.934,51.525 153.124,31.711 	"/>
</g>
<g id="create-hex">
	<polygon class="st2" points="575.555,124.99 493.16,172.561 410.764,124.99 410.764,29.847 493.16,-17.724 575.555,29.847 	"/>
</g>
<g id="create-digital-ocean">
	<path class="st3" d="M268.16,23.99c-0.215-0.926-0.328-1.889-0.328-2.881c0-7.02,5.691-12.711,12.713-12.711
		c4.077-0.001,7.707,1.92,10.033,4.905"/>
	<path class="st3" d="M263.324,15.839c1.872-7.218,8.433-12.548,16.238-12.548c5.38-0.001,10.169,2.533,13.239,6.472"/>
	<path class="st3" d="M260.164,37.017c-2.507-1.061-4.267-3.544-4.267-6.438c0-3.859,3.128-6.987,6.987-6.987"/>
	<path class="st3" d="M256.06,40.699c-3.246-2.193-5.381-5.908-5.381-10.121c0-6.74,5.464-12.204,12.204-12.204"/>
	<path class="st3" d="M292.799,45.403c-2.344-0.99-4.453-2.059-6.405-3.049c-4.439-2.251-7.255-3.508-11.377-3.508
		c-7.184,0-9.983,2.208-14.038,5.278"/>
	<path class="st3" d="M295.492,35.687c4.237,1.913,8.974,3.446,15.285,3.446c2.092,0,4.138-0.805,5.892-1.849"/>
	<path class="st3" d="M263.907,36.45c0,0,5.395-3.115,10.419-3.115c11.845,0,18.573,10.79,36.451,10.79
		c8.312,0,14.548-7.675,14.548-7.675"/>
	<rect x="312.059" y="30.156" class="st4" width="4.255" height="4.255"/>
	<rect x="297.432" y="11.245" class="st4" width="5.746" height="5.746"/>
	<rect x="319.52" y="24.474" class="st4" width="5.746" height="5.746"/>
	<rect x="300.997" y="24.651" class="st4" width="4.255" height="4.255"/>
	<rect x="312.427" y="17.733" class="st4" width="4.255" height="4.255"/>
	<rect x="304.999" y="17.562" class="st4" width="4.255" height="4.255"/>
	<rect x="291.095" y="14.67" class="st4" width="4.255" height="4.255"/>
</g>
<g id="create-aws">
	<path id="path243_4_" class="st4" d="M298.99,103.595c-2.334,0-4.938,0.9-5.482,3.856c-0.057,0.313,0.152,0.465,0.35,0.509
		l2.391,0.288c0.221-0.013,0.373-0.252,0.416-0.478c0.203-1.018,1.041-1.499,1.975-1.499c0.504,0,1.07,0.173,1.371,0.638
		c0.342,0.518,0.318,1.22,0.318,1.816v0.352c-1.422,0.162-3.291,0.261-4.621,0.86c-1.535,0.681-2.611,2.07-2.611,4.109
		c0,2.614,1.6,3.919,3.662,3.919c1.742,0,2.705-0.41,4.047-1.818c0.445,0.665,0.588,0.965,1.4,1.659
		c0.184,0.096,0.414,0.086,0.576-0.066v0.034c0.488-0.448,1.377-1.259,1.877-1.69c0.201-0.167,0.158-0.441,0-0.668
		c-0.447-0.636-0.922-1.146-0.922-2.327v-3.917c0-1.661,0.141-3.189-1.053-4.334C301.746,103.914,300.178,103.595,298.99,103.595z
		 M300.119,110.817v0.542c0,0.979,0.037,1.804-0.443,2.676c-0.391,0.709-1.006,1.146-1.691,1.146c-0.938,0-1.496-0.76-1.496-1.847
		C296.488,111.191,298.35,110.817,300.119,110.817z"/>
	<polygon class="st4" points="305.121,104.324 309.164,103.868 310.793,112.928 312.684,104.063 316.336,104.063 318.16,112.864 
		319.853,103.802 323.633,104.324 319.529,117.621 315.943,117.621 314.379,109.788 314.379,108.365 314.053,108.365 
		314.053,109.788 312.357,117.621 308.707,117.621 	"/>
	<path class="st4" d="M334.236,104.651c0,0-2.281-1.304-4.562-1.304c-2.281,0-5.084,1.759-5.084,4.757
		c0,4.173,6.127,3.456,6.127,5.998c0,0.718-0.9,0.927-1.416,0.927c-1.203,0-4.221-1.596-4.221-1.596l-1.127,2.797
		c0,0,2.354,1.743,5.543,1.743c3.191,0,5.105-1.743,5.105-4.491c0-4.218-6.283-3.899-6.283-6.082c0-0.541,0.32-1.054,1.67-1.054
		c1.35,0,2.918,1.003,2.918,1.003L334.236,104.651z"/>
	<g>
		<defs>
			<polygon id="SVGID_1_" points="278.236,118.74 278.236,131.803 270.147,134.958 270.147,121.892 			"/>
		</defs>
		<clipPath id="SVGID_2_">
			<use xlink:href="#SVGID_1_"  style="overflow:visible;"/>
		</clipPath>
		<line class="st5" x1="269.56" y1="133.082" x2="278.453" y2="129.373"/>
		<line class="st5" x1="269.56" y1="130.076" x2="278.453" y2="126.369"/>
		<line class="st5" x1="269.56" y1="127.07" x2="278.453" y2="123.363"/>
		<line class="st5" x1="269.56" y1="124.064" x2="278.453" y2="120.356"/>
	</g>
	<g>
		<defs>
			<polygon id="SVGID_3_" points="268.914,123.063 260.772,119.143 260.326,129.15 268.992,133.708 			"/>
		</defs>
		<clipPath id="SVGID_4_">
			<use xlink:href="#SVGID_3_"  style="overflow:visible;"/>
		</clipPath>
		<line class="st6" x1="267.848" y1="135.194" x2="267.848" y2="121.851"/>
		<line class="st6" x1="265.025" y1="134.041" x2="265.025" y2="120.699"/>
		<line class="st6" x1="262.207" y1="132.22" x2="262.207" y2="119.59"/>
	</g>
	<g>
		<defs>
			<polygon id="SVGID_5_" points="272.688,114.738 279.258,117.783 269.1,121.975 262.49,119.037 			"/>
		</defs>
		<clipPath id="SVGID_6_">
			<use xlink:href="#SVGID_5_"  style="overflow:visible;"/>
		</clipPath>
		<line class="st7" x1="270.773" y1="122.156" x2="260.484" y2="117.326"/>
		<line class="st7" x1="274.223" y1="120.714" x2="263.932" y2="115.884"/>
		<line class="st7" x1="277.668" y1="119.272" x2="267.379" y2="114.441"/>
	</g>
	<g>
		<defs>
			<polygon id="SVGID_7_" points="288.008,102.33 288.008,115.394 279.916,118.548 279.916,105.483 			"/>
		</defs>
		<clipPath id="SVGID_8_">
			<use xlink:href="#SVGID_7_"  style="overflow:visible;"/>
		</clipPath>
		<line class="st8" x1="279.33" y1="116.672" x2="288.223" y2="112.964"/>
		<line class="st8" x1="279.33" y1="113.667" x2="288.223" y2="109.959"/>
		<line class="st8" x1="279.33" y1="110.661" x2="288.223" y2="106.953"/>
		<line class="st8" x1="279.33" y1="107.655" x2="288.223" y2="103.947"/>
	</g>
	<g>
		<defs>
			<polygon id="SVGID_9_" points="278.682,106.654 270.541,102.733 270.096,112.741 278.762,117.298 			"/>
		</defs>
		<clipPath id="SVGID_10_">
			<use xlink:href="#SVGID_9_"  style="overflow:visible;"/>
		</clipPath>
		<line class="st9" x1="277.615" y1="118.785" x2="277.615" y2="105.441"/>
		<line class="st9" x1="274.795" y1="117.631" x2="274.795" y2="104.289"/>
		<line class="st9" x1="271.977" y1="115.81" x2="271.977" y2="103.181"/>
	</g>
	<g>
		<defs>
			<polygon id="SVGID_11_" points="282.457,98.329 289.027,101.373 278.869,105.566 272.262,102.627 			"/>
		</defs>
		<clipPath id="SVGID_12_">
			<use xlink:href="#SVGID_11_"  style="overflow:visible;"/>
		</clipPath>
		<line class="st10" x1="280.545" y1="105.747" x2="270.254" y2="100.916"/>
		<line class="st10" x1="283.99" y1="104.305" x2="273.701" y2="99.474"/>
		<line class="st10" x1="287.438" y1="102.863" x2="277.148" y2="98.032"/>
	</g>
	<g>
		<defs>
			<polygon id="SVGID_13_" points="298.352,86.589 298.352,99.652 290.262,102.807 290.262,89.741 			"/>
		</defs>
		<clipPath id="SVGID_14_">
			<use xlink:href="#SVGID_13_"  style="overflow:visible;"/>
		</clipPath>
		<line class="st11" x1="289.676" y1="100.931" x2="298.568" y2="97.222"/>
		<line class="st11" x1="289.676" y1="97.925" x2="298.568" y2="94.218"/>
		<line class="st11" x1="289.676" y1="94.92" x2="298.568" y2="91.212"/>
		<line class="st11" x1="289.676" y1="91.914" x2="298.568" y2="88.206"/>
	</g>
	<g>
		<defs>
			<polygon id="SVGID_15_" points="289.027,90.913 280.887,86.993 280.439,97 289.107,101.557 			"/>
		</defs>
		<clipPath id="SVGID_16_">
			<use xlink:href="#SVGID_15_"  style="overflow:visible;"/>
		</clipPath>
		<line class="st12" x1="287.961" y1="103.043" x2="287.961" y2="89.7"/>
		<line class="st12" x1="285.141" y1="101.89" x2="285.141" y2="88.548"/>
		<line class="st12" x1="282.32" y1="100.069" x2="282.32" y2="87.439"/>
	</g>
	<g>
		<defs>
			<polygon id="SVGID_17_" points="292.801,82.587 299.373,85.632 289.215,89.825 282.605,86.886 			"/>
		</defs>
		<clipPath id="SVGID_18_">
			<use xlink:href="#SVGID_17_"  style="overflow:visible;"/>
		</clipPath>
		<line class="st13" x1="290.889" y1="90.005" x2="280.6" y2="85.175"/>
		<line class="st13" x1="294.336" y1="88.563" x2="284.045" y2="83.733"/>
		<line class="st13" x1="297.783" y1="87.122" x2="287.494" y2="82.291"/>
	</g>
	<g>
		<defs>
			<polygon id="SVGID_19_" points="316.912,86.589 316.912,99.652 308.822,102.807 308.822,89.741 			"/>
		</defs>
		<clipPath id="SVGID_20_">
			<use xlink:href="#SVGID_19_"  style="overflow:visible;"/>
		</clipPath>
		<line class="st14" x1="308.238" y1="100.931" x2="317.129" y2="97.222"/>
		<line class="st14" x1="308.238" y1="97.925" x2="317.129" y2="94.218"/>
		<line class="st14" x1="308.238" y1="94.92" x2="317.129" y2="91.212"/>
		<line class="st14" x1="308.238" y1="91.914" x2="317.129" y2="88.206"/>
	</g>
	<g>
		<defs>
			<polygon id="SVGID_21_" points="307.59,90.913 299.449,86.993 299,97 307.668,101.557 			"/>
		</defs>
		<clipPath id="SVGID_22_">
			<use xlink:href="#SVGID_21_"  style="overflow:visible;"/>
		</clipPath>
		<line class="st15" x1="306.523" y1="103.043" x2="306.523" y2="89.7"/>
		<line class="st15" x1="303.703" y1="101.89" x2="303.703" y2="88.548"/>
		<line class="st15" x1="300.883" y1="100.069" x2="300.883" y2="87.439"/>
	</g>
	<g>
		<defs>
			<polygon id="SVGID_23_" points="311.363,82.587 317.935,85.632 307.777,89.825 301.168,86.886 			"/>
		</defs>
		<clipPath id="SVGID_24_">
			<use xlink:href="#SVGID_23_"  style="overflow:visible;"/>
		</clipPath>
		<line class="st16" x1="309.451" y1="90.005" x2="299.162" y2="85.175"/>
		<line class="st16" x1="312.897" y1="88.563" x2="302.607" y2="83.733"/>
		<line class="st16" x1="316.346" y1="87.122" x2="306.055" y2="82.291"/>
	</g>
	<g>
		<defs>
			<polygon id="SVGID_25_" points="268.812,102.988 268.812,116.052 260.721,119.206 260.721,106.141 			"/>
		</defs>
		<clipPath id="SVGID_26_">
			<use xlink:href="#SVGID_25_"  style="overflow:visible;"/>
		</clipPath>
		<line class="st17" x1="260.135" y1="117.331" x2="269.029" y2="113.622"/>
		<line class="st17" x1="260.135" y1="114.325" x2="269.029" y2="110.617"/>
		<line class="st17" x1="260.135" y1="111.319" x2="269.029" y2="107.611"/>
		<line class="st17" x1="260.135" y1="108.312" x2="269.029" y2="104.604"/>
	</g>
	<g>
		<defs>
			<polygon id="SVGID_27_" points="259.488,107.312 251.348,103.392 250.9,113.399 259.566,117.956 			"/>
		</defs>
		<clipPath id="SVGID_28_">
			<use xlink:href="#SVGID_27_"  style="overflow:visible;"/>
		</clipPath>
		<line class="st18" x1="258.422" y1="119.442" x2="258.422" y2="106.1"/>
		<line class="st18" x1="255.6" y1="118.289" x2="255.6" y2="104.946"/>
		<line class="st18" x1="252.783" y1="116.468" x2="252.783" y2="103.838"/>
	</g>
	<g>
		<defs>
			<polygon id="SVGID_29_" points="263.262,98.986 269.834,102.031 259.676,106.224 253.066,103.285 			"/>
		</defs>
		<clipPath id="SVGID_30_">
			<use xlink:href="#SVGID_29_"  style="overflow:visible;"/>
		</clipPath>
		<line class="st19" x1="261.35" y1="106.404" x2="251.059" y2="101.574"/>
		<line class="st19" x1="264.795" y1="104.962" x2="254.508" y2="100.132"/>
		<line class="st19" x1="268.244" y1="103.521" x2="257.953" y2="98.69"/>
	</g>
</g>
<g id="create-google-compute">
	<rect x="284.612" y="189.041" class="st3" width="19.297" height="19.297"/>
	<rect x="290.523" y="195.038" class="st3" width="7.301" height="7.301"/>
	<line class="st20" x1="288.5" y1="183" x2="288.5" y2="186"/>
	<line class="st20" x1="293.5" y1="183" x2="293.5" y2="186"/>
	<line class="st20" x1="299.5" y1="183" x2="299.5" y2="186"/>
	<line class="st20" x1="310" y1="193.5" x2="307" y2="193.5"/>
	<line class="st20" x1="310" y1="198.5" x2="307" y2="198.5"/>
	<line class="st20" x1="310" y1="204.5" x2="307" y2="204.5"/>
	<line class="st20" x1="299.5" y1="214" x2="299.5" y2="211"/>
	<line class="st20" x1="294.5" y1="214" x2="294.5" y2="211"/>
	<line class="st20" x1="288.5" y1="214" x2="288.5" y2="211"/>
	<line class="st20" x1="279" y1="204.5" x2="282" y2="204.5"/>
	<line class="st20" x1="279" y1="199.5" x2="282" y2="199.5"/>
	<line class="st20" x1="279" y1="193.5" x2="282" y2="193.5"/>
	<polygon class="st20" points="276.004,229.361 258.234,198.583 276.004,167.806 311.543,167.806 329.312,198.583 311.543,229.361 	
		"/>
</g>
<g id="dropdown-check">
	<path class="st1" d="M14.595,43.093l-2.757-2.77c-0.545-0.559-0.545-1.469,0-2.002c0.572-0.572,1.47-0.572,2.016,0l1.755,1.755
		l4.434-4.446c0.546-0.559,1.469-0.559,2.015,0c0.547,0.547,0.547,1.47,0,2.016l-5.447,5.447c-0.26,0.26-0.611,0.429-1.001,0.429
		S14.881,43.353,14.595,43.093z"/>
</g>
</svg>
