<?xml version="1.0" encoding="iso-8859-1"?>
<!-- Generator: Adobe Illustrator 21.1.0, SVG Export Plug-In . SVG Version: 6.00 Build 0)  -->
<svg version="1.1" id="svgs" xmlns="http://www.w3.org/2000/svg" xmlns:xlink="http://www.w3.org/1999/xlink" x="0px" y="0px"
	 viewBox="0 0 200 200" style="enable-background:new 0 0 200 200;" xml:space="preserve">
<style type="text/css">
	.st0{fill:#0072C3;}
	.st1{fill:#FFFFFF;}
	.st2{fill:#19B3FF;}
	.st3{fill:none;stroke:#FFFFFF;stroke-width:1.5;stroke-miterlimit:10;}
	.st4{fill:none;stroke:#82979F;stroke-miterlimit:10;}
	.st5{fill:#ACB8C4;}
	.st6{fill:#D5DDE6;}
	.st7{fill:#DBE3EB;}
	.st8{clip-path:url(#SVGID_2_);}
	.st9{opacity:0.39;fill:url(#SVGID_3_);enable-background:new    ;}
	.st10{opacity:0.39;fill:url(#SVGID_4_);enable-background:new    ;}
	.st11{opacity:0.39;fill:url(#SVGID_5_);enable-background:new    ;}
	.st12{opacity:0.72;fill:url(#SVGID_6_);enable-background:new    ;}
	.st13{opacity:0.13;fill:url(#SVGID_7_);enable-background:new    ;}
	.st14{fill:#637787;}
	.st15{fill:none;stroke:#E0E8F1;stroke-width:1.5826;stroke-miterlimit:10;}
	.st16{fill:none;stroke:#E0E8F1;stroke-width:1.5826;stroke-miterlimit:10;stroke-dasharray:10.5002,3.0001;}
	.st17{fill:none;stroke:#E0E8F1;stroke-width:1.5826;stroke-miterlimit:10;stroke-dasharray:10.4505,2.9859;}
	.st18{fill:none;stroke:#E0E8F1;stroke-width:1.5826;stroke-miterlimit:10;stroke-dasharray:10.5126,3.0036;}
	.st19{fill:#E2EAF3;}
	.st20{fill:none;stroke:#E0E8F1;stroke-width:1.5826;stroke-miterlimit:10;stroke-dasharray:14,4;}
	.st21{fill:none;stroke:#FFFFFF;stroke-width:2.6779;stroke-miterlimit:10;}
	.st22{fill:none;stroke:#1EB8FF;stroke-width:3;stroke-linecap:square;stroke-linejoin:bevel;}
	.st23{fill:none;stroke:#1EB8FF;stroke-width:3;stroke-linecap:square;stroke-linejoin:bevel;stroke-dasharray:6.5109,10.8515;}
	.st24{fill:none;stroke:#1EB8FF;stroke-width:3;stroke-linecap:square;stroke-linejoin:bevel;stroke-dasharray:6.5102,10.8504;}
	.st25{fill:none;stroke:#1EB8FF;stroke-width:3;stroke-linecap:square;stroke-linejoin:bevel;stroke-dasharray:6.5101,10.8501;}
	.st26{fill:none;stroke:#1EB8FF;stroke-width:3;stroke-linecap:square;stroke-linejoin:bevel;stroke-dasharray:6.5107,10.8512;}
	.st27{fill:none;stroke:#43C4A6;stroke-width:2.3066;stroke-miterlimit:10;}
	.st28{fill:#F3F7FA;}
	.st29{fill:#1EB8FF;}
	.st30{fill:none;}
	.st31{fill:#00ADFE;}
	.st32{fill:#DAE2E8;}
	.st33{fill:#EBF7FF;}
	.st34{fill:#BACEDB;}
	.st35{fill:#C7DEED;}
	.st36{fill:#51D5FB;}
	.st37{fill:url(#SVGID_8_);}
	.st38{fill:#44B9DA;}
	.st39{fill:url(#SVGID_9_);}
	.st40{fill:url(#SVGID_10_);}
	.st41{fill:url(#SVGID_11_);}
	.st42{fill:url(#SVGID_12_);}
	.st43{fill:url(#SVGID_13_);}
	.st44{fill:url(#SVGID_14_);}
	.st45{fill:url(#SVGID_15_);}
	.st46{fill:url(#SVGID_16_);}
	.st47{fill:#3FACCB;}
	.st48{fill:url(#SVGID_17_);}
	.st49{fill:url(#SVGID_18_);}
	.st50{fill:url(#SVGID_19_);}
	.st51{fill:url(#SVGID_20_);}
	.st52{fill:url(#SVGID_21_);}
	.st53{fill:url(#SVGID_22_);}
	.st54{fill:url(#SVGID_23_);}
	.st55{fill:url(#SVGID_24_);}
	.st56{fill:url(#SVGID_25_);}
	.st57{fill:url(#SVGID_26_);}
	.st58{fill:url(#SVGID_27_);}
	.st59{fill:url(#SVGID_28_);}
	.st60{fill:url(#SVGID_29_);}
	.st61{fill:url(#SVGID_30_);}
	.st62{fill:url(#SVGID_31_);}
	.st63{fill:none;stroke:#ABCCD9;stroke-linecap:round;stroke-linejoin:round;stroke-miterlimit:10;}
	.st64{fill:url(#SVGID_32_);}
	.st65{fill:url(#SVGID_33_);}
	.st66{fill:url(#SVGID_34_);}
	.st67{fill:#43AFCE;}
	.st68{fill:url(#SVGID_35_);}
	.st69{fill:#37638E;}
	.st70{fill:url(#SVGID_36_);}
	.st71{fill:url(#SVGID_37_);}
	.st72{fill:none;stroke:#FFFFFF;stroke-width:2;stroke-miterlimit:10;}
</style>
<g id="next-arrow-btn">
	<polygon class="st0" points="140.9,11.9 59.6,11.9 59.6,51.5 140.9,51.5 153.1,31.7 	"/>
</g>
<g id="create-hex">
	<polygon class="st1" points="575.6,125 493.2,172.6 410.8,125 410.8,29.8 493.2,-17.7 575.6,29.8 	"/>
</g>
<g id="dropdown-check">
	<path class="st2" d="M14.6,43.1l-2.8-2.8c-0.5-0.6-0.5-1.5,0-2c0.6-0.6,1.5-0.6,2,0l1.8,1.8l4.4-4.4c0.5-0.6,1.5-0.6,2,0
		c0.5,0.5,0.5,1.5,0,2l-5.4,5.4c-0.3,0.3-0.6,0.4-1,0.4S14.9,43.4,14.6,43.1z"/>
</g>
<g id="whats-next">
	<line class="st3" x1="584.9" y1="298.4" x2="584.9" y2="410.8"/>
	<polyline class="st3" points="535.7,361.6 584.9,410.8 634,361.6 	"/>
	<rect x="410.8" y="241.9" class="st1" width="348.1" height="56.6"/>
</g>
<g id="next-process">
	<polyline class="st4" points="1024.3,47.9 986.3,85.9 954.9,85.9 	"/>
	<polyline class="st4" points="1046.1,163.4 1084.1,125.4 1115.5,125.4 	"/>
	<polyline class="st4" points="1024.3,317.9 986.3,355.9 954.9,355.9 	"/>
	<polyline class="st4" points="1046.1,433.4 1084.1,395.4 1115.5,395.4 	"/>
	<circle class="st5" cx="1188.6" cy="395.5" r="73.1"/>
	<g>
		<polygon class="st6" points="1240.1,391.7 1226.8,399.4 1213.4,391.7 1213.4,376.3 1226.8,368.6 1240.1,376.3 		"/>
		<polygon class="st1" points="1213.4,376.3 1226.8,384 1240.1,376.3 1226.8,368.6 		"/>
		<polygon class="st7" points="1226.8,384 1226.8,399.4 1213.4,391.7 1213.4,376.3 		"/>
	</g>
	<g>
		<polygon class="st6" points="1219.6,403.2 1189.9,420.3 1160.2,403.2 1160.2,368.8 1189.9,351.7 1219.6,368.8 		"/>
		<polygon class="st1" points="1160.2,368.8 1189.9,386 1219.6,368.8 1189.9,351.7 		"/>
		<polygon class="st7" points="1189.9,386 1189.9,420.3 1160.2,403.2 1160.2,368.8 		"/>
	</g>
	<g>
		<polygon class="st6" points="1163.8,413.3 1150.5,421 1137.1,413.3 1137.1,397.8 1150.5,390.1 1163.8,397.8 		"/>
		<polygon class="st1" points="1137.1,397.8 1150.5,405.5 1163.8,397.8 1150.5,390.1 		"/>
		<polygon class="st7" points="1150.5,405.5 1150.5,421 1137.1,413.3 1137.1,397.8 		"/>
	</g>
	<g>
		<polygon class="st6" points="1183.1,424.2 1169.8,431.9 1156.4,424.2 1156.4,408.8 1169.8,401.1 1183.1,408.8 		"/>
		<polygon class="st1" points="1156.4,408.8 1169.8,416.5 1183.1,408.8 1169.8,401.1 		"/>
		<polygon class="st7" points="1169.8,416.5 1169.8,431.9 1156.4,424.2 1156.4,408.8 		"/>
	</g>
	<circle class="st5" cx="881.8" cy="355.9" r="73.1"/>
	<polygon class="st6" points="916.8,383.1 881.8,403.3 846.8,383.1 846.8,342.6 881.8,322.4 916.8,342.6 	"/>
	<polygon class="st1" points="846.8,342.6 881.8,362.8 916.8,342.6 881.8,322.4 	"/>
	<polygon class="st7" points="881.8,362.8 881.8,403.3 846.8,383.1 846.8,342.6 	"/>
	<g>
		<polygon class="st6" points="854.1,342.6 881.8,358.6 881.8,326.6 		"/>
		<polygon class="st7" points="881.8,326.6 881.8,358.6 909.5,342.6 		"/>
	</g>
	<g>
		<g>
			<g>
				<g>
					<g>
						<g>
							<g>
								<defs>
									<polygon id="SVGID_1_" points="854.1,342.6 881.8,358.6 909.5,342.6 909.5,287.4 854.1,287.4 									"/>
								</defs>
								<clipPath id="SVGID_2_">
									<use xlink:href="#SVGID_1_"  style="overflow:visible;"/>
								</clipPath>
								<g class="st8">
									<polygon class="st1" points="901.9,332.1 881.8,343.7 861.7,332.1 861.7,308.9 881.8,297.3 901.9,308.9 									"/>
									<polygon class="st1" points="861.7,308.9 881.8,320.5 901.9,308.9 881.8,297.3 									"/>
									<polygon class="st1" points="881.8,320.5 881.8,343.7 861.7,332.1 861.7,308.9 									"/>
								</g>
							</g>
						</g>
					</g>
				</g>
			</g>
		</g>
	</g>
	
		<linearGradient id="SVGID_3_" gradientUnits="userSpaceOnUse" x1="899.75" y1="317.9706" x2="899.75" y2="268.249" gradientTransform="matrix(1 0 0 1 0 2)">
		<stop  offset="0" style="stop-color:#FFFFFF"/>
		<stop  offset="1" style="stop-color:#FFFFFF;stop-opacity:0"/>
	</linearGradient>
	<polygon class="st9" points="902.4,241.5 897.1,244.6 897.1,329.7 902.4,326.6 	"/>
	
		<linearGradient id="SVGID_4_" gradientUnits="userSpaceOnUse" x1="875.1" y1="319.0359" x2="875.1" y2="269.3144" gradientTransform="matrix(1 0 0 1 0 2)">
		<stop  offset="0" style="stop-color:#FFFFFF"/>
		<stop  offset="1" style="stop-color:#FFFFFF;stop-opacity:0"/>
	</linearGradient>
	<polygon class="st10" points="877.8,242.6 872.4,245.7 872.4,330.8 877.8,327.7 	"/>
	
		<linearGradient id="SVGID_5_" gradientUnits="userSpaceOnUse" x1="870.45" y1="314.7055" x2="870.45" y2="262.2587" gradientTransform="matrix(1 0 0 1 0 2)">
		<stop  offset="0" style="stop-color:#FFFFFF"/>
		<stop  offset="1" style="stop-color:#FFFFFF;stop-opacity:0"/>
	</linearGradient>
	<polygon class="st11" points="876.6,234 864.3,241.9 864.3,327 876.6,319.1 	"/>
	
		<linearGradient id="SVGID_6_" gradientUnits="userSpaceOnUse" x1="864.3" y1="300.974" x2="864.3" y2="250.6974" gradientTransform="matrix(1 0 0 1 0 2)">
		<stop  offset="0" style="stop-color:#FFFFFF"/>
		<stop  offset="1" style="stop-color:#FFFFFF;stop-opacity:0"/>
	</linearGradient>
	<polygon class="st12" points="867,248.3 861.6,251.4 861.6,309.8 867,306.7 	"/>
	
		<linearGradient id="SVGID_7_" gradientUnits="userSpaceOnUse" x1="-3059.9749" y1="319.2121" x2="-3059.9749" y2="270.2812" gradientTransform="matrix(-1 0 0 1 -2167.5249 2)">
		<stop  offset="0" style="stop-color:#FFFFFF"/>
		<stop  offset="1" style="stop-color:#FFFFFF;stop-opacity:0"/>
	</linearGradient>
	<polygon class="st13" points="887.8,244 897.1,247.8 897.1,330.8 887.8,327 	"/>
	<circle class="st14" cx="1035.2" cy="445.8" r="18.5"/>
	<circle class="st14" cx="1035.2" cy="311.3" r="18.5"/>
	<circle class="st14" cx="1035.2" cy="176.8" r="18.5"/>
	<circle class="st14" cx="1035.2" cy="42.4" r="18.5"/>
	<path class="st1" d="M1034.8,39.1l-2.2,2.3l-1.6-1.7l4.2-4.2h2.5v13.3h-2.8L1034.8,39.1L1034.8,39.1z"/>
	<path class="st1" d="M1029.7,181c5.5-4,7.1-5.4,7.1-7c0-1.2-1.1-1.7-2.2-1.7c-1.5,0-2.7,0.6-3.6,1.5l-1.6-1.9
		c1.3-1.5,3.3-2.2,5.1-2.2c2.8,0,5.1,1.6,5.1,4.3c0,2.3-1.9,4.3-5.5,6.8h5.6v2.5h-10V181z"/>
	<path class="st1" d="M1030.9,314.7c0.9,1,2.4,1.5,3.7,1.5c1.6,0,2.5-0.7,2.5-1.7c0-1.1-0.8-1.6-2.7-1.6c-0.6,0-1.5,0-1.7,0v-2.5
		c0.2,0,1.2,0,1.7,0c1.5,0,2.5-0.5,2.5-1.5c0-1.1-1.1-1.6-2.5-1.6c-1.3,0-2.5,0.5-3.4,1.4l-1.4-1.8c1.1-1.2,2.8-2.1,5.1-2.1
		c3.1,0,5,1.4,5,3.6c0,1.7-1.4,2.8-2.9,3c1.4,0.1,3.1,1.2,3.1,3.2c0,2.3-2.1,3.9-5.3,3.9c-2.5,0-4.3-0.9-5.3-2.1L1030.9,314.7z"/>
	<path class="st1" d="M1035.8,450.6h-6.4v-2.2l5.3-8.3h3.9v8.1h1.7v2.5h-1.7v2.8h-2.8V450.6L1035.8,450.6z M1032.2,448.1h3.6v-5.6
		L1032.2,448.1z"/>
	<circle class="st5" cx="1188.6" cy="125.5" r="73.1"/>
	<g id="hex-platform_1_">
		<g id="_x3E_bg_1_">
			<g>
				<polyline class="st15" points="1227.9,140.4 1227.9,147.4 1221.8,150.9 				"/>
				<line class="st16" x1="1219.2" y1="152.4" x2="1197.1" y2="165.1"/>
				<polyline class="st15" points="1195.8,165.8 1189.8,169.3 1183.7,165.8 				"/>
				<line class="st17" x1="1181.1" y1="164.3" x2="1159.1" y2="151.6"/>
				<polyline class="st15" points="1157.8,150.9 1151.8,147.4 1151.8,140.4 				"/>
				<line class="st18" x1="1151.8" y1="137.4" x2="1151.8" y2="111.9"/>
				<polyline class="st15" points="1151.8,110.4 1151.8,103.4 1157.8,99.9 				"/>
				<line class="st17" x1="1160.4" y1="98.4" x2="1182.4" y2="85.7"/>
				<polyline class="st15" points="1183.7,84.9 1189.8,81.4 1195.8,84.9 				"/>
				<line class="st16" x1="1198.4" y1="86.4" x2="1220.5" y2="99.1"/>
				<polyline class="st15" points="1221.8,99.9 1227.9,103.4 1227.9,110.4 				"/>
				<line class="st18" x1="1227.9" y1="113.4" x2="1227.9" y2="138.9"/>
			</g>
		</g>
		<g id="logo-horizontal_1_">
			<g>
				<polygon class="st1" points="1208.4,145.3 1189.6,154.9 1170.3,145.1 1189.1,135.3 				"/>
				<polygon class="st19" points="1200.4,141.2 1189.3,146.9 1178,141 1189.1,135.3 				"/>
				<polygon class="st6" points="1189.6,154.9 1208.4,145.3 1208.4,148.1 1189.6,157.7 				"/>
				<polygon class="st7" points="1189.6,154.9 1170.3,145.1 1170.3,147.9 1189.6,157.7 				"/>
			</g>
			<g>
				<polygon class="st6" points="1189.8,139.2 1205.1,131.4 1205.1,133.6 1189.8,141.5 				"/>
				<polygon class="st7" points="1189.8,139.2 1174.4,131.4 1174.4,133.6 1189.8,141.5 				"/>
				<polygon class="st1" points="1205.1,131.4 1189.8,139.2 1174.4,131.4 1189.8,123.5 				"/>
				<polygon class="st19" points="1201.1,129.2 1189.8,135.1 1178.5,129.2 1189.8,123.5 				"/>
			</g>
			<g>
				<polygon class="st6" points="1189.8,126.9 1208.4,117.3 1208.4,120.2 1189.8,129.7 				"/>
				<polygon class="st7" points="1189.8,126.9 1171.1,117.3 1171.1,120.2 1189.8,129.7 				"/>
				<polygon class="st1" points="1208.4,117.3 1189.8,126.9 1171.1,117.3 1189.8,107.8 				"/>
				<polygon class="st19" points="1203.5,114.8 1189.8,121.9 1176,114.8 1189.8,107.8 				"/>
			</g>
			<g>
				<polygon class="st1" points="1208.4,102.5 1189.6,112.2 1170.8,102.5 1189.6,92.9 				"/>
				<polygon class="st6" points="1189.6,112.2 1208.4,102.5 1208.4,105.5 1189.6,115.2 				"/>
				<polygon class="st7" points="1189.6,112.2 1170.8,102.5 1170.8,105.5 1189.6,115.2 				"/>
			</g>
		</g>
	</g>
	<path class="st20" d="M1208.4,114.8"/>
	<circle class="st5" cx="881.8" cy="85.9" r="73.1"/>
	<polygon class="st6" points="905.2,99.4 881.8,112.9 858.4,99.4 858.4,72.4 881.8,58.9 905.2,72.4 	"/>
	<polygon class="st1" points="858.4,72.4 881.8,85.9 905.2,72.4 881.8,58.9 	"/>
	<polygon class="st7" points="881.8,85.9 881.8,112.9 858.4,99.4 858.4,72.4 	"/>
	<line class="st15" x1="881.8" y1="53.7" x2="881.8" y2="41.4"/>
	<line class="st15" x1="895.8" y1="56.8" x2="901" y2="45.7"/>
	<line class="st15" x1="867.8" y1="56.8" x2="862.6" y2="45.7"/>
	<line class="st15" x1="881.8" y1="118.1" x2="881.8" y2="130.4"/>
	<line class="st15" x1="895.8" y1="115" x2="901" y2="126.2"/>
	<line class="st15" x1="867.8" y1="115" x2="862.6" y2="126.2"/>
	<line class="st15" x1="914" y1="85.9" x2="926.3" y2="85.9"/>
	<line class="st15" x1="910.9" y1="99.9" x2="922" y2="105.1"/>
	<line class="st15" x1="910.9" y1="71.9" x2="922" y2="66.7"/>
	<line class="st15" x1="849.6" y1="85.9" x2="837.3" y2="85.9"/>
	<line class="st15" x1="852.7" y1="99.9" x2="841.5" y2="105.1"/>
	<line class="st15" x1="852.7" y1="71.9" x2="841.5" y2="66.7"/>
</g>
<g id="gray-smiler">
	<circle class="st14" cx="686.3" cy="85.9" r="18.5"/>
	<path class="st21" d="M674.6,91.9c2.2,4.3,6.6,7.2,11.7,7.2s9.5-2.9,11.7-7.2"/>
	<circle class="st1" cx="698.7" cy="80.5" r="2.2"/>
	<circle class="st1" cx="673.9" cy="80.5" r="2.2"/>
</g>
<g id="no-provider-illo">
	<polygon class="st1" points="294.7,369.1 237.7,402 180.7,369.1 180.7,303.2 237.7,270.3 294.7,303.2 	"/>
	<g>
		<g>
			<polyline class="st22" points="312.5,376.3 312.5,379.3 309.9,380.8 			"/>
			<line class="st23" x1="300.5" y1="386.2" x2="245" y2="418.2"/>
			<polyline class="st22" points="240.3,420.9 237.7,422.4 235.1,420.9 			"/>
			<line class="st24" x1="225.7" y1="415.5" x2="170.3" y2="383.5"/>
			<polyline class="st22" points="165.6,380.8 163,379.3 163,376.3 			"/>
			<line class="st25" x1="163" y1="365.4" x2="163" y2="301.4"/>
			<polyline class="st22" points="163,296 163,293 165.6,291.5 			"/>
			<line class="st25" x1="175" y1="286.1" x2="230.4" y2="254.1"/>
			<polyline class="st22" points="235.1,251.4 237.7,249.9 240.3,251.4 			"/>
			<line class="st26" x1="249.7" y1="256.8" x2="305.2" y2="288.8"/>
			<polyline class="st22" points="309.9,291.5 312.5,293 312.5,296 			"/>
			<line class="st25" x1="312.5" y1="306.9" x2="312.5" y2="370.9"/>
		</g>
	</g>
	<path class="st27" d="M238.2,359"/>
	<path class="st27" d="M237.7,315.8"/>
	<path class="st27" d="M216.8,337.4"/>
	<path class="st27" d="M260,337.4"/>
	<polygon class="st28" points="294.7,303.2 237.3,332.3 237.3,402 294.7,369.1 	"/>
	<circle class="st29" cx="312.5" cy="379.3" r="12.7"/>
	<circle class="st30" cx="162.9" cy="379.3" r="12.7"/>
	<polygon class="st1" points="312.5,370.3 314.5,376.5 321,376.5 315.7,380.4 317.8,386.6 312.5,382.7 307.2,386.6 309.2,380.4 
		303.9,376.5 310.4,376.5 	"/>
</g>
<g id="new-custom">
	<polygon class="st31" points="263.461,42.357 244.999,53.016 226.539,42.357 226.539,21.042 244.999,10.384 263.461,21.042 	"/>
	<polygon class="st1" points="257.131,38.703 244.999,45.706 232.869,38.703 232.869,24.697 244.999,17.694 257.131,24.697 	"/>
	<polygon class="st31" points="251.404,35.397 245,39.095 238.596,35.397 238.596,28.002 245,24.305 251.404,28.002 	"/>
</g>
<g id="lil-city">
	<g>
		<polygon class="st32" points="61.97,563.328 172.907,594.815 61.97,616.741 -48.967,594.815 		"/>
	</g>
	<polygon class="st33" points="61.97,538.256 172.907,560.181 61.97,582.106 -48.967,560.181 	"/>
	<polygon class="st34" points="61.97,605.958 172.907,584.033 172.907,560.181 61.97,582.106 	"/>
	<polygon class="st35" points="61.97,605.958 -48.967,584.033 -48.967,560.181 61.97,582.106 	"/>
	<polygon class="st36" points="7.467,550.169 3.684,548.891 7.467,547.622 12.82,547.622 16.604,548.891 12.82,550.169 	"/>
	<linearGradient id="SVGID_8_" gradientUnits="userSpaceOnUse" x1="9.07" y1="552.1039" x2="11.2979" y2="558.8806">
		<stop  offset="0.0048" style="stop-color:#39A1CB"/>
		<stop  offset="1" style="stop-color:#284969"/>
	</linearGradient>
	<rect x="7.467" y="550.178" class="st37" width="5.352" height="10.382"/>
	<polygon class="st38" points="7.467,550.178 3.684,548.891 3.684,559.283 7.467,560.56 	"/>
	<linearGradient id="SVGID_9_" gradientUnits="userSpaceOnUse" x1="13.7895" y1="551.9221" x2="15.7025" y2="557.7407">
		<stop  offset="0" style="stop-color:#3C7FAA"/>
		<stop  offset="1" style="stop-color:#304669"/>
	</linearGradient>
	<polygon class="st39" points="12.82,550.178 16.603,548.891 16.603,559.283 12.82,560.56 	"/>
	<polygon class="st36" points="24.948,492.363 21.164,491.086 24.948,489.816 30.3,489.816 34.084,491.086 30.3,492.363 	"/>
	<linearGradient id="SVGID_10_" gradientUnits="userSpaceOnUse" x1="23.5428" y1="502.1591" x2="32.0134" y2="527.9239">
		<stop  offset="0.0048" style="stop-color:#39A1CB"/>
		<stop  offset="1" style="stop-color:#284969"/>
	</linearGradient>
	<rect x="24.948" y="492.373" class="st40" width="5.352" height="44.401"/>
	<polygon class="st38" points="24.948,492.373 21.164,491.086 21.164,535.497 24.948,536.774 	"/>
	<linearGradient id="SVGID_11_" gradientUnits="userSpaceOnUse" x1="28.262" y1="501.9774" x2="36.4176" y2="526.784">
		<stop  offset="0" style="stop-color:#3C7FAA"/>
		<stop  offset="1" style="stop-color:#304669"/>
	</linearGradient>
	<polygon class="st41" points="30.3,492.373 34.083,491.086 34.083,535.497 30.3,536.774 	"/>
	<polygon class="st36" points="19.603,514.227 15.82,512.95 19.603,511.68 24.956,511.68 28.74,512.95 24.956,514.227 	"/>
	<linearGradient id="SVGID_12_" gradientUnits="userSpaceOnUse" x1="18.198" y1="524.0225" x2="26.6686" y2="549.7873">
		<stop  offset="0.0048" style="stop-color:#39A1CB"/>
		<stop  offset="1" style="stop-color:#284969"/>
	</linearGradient>
	<rect x="19.603" y="514.236" class="st42" width="5.352" height="44.401"/>
	<polygon class="st38" points="19.603,514.236 15.82,512.95 15.82,557.36 19.603,558.637 	"/>
	<linearGradient id="SVGID_13_" gradientUnits="userSpaceOnUse" x1="22.9176" y1="523.8408" x2="31.0732" y2="548.6474">
		<stop  offset="0" style="stop-color:#3C7FAA"/>
		<stop  offset="1" style="stop-color:#304669"/>
	</linearGradient>
	<polygon class="st43" points="24.956,514.236 28.739,512.95 28.739,557.36 24.956,558.637 	"/>
	<polygon class="st36" points="15.721,538.648 11.938,537.371 15.721,536.101 21.073,536.101 24.857,537.371 21.073,538.648 	"/>
	<linearGradient id="SVGID_14_" gradientUnits="userSpaceOnUse" x1="16.1797" y1="543.5731" x2="20.7819" y2="557.5714">
		<stop  offset="0.0048" style="stop-color:#39A1CB"/>
		<stop  offset="1" style="stop-color:#284969"/>
	</linearGradient>
	<rect x="15.721" y="538.658" class="st44" width="5.352" height="23.32"/>
	<polygon class="st38" points="15.721,538.658 11.938,537.371 11.938,560.701 15.721,561.978 	"/>
	<linearGradient id="SVGID_15_" gradientUnits="userSpaceOnUse" x1="20.8993" y1="543.3914" x2="25.1864" y2="556.4314">
		<stop  offset="0" style="stop-color:#3C7FAA"/>
		<stop  offset="1" style="stop-color:#304669"/>
	</linearGradient>
	<polygon class="st45" points="21.073,538.658 24.857,537.371 24.857,560.701 21.073,561.978 	"/>
	<polygon class="st36" points="32.469,502.96 28.685,501.683 32.469,500.413 37.821,500.413 41.605,501.683 37.821,502.96 	"/>
	<linearGradient id="SVGID_16_" gradientUnits="userSpaceOnUse" x1="29.7698" y1="516.136" x2="40.9251" y2="550.0665">
		<stop  offset="0.0048" style="stop-color:#39A1CB"/>
		<stop  offset="1" style="stop-color:#284969"/>
	</linearGradient>
	<rect x="32.469" y="502.969" class="st46" width="5.352" height="59.031"/>
	<polygon class="st47" points="32.469,502.969 28.685,501.683 28.685,560.723 32.469,562 	"/>
	<linearGradient id="SVGID_17_" gradientUnits="userSpaceOnUse" x1="34.4894" y1="515.9543" x2="45.3296" y2="548.9266">
		<stop  offset="0" style="stop-color:#3C7FAA"/>
		<stop  offset="1" style="stop-color:#304669"/>
	</linearGradient>
	<polygon class="st48" points="37.821,502.969 41.604,501.683 41.604,560.723 37.821,562 	"/>
	<polygon class="st36" points="23.387,532.44 19.604,531.162 23.387,529.893 28.74,529.893 32.524,531.162 28.74,532.44 	"/>
	<linearGradient id="SVGID_18_" gradientUnits="userSpaceOnUse" x1="23.1821" y1="539.0992" x2="29.1621" y2="557.2883">
		<stop  offset="0.0048" style="stop-color:#428BBC"/>
		<stop  offset="1" style="stop-color:#38527A"/>
	</linearGradient>
	<rect x="23.387" y="532.449" class="st49" width="5.352" height="30.828"/>
	<polygon class="st47" points="23.387,532.449 19.604,531.162 19.604,562 23.387,563.277 	"/>
	<linearGradient id="SVGID_19_" gradientUnits="userSpaceOnUse" x1="27.9017" y1="538.9175" x2="33.5667" y2="556.1483">
		<stop  offset="0" style="stop-color:#3C7FAA"/>
		<stop  offset="1" style="stop-color:#304669"/>
	</linearGradient>
	<polygon class="st50" points="28.74,532.449 32.523,531.162 32.523,562 28.74,563.277 	"/>
	<polygon class="st36" points="50.461,549.007 46.678,547.73 50.461,546.46 55.813,546.46 59.597,547.73 55.813,549.007 	"/>
	<linearGradient id="SVGID_20_" gradientUnits="userSpaceOnUse" x1="51.8529" y1="551.4927" x2="54.5181" y2="559.5996">
		<stop  offset="0.0048" style="stop-color:#39A1CB"/>
		<stop  offset="1" style="stop-color:#284969"/>
	</linearGradient>
	<rect x="50.461" y="549.016" class="st51" width="5.352" height="12.765"/>
	<polygon class="st38" points="50.461,549.016 46.678,547.73 46.678,560.504 50.461,561.781 	"/>
	<linearGradient id="SVGID_21_" gradientUnits="userSpaceOnUse" x1="56.5724" y1="551.311" x2="58.9227" y2="558.4597">
		<stop  offset="0" style="stop-color:#3C7FAA"/>
		<stop  offset="1" style="stop-color:#304669"/>
	</linearGradient>
	<polygon class="st52" points="55.813,549.016 59.597,547.73 59.597,560.504 55.813,561.781 	"/>
	<polygon class="st36" points="41.604,523.026 37.821,521.749 41.604,520.479 46.957,520.479 50.741,521.749 46.957,523.026 	"/>
	<linearGradient id="SVGID_22_" gradientUnits="userSpaceOnUse" x1="40.5667" y1="531.8609" x2="48.2741" y2="555.3041">
		<stop  offset="0" style="stop-color:#4689B4"/>
		<stop  offset="1" style="stop-color:#284969"/>
	</linearGradient>
	<rect x="41.604" y="523.036" class="st53" width="5.352" height="40.241"/>
	<polygon class="st47" points="41.604,523.036 37.821,521.749 37.821,562 41.604,563.277 	"/>
	<linearGradient id="SVGID_23_" gradientUnits="userSpaceOnUse" x1="45.2863" y1="531.6791" x2="52.6787" y2="554.1642">
		<stop  offset="0" style="stop-color:#37638E"/>
		<stop  offset="1" style="stop-color:#284969"/>
	</linearGradient>
	<polygon class="st54" points="46.957,523.036 50.74,521.749 50.74,562 46.957,563.277 	"/>
	<linearGradient id="SVGID_24_" gradientUnits="userSpaceOnUse" x1="81.0092" y1="544.9176" x2="86.4801" y2="561.5583">
		<stop  offset="0.0048" style="stop-color:#51D5FB"/>
		<stop  offset="1" style="stop-color:#428BBC"/>
	</linearGradient>
	<path class="st55" d="M89.015,536.263l-0.569,30.001c0,0-12.906-2.091-12.147-2.851C77.058,562.654,89.015,536.263,89.015,536.263z
		"/>
	<linearGradient id="SVGID_25_" gradientUnits="userSpaceOnUse" x1="95.4336" y1="542.0668" x2="100.9045" y2="558.7075">
		<stop  offset="0.0048" style="stop-color:#51D5FB"/>
		<stop  offset="1" style="stop-color:#428BBC"/>
	</linearGradient>
	<path class="st56" d="M103.439,533.413l-0.569,30.001c0,0-12.906-2.091-12.147-2.851
		C91.482,559.803,103.439,533.413,103.439,533.413z"/>
	<linearGradient id="SVGID_26_" gradientUnits="userSpaceOnUse" x1="109.858" y1="539.2161" x2="115.3289" y2="555.8567">
		<stop  offset="0.0048" style="stop-color:#51D5FB"/>
		<stop  offset="1" style="stop-color:#428BBC"/>
	</linearGradient>
	<path class="st57" d="M117.864,530.562l-0.569,30.001c0,0-12.906-2.091-12.147-2.851
		C105.907,556.952,117.864,530.562,117.864,530.562z"/>
	<linearGradient id="SVGID_27_" gradientUnits="userSpaceOnUse" x1="117.2803" y1="537.1579" x2="123.0983" y2="554.8543">
		<stop  offset="0" style="stop-color:#3C7FAA"/>
		<stop  offset="1" style="stop-color:#304669"/>
	</linearGradient>
	<polygon class="st58" points="117.864,530.562 131.719,557.712 117.294,560.563 	"/>
	<linearGradient id="SVGID_28_" gradientUnits="userSpaceOnUse" x1="102.8559" y1="540.0087" x2="108.6739" y2="557.7051">
		<stop  offset="0" style="stop-color:#3C7FAA"/>
		<stop  offset="1" style="stop-color:#304669"/>
	</linearGradient>
	<polygon class="st59" points="103.439,533.413 117.294,560.563 102.87,563.413 	"/>
	<linearGradient id="SVGID_29_" gradientUnits="userSpaceOnUse" x1="88.4315" y1="542.8594" x2="94.2495" y2="560.5558">
		<stop  offset="0" style="stop-color:#3C7FAA"/>
		<stop  offset="1" style="stop-color:#304669"/>
	</linearGradient>
	<polygon class="st60" points="89.015,536.263 102.87,563.413 88.445,566.264 	"/>
	<path class="st36" d="M110.105,549.042"/>
	<polygon class="st36" points="32.672,553.952 28.889,552.675 32.672,551.405 38.025,551.405 41.809,552.675 38.025,553.952 	"/>
	<linearGradient id="SVGID_30_" gradientUnits="userSpaceOnUse" x1="34.2749" y1="555.8871" x2="36.5029" y2="562.6638">
		<stop  offset="0.0048" style="stop-color:#39A1CB"/>
		<stop  offset="1" style="stop-color:#284969"/>
	</linearGradient>
	<rect x="32.672" y="553.962" class="st61" width="5.352" height="10.382"/>
	<polygon class="st38" points="32.672,553.962 28.889,552.675 28.889,563.066 32.672,564.343 	"/>
	<linearGradient id="SVGID_31_" gradientUnits="userSpaceOnUse" x1="38.9945" y1="555.7054" x2="40.9074" y2="561.5239">
		<stop  offset="0" style="stop-color:#3C7FAA"/>
		<stop  offset="1" style="stop-color:#304669"/>
	</linearGradient>
	<polygon class="st62" points="38.025,553.962 41.808,552.675 41.808,563.066 38.025,564.343 	"/>
	<path class="st63" d="M60.608,507.219"/>
	<linearGradient id="SVGID_32_" gradientUnits="userSpaceOnUse" x1="70.6883" y1="535.6376" x2="61.2359" y2="466.9506">
		<stop  offset="0" style="stop-color:#3D9AB2"/>
		<stop  offset="1" style="stop-color:#246F9D"/>
	</linearGradient>
	<polygon class="st64" points="61.575,469.445 49.616,475.632 47.546,489.453 63.952,518.399 63.944,518.396 79.784,527.357 
		79.784,479.747 	"/>
	<linearGradient id="SVGID_33_" gradientUnits="userSpaceOnUse" x1="67.3851" y1="502.6906" x2="62.6139" y2="468.0195">
		<stop  offset="0" style="stop-color:#3D9AB2"/>
		<stop  offset="1" style="stop-color:#246F9D"/>
	</linearGradient>
	<polygon class="st65" points="49.616,475.632 63.952,499.615 79.784,490.719 61.575,469.445 	"/>
	<linearGradient id="SVGID_34_" gradientUnits="userSpaceOnUse" x1="67.7356" y1="450.1442" x2="84.9477" y2="476.995">
		<stop  offset="0" style="stop-color:#B7ECFB"/>
		<stop  offset="1" style="stop-color:#31CAF6"/>
	</linearGradient>
	<polygon class="st66" points="71.299,453.47 57.009,466.862 79.784,479.747 100.544,467.874 	"/>
	<polygon class="st47" points="61.575,469.445 79.784,490.719 87.659,475.243 	"/>
	<polygon class="st67" points="71.299,453.47 61.575,469.445 49.616,475.632 57.009,466.862 	"/>
	<linearGradient id="SVGID_35_" gradientUnits="userSpaceOnUse" x1="97.5814" y1="473.0699" x2="91.385" y2="506.117">
		<stop  offset="0" style="stop-color:#448EC1"/>
		<stop  offset="1" style="stop-color:#263854"/>
	</linearGradient>
	<polygon class="st68" points="100.544,467.874 100.544,467.874 79.784,491.037 79.784,527.357 110.053,483.51 	"/>
	<polygon class="st69" points="79.784,490.719 63.952,499.615 63.952,518.399 79.784,527.357 87.325,502.698 	"/>
	<linearGradient id="SVGID_36_" gradientUnits="userSpaceOnUse" x1="97.4003" y1="505.1514" x2="92.2367" y2="467.6291">
		<stop  offset="0" style="stop-color:#3D9AB2"/>
		<stop  offset="1" style="stop-color:#246F9D"/>
	</linearGradient>
	<polygon class="st70" points="87.659,475.243 100.544,467.874 110.053,483.51 87.325,502.698 79.784,490.719 	"/>
	<linearGradient id="SVGID_37_" gradientUnits="userSpaceOnUse" x1="76.6203" y1="488.8536" x2="61.4737" y2="512.9505">
		<stop  offset="0" style="stop-color:#37638E"/>
		<stop  offset="1" style="stop-color:#284969"/>
	</linearGradient>
	<polygon class="st71" points="63.952,518.399 79.784,490.719 63.952,499.615 	"/>
	<polyline class="st72" points="236.286,525.91 200.641,575.543 157.493,575.543 	"/>
	<circle class="st1" cx="157.493" cy="575.543" r="2.973"/>
</g>
</svg>
